<?xml version="1.0" standalone="no"?>
<!DOCTYPE svg PUBLIC "-//W3C//DTD SVG 1.1//EN" "http://www.w3.org/Graphics/SVG/1.1/DTD/svg11.dtd" >
<svg>
<metadata>
Created by FontForge 20110222 at Thu Feb 12 20:49:49 2015
 By deploy user
Copyright 2010 URW++ Design &#38; Development Hamburg
</metadata>
<defs>
<font id="AlternateGotNo2D" horiz-adv-x="500" >
  <font-face 
    font-family="AlternateGotNo2D"
    font-weight="400"
    font-stretch="normal"
    units-per-em="1000"
    panose-1="0 0 5 0 0 0 0 0 0 0"
    ascent="667"
    descent="-333"
    x-height="497"
    cap-height="667"
    bbox="-93 -250 732 859"
    underline-thickness="62"
    underline-position="-36"
    unicode-range="U+0020-FB04"
  />
<missing-glyph horiz-adv-x="177" 
 />
    <glyph glyph-name="ff" unicode="ff" horiz-adv-x="449" 
d="M211 497v-82h-58v-415h-90v415h-56v82h56v57q0 61 22 86q31 34 86 34q26 0 50 -7v-77q-12 2 -25 2q-24 0 -33.5 -14t-9.5 -49v-32h58zM435 497v-82h-57v-415h-90v415h-57v82h57v57q0 61 22 86q31 34 86 34q25 0 49 -7v-77q-12 2 -24 2q-24 0 -33.5 -14t-9.5 -49v-32h57z
" />
    <glyph glyph-name="fi" unicode="fi" horiz-adv-x="362" 
d="M153 0h-90v415h-56v82h56v57q0 45 9.5 67t34.5 37q26 16 71 16q30 0 76 -9v-76q-39 3 -50 3q-30 0 -40.5 -13t-10.5 -50v-32h170v-497h-90v415h-80v-415z" />
    <glyph glyph-name="fl" unicode="fl" horiz-adv-x="362" 
d="M153 0h-90v415h-56v82h56v57q0 61 22 86q31 34 86 34q13 0 54 -6q4 -1 23 -1h75v-667h-90v590q-15 2 -32 2q-28 0 -38 -13t-10 -50v-32h51v-82h-51v-415z" />
    <glyph glyph-name="ffi" unicode="ffi" horiz-adv-x="616" 
d="M211 497v-82h-58v-415h-90v415h-56v82h56v57q0 61 22 86q31 34 86 34q26 0 50 -7v-77q-12 2 -25 2q-24 0 -33.5 -14t-9.5 -49v-32h58zM435 497v-82h-57v-415h-90v415h-57v82h57v57q0 61 22 86q31 34 86 34q25 0 49 -7v-77q-12 2 -24 2q-24 0 -33.5 -14t-9.5 -49v-32h57z
M577 497v-497h-90v497h90zM577 667v-90h-90v90h90z" />
    <glyph glyph-name="ffl" unicode="ffl" horiz-adv-x="616" 
d="M211 497v-82h-58v-415h-90v415h-56v82h56v57q0 61 22 86q31 34 86 34q26 0 50 -7v-77q-12 2 -25 2q-24 0 -33.5 -14t-9.5 -49v-32h58zM435 497v-82h-57v-415h-90v415h-57v82h57v57q0 61 22 86q31 34 86 34q25 0 49 -7v-77q-12 2 -24 2q-24 0 -33.5 -14t-9.5 -49v-32h57z
M577 667v-667h-90v667h90z" />
    <glyph glyph-name=".notdef" horiz-adv-x="177" 
 />
    <glyph glyph-name=".null" horiz-adv-x="0" 
 />
    <glyph glyph-name="nonmarkingreturn" horiz-adv-x="333" 
 />
    <glyph glyph-name="space" unicode=" " horiz-adv-x="177" 
 />
    <glyph glyph-name="exclam" unicode="!" horiz-adv-x="223" 
d="M143 197h-63l-20 470h103zM160 103v-103h-97v103h97z" />
    <glyph glyph-name="quotedbl" unicode="&#x22;" horiz-adv-x="357" 
d="M131 400h-72l-16 267h105zM296 400h-72l-16 267h105z" />
    <glyph glyph-name="numbersign" unicode="#" horiz-adv-x="400" 
d="M261 477l31 190h57l-31 -190h48l-11 -68h-48l-26 -159h53l-11 -68h-53l-30 -182h-57l30 182h-75l-29 -182h-58l30 182h-48l12 68h47l26 159h-51l13 67h49l31 191h58l-31 -190h74zM250 409h-75l-26 -159h75z" />
    <glyph glyph-name="dollar" unicode="$" horiz-adv-x="380" 
d="M323 602l-67 -61q-29 49 -68 49q-28 0 -45 -21.5t-17 -55.5q0 -37 24 -72q17 -22 84 -77q58 -46 83.5 -93t25.5 -106q0 -144 -133 -168v-98h-53v98q-37 3 -72.5 27.5t-54.5 59.5l69 58q31 -65 82 -65q33 0 51 23t18 66q0 44 -19.5 71.5t-94.5 90.5q-53 44 -76.5 86.5
t-23.5 95.5q0 130 121 159v67h53v-67q71 -9 113 -67z" />
    <glyph glyph-name="percent" unicode="%" horiz-adv-x="532" 
d="M203 576v-148q0 -49 -17 -71q-22 -30 -64 -30q-43 0 -65 30q-17 22 -17 71v148q0 49 17 71q22 30 65 30q42 0 64 -30q17 -22 17 -71zM97 576v-148q0 -31 5 -40.5t20 -9.5q14 0 19 10t5 40v148q0 30 -5 40t-19 10q-15 0 -20 -9.5t-5 -40.5zM380 667h60l-288 -667h-60z
M492 239v-147q0 -49 -17 -71q-22 -31 -64 -31t-65 31q-17 22 -17 71v147q0 49 17 71q22 30 65 30q42 0 64 -30q17 -22 17 -71zM386 240v-149q0 -31 5 -40.5t20 -9.5q14 0 19 10t5 40v149q0 30 -5 39.5t-19 9.5q-15 0 -20 -9.5t-5 -39.5z" />
    <glyph glyph-name="ampersand" unicode="&#x26;" horiz-adv-x="444" 
d="M330 318l81 -19q-18 -95 -57 -171q15 -26 52 -38v-100q-67 11 -107 58q-51 -55 -115 -55q-67 0 -105.5 40.5t-38.5 110.5q0 47 14.5 83.5t63.5 108.5q-47 117 -47 186q0 68 35.5 110t92.5 42q53 0 84.5 -35t31.5 -95q0 -51 -20.5 -96.5t-74.5 -113.5q33 -69 76 -133
q19 40 34 117zM182 416q50 68 50 133q0 62 -37 62q-19 0 -30.5 -20.5t-11.5 -55.5q0 -52 29 -119zM161 251q-31 -58 -31 -98q0 -27 16.5 -43.5t42.5 -16.5q30 0 53 24q-51 74 -81 134z" />
    <glyph glyph-name="quotesingle" unicode="'" horiz-adv-x="195" 
d="M134 400h-75l-16 267h108z" />
    <glyph glyph-name="parenleft" unicode="(" horiz-adv-x="293" 
d="M252 -88l-66 -36q-137 212 -137 414q0 203 137 414l66 -36q-113 -184 -113 -378q0 -193 113 -378z" />
    <glyph glyph-name="parenright" unicode=")" horiz-adv-x="293" 
d="M42 668l66 36q137 -212 137 -414q0 -203 -137 -414l-66 36q113 185 113 378t-113 378z" />
    <glyph glyph-name="asterisk" unicode="*" horiz-adv-x="313" 
d="M110 541l-70 15l23 69l64 -30l-7 72h73l-7 -72l64 30l23 -69l-70 -14l48 -53l-59 -44l-35 62l-36 -62l-59 44z" />
    <glyph glyph-name="plus" unicode="+" horiz-adv-x="380" 
d="M338 379v-78h-107v-105h-81v105h-107v78h107v105h81v-105h107z" />
    <glyph glyph-name="comma" unicode="," horiz-adv-x="180" 
d="M139 103v-103l-52 -116h-45l35 116h-35v103h97z" />
    <glyph glyph-name="hyphen" unicode="-" horiz-adv-x="140" 
d="M140 298v-90h-140v90h140z" />
    <glyph glyph-name="period" unicode="." horiz-adv-x="180" 
d="M139 103v-103h-97v103h97z" />
    <glyph glyph-name="slash" unicode="/" horiz-adv-x="371" 
d="M280 667h71l-267 -734h-71z" />
    <glyph glyph-name="zero" unicode="0" horiz-adv-x="380" 
d="M338 481v-295q0 -54 -6.5 -83.5t-24.5 -54.5q-42 -58 -116 -58q-77 0 -117 58q-18 25 -24.5 54.5t-6.5 83.5v295q0 54 6.5 83.5t24.5 54.5q40 58 117 58q76 0 116 -58q18 -25 24.5 -54.5t6.5 -83.5zM138 482v-297q0 -59 7 -78q11 -29 46 -29q34 0 45 29q7 19 7 78v297
q0 59 -7 78q-11 29 -45 29q-35 0 -46 -29q-7 -19 -7 -78z" />
    <glyph glyph-name="one" unicode="1" horiz-adv-x="380" 
d="M253 667v-667h-95v524h-83v62q63 15 114 81h64z" />
    <glyph glyph-name="two" unicode="2" horiz-adv-x="380" 
d="M328 88v-88h-292v91q119 173 162.5 263t43.5 163q0 72 -50 72q-58 0 -58 -102q0 -11 1 -19h-93q-1 10 -1 23q0 90 39.5 138t113.5 48q67 0 105.5 -43.5t38.5 -119.5q0 -98 -86 -249q-37 -65 -114 -177h190z" />
    <glyph glyph-name="three" unicode="3" horiz-adv-x="380" 
d="M141 302v89q57 3 74 22t17 81q0 94 -46 94q-35 0 -43 -46q-2 -12 -2 -57h-92v16q0 81 38 128.5t102 47.5t98.5 -47.5t34.5 -135.5q0 -60 -13 -93.5t-45 -54.5q39 -22 54 -57t15 -105q0 -194 -144 -194q-73 0 -110.5 46t-37.5 134v20h94q-1 -9 -1 -20q0 -92 53 -92
q29 0 41 25t12 85q0 46 -7 67.5t-25 34.5q-20 12 -67 12z" />
    <glyph glyph-name="four" unicode="4" horiz-adv-x="380" 
d="M197 163h-174v89l170 415h96v-416h62v-88h-62v-163h-92v163zM197 251v250l-93 -250h93z" />
    <glyph glyph-name="five" unicode="5" horiz-adv-x="380" 
d="M312 667v-88h-171l-5 -164q37 47 90 47q52 0 78 -37q28 -37 28 -128v-121q0 -95 -36 -139q-39 -47 -109 -47q-46 0 -80.5 22t-50.5 62q-15 37 -15 114h95q0 -51 6 -72q11 -38 46 -38q29 0 40 25q9 19 9 71v107q0 54 -7 70q-8 22 -37 22q-21 0 -34 -12.5t-23 -41.5l-88 6
l11 342h253z" />
    <glyph glyph-name="six" unicode="6" horiz-adv-x="380" 
d="M332 489h-95q1 9 1 22q0 78 -49 78q-27 0 -38.5 -20.5t-11.5 -69.5v-136q38 48 91 48q109 0 109 -139v-92q0 -94 -35 -138q-43 -52 -112 -52q-70 0 -113 52q-35 44 -35 138v303q0 60 8.5 91.5t31.5 56.5q40 46 105 46q68 0 106 -45.5t38 -125.5q0 -10 -1 -17zM139 277
v-111q0 -47 12.5 -67.5t40.5 -20.5t40 20.5t12 68.5v89q0 38 -10 54t-33 16q-43 0 -62 -49z" />
    <glyph glyph-name="seven" unicode="7" horiz-adv-x="380" 
d="M42 667h282v-67l-124 -600h-96l123 579h-185v88z" />
    <glyph glyph-name="eight" unicode="8" horiz-adv-x="380" 
d="M270 354q38 -22 53 -57.5t15 -103.5q0 -203 -148 -203t-148 203q0 68 15 103.5t53 57.5q-33 28 -46 61t-13 87q0 91 40 134q38 41 99 41t99 -41q40 -43 40 -134q0 -54 -13 -87t-46 -61zM190 589q-49 0 -49 -95t49 -95t49 94q0 51 -11.5 73.5t-37.5 22.5zM190 301
q-29 0 -40 -24.5t-11 -86.5q0 -63 11 -87.5t40 -24.5t40 24.5t11 85.5q0 65 -11 89t-40 24z" />
    <glyph glyph-name="nine" unicode="9" horiz-adv-x="380" 
d="M48 178h95q-1 -9 -1 -22q0 -78 49 -78q27 0 38.5 20.5t11.5 69.5v136q-38 -48 -91 -48q-109 0 -109 139v92q0 94 35 138q43 52 112 52q70 0 113 -52q35 -44 35 -138v-303q0 -60 -8.5 -91.5t-31.5 -56.5q-40 -46 -105 -46q-68 0 -106 45.5t-38 125.5q0 10 1 17zM241 390
v111q0 47 -12.5 67.5t-40.5 20.5t-40 -20.5t-12 -68.5v-89q0 -38 10 -54t33 -16q43 0 62 49z" />
    <glyph glyph-name="colon" unicode=":" horiz-adv-x="180" 
d="M139 103v-103h-97v103h97zM139 497v-103h-97v103h97z" />
    <glyph glyph-name="semicolon" unicode=";" horiz-adv-x="180" 
d="M139 497v-103h-97v103h97zM139 103v-103l-52 -116h-45l35 116h-35v103h97z" />
    <glyph glyph-name="less" unicode="&#x3c;" 
d="M466 588v-97l-329 -156l329 -155v-97l-433 211v83z" />
    <glyph glyph-name="equal" unicode="=" horiz-adv-x="380" 
d="M338 456v-78h-295v78h295zM338 302v-78h-295v78h295z" />
    <glyph glyph-name="greater" unicode="&#x3e;" 
d="M34 83v97l329 156l-329 155v97l433 -211v-83z" />
    <glyph glyph-name="question" unicode="?" horiz-adv-x="346" 
d="M204 197h-81v21q0 84 13.5 134t56.5 128q22 38 22 65q0 22 -10 34.5t-27 12.5q-20 0 -34.5 -16t-29.5 -55l-81 32q20 63 54.5 92t90.5 29q59 0 93 -33t34 -91q0 -34 -10.5 -61.5t-43.5 -84.5q-28 -47 -38 -84.5t-10 -92.5q0 -15 1 -30zM213 103v-103h-97v103h97z" />
    <glyph glyph-name="at" unicode="@" horiz-adv-x="449" 
d="M410 177h-61l-12 28q-31 -38 -71 -38q-77 0 -77 84v188q0 43 22 67t61 24q31 0 58 -26v21q0 37 -27.5 59.5t-72.5 22.5q-44 0 -75 -26q-16 -14 -22 -32t-6 -54v-311q0 -58 19 -82q30 -42 89 -42q52 0 95 35l48 -46q-53 -59 -143 -59q-86 0 -134 41q-54 46 -54 131v349
q0 80 47 123t135 43q85 0 133 -42.5t48 -118.5v-339zM269 425v-153q0 -21 7 -29.5t24 -8.5t23.5 8.5t6.5 29.5v153q0 22 -6.5 30t-23.5 8t-24 -8.5t-7 -29.5z" />
    <glyph glyph-name="A" unicode="A" horiz-adv-x="405" 
d="M256 147h-107l-23 -147h-99l109 667h130l116 -667h-103zM241 240l-40 266l-38 -266h78z" />
    <glyph glyph-name="B" unicode="B" horiz-adv-x="401" 
d="M45 0v667h139q166 0 166 -173q0 -100 -70 -149q43 -22 62.5 -61t19.5 -105q0 -100 -49 -146q-20 -19 -45.5 -26t-74.5 -7h-148zM145 391h21q41 0 59 17q27 26 27 82q0 84 -69 84h-38v-183zM145 93h37q42 0 61 22.5t19 74.5q0 67 -32 93q-18 15 -60 15h-25v-205z" />
    <glyph glyph-name="C" unicode="C" horiz-adv-x="388" 
d="M355 446h-101q0 53 -2 85q-3 24 -17.5 38.5t-36.5 14.5q-40 0 -51 -44q-5 -22 -5 -101v-212q0 -86 7 -106q13 -38 49 -38q22 0 36.5 15.5t16.5 40.5q3 27 3 97h101v-38q0 -52 -4.5 -78t-18.5 -52q-40 -78 -133 -78q-75 0 -117 53q-25 30 -32.5 64.5t-7.5 112.5v226
q0 79 7.5 113.5t32.5 64.5q42 53 117 53q93 0 133 -73q23 -42 23 -122v-36z" />
    <glyph glyph-name="D" unicode="D" horiz-adv-x="397" 
d="M45 0v667h142q86 0 127.5 -46t41.5 -142v-291q0 -96 -41.5 -142t-127.5 -46h-142zM145 93h31q43 0 63 26q17 24 17 88v253q0 64 -17 88q-20 26 -63 26h-31v-481z" />
    <glyph glyph-name="E" unicode="E" horiz-adv-x="348" 
d="M317 667v-93h-172v-182h124v-93h-124v-206h172v-93h-272v667h272z" />
    <glyph glyph-name="F" unicode="F" horiz-adv-x="330" 
d="M314 667v-93h-169v-182h123v-93h-123v-299h-100v667h269z" />
    <glyph glyph-name="G" unicode="G" horiz-adv-x="399" 
d="M355 338v-338h-49l-19 53q-21 -35 -44.5 -49t-60.5 -14q-75 0 -110 57q-30 52 -30 166v233q0 79 7.5 113.5t32.5 64.5q42 53 117 53q56 0 96 -30.5t53 -82.5q7 -28 7 -115h-101q0 51 -2 81q-3 24 -17.5 38.5t-36.5 14.5q-40 0 -51 -44q-5 -20 -5 -100v-211q0 -83 7 -106
q11 -38 50 -38q41 0 51 43q5 23 5 101v27h-61v83h161z" />
    <glyph glyph-name="H" unicode="H" horiz-adv-x="400" 
d="M256 301h-111v-301h-100v667h100v-273h111v273h100v-667h-100v301z" />
    <glyph glyph-name="I" unicode="I" horiz-adv-x="189" 
d="M145 667v-667h-100v667h100z" />
    <glyph glyph-name="J" unicode="J" horiz-adv-x="231" 
d="M86 667h100v-457q0 -72 -6 -106.5t-22 -59.5q-29 -44 -100 -44h-48v93h24q29 0 40.5 21.5t11.5 79.5v473z" />
    <glyph glyph-name="K" unicode="K" horiz-adv-x="399" 
d="M45 667h100v-267l118 267h105l-115 -232l130 -435h-107l-85 310l-46 -92v-218h-100v667z" />
    <glyph glyph-name="L" unicode="L" horiz-adv-x="324" 
d="M311 93v-93h-266v667h100v-574h166z" />
    <glyph glyph-name="M" unicode="M" horiz-adv-x="517" 
d="M473 0h-93v461l-96 -461h-45l-101 461v-461h-93v667h134l83 -406l76 406h135v-667z" />
    <glyph glyph-name="N" unicode="N" horiz-adv-x="420" 
d="M376 0h-93l-145 412v-412h-93v667h101l137 -396v396h93v-667z" />
    <glyph glyph-name="O" unicode="O" horiz-adv-x="397" 
d="M355 450v-233q0 -75 -8 -110t-32 -64q-43 -53 -116 -53q-74 0 -117 53q-24 29 -32 64.5t-8 109.5v233q0 74 8 109.5t32 64.5q43 53 117 53t116 -53q24 -29 32 -64.5t8 -109.5zM142 439v-211q0 -87 7 -107q13 -38 50 -38q40 0 51 44q5 22 5 101v211q0 87 -7 107
q-13 38 -49 38q-41 0 -52 -44q-5 -22 -5 -101z" />
    <glyph glyph-name="P" unicode="P" horiz-adv-x="386" 
d="M145 276v-276h-100v667h140q96 0 134.5 -43.5t38.5 -151.5q0 -109 -38.5 -152.5t-134.5 -43.5h-40zM145 369h32q49 0 65 20.5t16 82.5q0 61 -16 81.5t-65 20.5h-32v-205z" />
    <glyph glyph-name="Q" unicode="Q" horiz-adv-x="397" 
d="M376 48v-99q-81 1 -111 55q-34 -14 -66 -14q-75 0 -117 53q-24 29 -32 64.5t-8 109.5v233q0 74 8 109.5t32 64.5q43 53 117 53t116 -53q24 -29 32 -64.5t8 -109.5v-233q0 -107 -22 -148q14 -17 43 -21zM142 439v-211q0 -87 7 -107q13 -38 50 -38q40 0 51 44q5 22 5 101
v211q0 87 -7 107q-13 38 -49 38q-41 0 -52 -44q-5 -22 -5 -101z" />
    <glyph glyph-name="R" unicode="R" horiz-adv-x="389" 
d="M145 279v-279h-100v667h140q87 0 127 -46.5t40 -146.5q0 -65 -15 -103t-52 -65l77 -306h-106l-63 279h-48zM145 372h32q44 0 58 21q17 27 17 80q0 60 -20 83q-13 18 -55 18h-32v-202z" />
    <glyph glyph-name="S" unicode="S" horiz-adv-x="371" 
d="M340 517l-97 -14q-5 45 -17.5 63t-40.5 18q-25 0 -40.5 -18t-15.5 -48q0 -34 17.5 -61.5t71.5 -77.5q78 -71 103.5 -114t25.5 -104q0 -76 -43.5 -123.5t-114.5 -47.5q-73 0 -118.5 49t-47.5 131l95 17q4 -104 71 -104q28 0 44.5 19.5t16.5 53.5q0 37 -26 72
q-20 26 -78 79q-63 59 -88.5 104.5t-25.5 100.5q0 74 43 119.5t114 45.5q133 0 151 -160z" />
    <glyph glyph-name="T" unicode="T" horiz-adv-x="328" 
d="M213 574v-574h-100v574h-106v93h314v-93h-108z" />
    <glyph glyph-name="U" unicode="U" horiz-adv-x="403" 
d="M258 667h100v-450q0 -75 -8 -110t-32 -64q-43 -53 -116 -53q-74 0 -117 53q-24 29 -32 64.5t-8 109.5v450h100v-439q0 -87 7 -107q13 -38 50 -38q40 0 51 44q5 22 5 101v439z" />
    <glyph glyph-name="V" unicode="V" horiz-adv-x="379" 
d="M249 0h-104l-128 667h102l77 -427l68 427h99z" />
    <glyph glyph-name="W" unicode="W" horiz-adv-x="550" 
d="M429 0h-87l-69 404l-66 -404h-87l-100 667h100l50 -399l63 399h83l66 -399l51 399h97z" />
    <glyph glyph-name="X" unicode="X" horiz-adv-x="394" 
d="M248 343l129 -343h-105l-78 215l-74 -215h-103l126 343l-121 324h105l69 -197l65 197h104z" />
    <glyph glyph-name="Y" unicode="Y" horiz-adv-x="372" 
d="M238 270v-270h-100v270l-125 397h104l71 -262l69 262h101z" />
    <glyph glyph-name="Z" unicode="Z" horiz-adv-x="352" 
d="M326 93v-93h-299v93l193 481h-178v93h284v-93l-192 -481h192z" />
    <glyph glyph-name="bracketleft" unicode="[" horiz-adv-x="293" 
d="M230 667v-87h-72v-588h72v-87h-160v762h160z" />
    <glyph glyph-name="backslash" unicode="\" horiz-adv-x="371" 
d="M91 667l267 -734h-71l-267 734h71z" />
    <glyph glyph-name="bracketright" unicode="]" horiz-adv-x="293" 
d="M63 -95v87h72v588h-72v87h160v-762h-160z" />
    <glyph glyph-name="asciicircum" unicode="^" 
d="M117 368h-90l168 301h110l168 -301h-90l-133 235z" />
    <glyph glyph-name="underscore" unicode="_" 
d="M0 -67h500v-62h-500v62z" />
    <glyph glyph-name="grave" unicode="`" 
d="M291 580h-70l-72 80h97z" />
    <glyph glyph-name="a" unicode="a" horiz-adv-x="346" 
d="M312 0h-90q-3 16 -7 56q-54 -63 -104 -63q-37 0 -59 32t-22 86q0 65 36.5 107t146.5 104v32q0 40 -7.5 54t-29.5 14q-21 0 -31 -15.5t-11 -52.5h-92q5 72 42 111t100 39q65 0 94 -43q15 -20 20 -43.5t5 -73.5v-164q0 -124 9 -180zM213 121v132q-49 -31 -69.5 -59.5
t-20.5 -66.5q0 -52 31 -52q32 0 59 46z" />
    <glyph glyph-name="b" unicode="b" horiz-adv-x="338" 
d="M129 667v-218q45 55 93 55q45 0 65 -40q16 -32 16 -116v-199q0 -84 -16 -116q-20 -40 -65 -40q-48 0 -93 55v-48h-90v667h90zM129 400v-303q23 -22 45 -22q24 0 32 18q7 14 7 55v201q0 42 -7 55q-8 18 -32 18q-22 0 -45 -22z" />
    <glyph glyph-name="c" unicode="c" horiz-adv-x="326" 
d="M300 325h-90q0 49 -1 58q-6 39 -41 39q-43 0 -43 -69v-209q0 -69 43 -69q38 0 41 49q1 8 1 57h90v-23q0 -73 -22 -109q-37 -56 -107 -56q-31 0 -60.5 14t-47.5 37q-28 39 -28 117v174q0 79 28 118q39 51 109 51q43 0 75.5 -23t45.5 -62q7 -23 7 -94z" />
    <glyph glyph-name="d" unicode="d" horiz-adv-x="338" 
d="M209 667h90v-667h-90v48q-45 -55 -93 -55q-45 0 -65 40q-16 32 -16 116v199q0 84 16 116q20 40 65 40q48 0 93 -55v218zM209 97v303q-23 22 -45 22q-24 0 -32 -18q-7 -13 -7 -55v-201q0 -41 7 -55q8 -18 32 -18q22 0 45 22z" />
    <glyph glyph-name="e" unicode="e" horiz-adv-x="340" 
d="M304 232h-179v-88q0 -69 45 -69q27 0 37 23q5 12 5 56q0 9 1 18h91v-23q0 -70 -23 -102q-38 -54 -109 -54q-70 0 -108 51q-29 39 -29 118v173q0 79 28 118q38 51 107 51q68 0 106 -51q28 -39 28 -118v-103zM214 307v46q0 69 -44 69q-45 0 -45 -69v-46h89z" />
    <glyph glyph-name="f" unicode="f" horiz-adv-x="224" 
d="M211 497v-82h-58v-415h-90v415h-56v82h56v57q0 61 22 86q31 34 86 34q26 0 50 -7v-77q-12 2 -25 2q-24 0 -33.5 -14t-9.5 -49v-32h58z" />
    <glyph glyph-name="g" unicode="g" horiz-adv-x="339" 
d="M333 501v-76q-34 0 -54 -20q2 -16 2 -52v-84q0 -64 -25 -99q-35 -44 -94 -44q-13 0 -25 1q-21 -17 -21 -34q0 -22 55 -25q99 -6 126 -26q41 -29 41 -88q0 -63 -45.5 -97t-130.5 -34q-71 0 -111 23t-40 65q0 26 17 44t64 41q-57 24 -57 64q0 39 57 81q-32 22 -44.5 50
t-12.5 78v92q0 64 25 99q33 44 101 44q65 0 103 -56q26 50 69 53zM117 363v-97q0 -63 41 -63t41 63v97q0 64 -41 64t-41 -64zM144 -13q-38 -18 -38 -46q0 -22 19 -35t50 -13q37 0 60 14t23 37q0 18 -11 26.5t-37 11.5q-3 0 -8.5 0.5t-21 1.5t-36.5 3z" />
    <glyph glyph-name="h" unicode="h" horiz-adv-x="337" 
d="M129 667v-224q32 35 54 48t49 13q33 0 50 -23q16 -23 16 -94v-387h-90v366q0 34 -3 41q-3 15 -19 15q-27 0 -57 -42v-380h-90v667h90z" />
    <glyph glyph-name="i" unicode="i" horiz-adv-x="167" 
d="M129 497v-497h-90v497h90zM129 667v-90h-90v90h90z" />
    <glyph glyph-name="j" unicode="j" horiz-adv-x="175" 
d="M46 497h90v-510q0 -53 -3.5 -74.5t-14.5 -40.5q-24 -42 -88 -42q-20 0 -47 6v87q15 -3 21 -3q42 0 42 56v521zM136 667v-90h-90v90h90z" />
    <glyph glyph-name="k" unicode="k" horiz-adv-x="338" 
d="M129 667v-361l92 191h91l-90 -166l98 -331h-88l-63 231l-40 -72v-159h-90v667h90z" />
    <glyph glyph-name="l" unicode="l" horiz-adv-x="167" 
d="M129 667v-667h-90v667h90z" />
    <glyph glyph-name="m" unicode="m" horiz-adv-x="506" 
d="M129 497v-54q32 35 54 48t49 13q55 0 64 -61q32 35 55 48t51 13q33 0 50 -23q16 -23 16 -94v-387h-90v366q0 34 -3 41q-3 15 -20 15q-27 0 -57 -42v-380h-90v366q0 34 -3 41q-3 15 -19 15q-27 0 -57 -42v-380h-90v497h90z" />
    <glyph glyph-name="n" unicode="n" horiz-adv-x="337" 
d="M129 497v-54q32 35 54 48t49 13q33 0 50 -23q16 -23 16 -94v-387h-90v366q0 34 -3 41q-3 15 -19 15q-27 0 -57 -42v-380h-90v497h90z" />
    <glyph glyph-name="o" unicode="o" horiz-adv-x="336" 
d="M301 335v-173q0 -79 -28 -118q-38 -51 -105 -51t-105 51q-28 39 -28 118v173q0 79 28 118q38 51 105 51t105 -51q28 -39 28 -118zM125 353v-209q0 -69 43 -69t43 69v209q0 69 -43 69t-43 -69z" />
    <glyph glyph-name="p" unicode="p" horiz-adv-x="338" 
d="M39 497h90v-48q45 55 93 55q45 0 65 -40q16 -32 16 -116v-199q0 -84 -16 -116q-20 -40 -65 -40q-48 0 -93 55v-218h-90v667zM129 400v-303q23 -22 45 -22q24 0 32 18q7 13 7 55v201q0 41 -7 55q-8 18 -32 18q-22 0 -45 -22z" />
    <glyph glyph-name="q" unicode="q" horiz-adv-x="338" 
d="M299 497v-667h-90v218q-45 -55 -93 -55q-45 0 -65 40q-16 32 -16 116v199q0 84 16 116q20 40 65 40q48 0 93 -55v48h90zM209 97v303q-23 22 -45 22q-24 0 -32 -18q-7 -14 -7 -55v-201q0 -42 7 -55q8 -18 32 -18q22 0 45 22z" />
    <glyph glyph-name="r" unicode="r" horiz-adv-x="236" 
d="M39 497h90v-71q23 41 48 59t60 19v-99q-16 5 -31 5q-36 0 -56 -25q-21 -25 -21 -84v-301h-90v497z" />
    <glyph glyph-name="s" unicode="s" horiz-adv-x="313" 
d="M292 380l-86 -20q-7 35 -18 48.5t-32 13.5q-19 0 -30.5 -12t-11.5 -32q0 -21 13 -38t53 -47q71 -55 93.5 -87.5t22.5 -81.5q0 -60 -37 -95.5t-99 -35.5q-123 0 -145 143l85 20q8 -36 15 -50q17 -31 47 -31q20 0 32 12.5t12 34.5t-12 38t-50 45q-71 54 -95.5 88.5
t-24.5 81.5q0 58 37 93.5t98 35.5q114 0 133 -124z" />
    <glyph glyph-name="t" unicode="t" horiz-adv-x="244" 
d="M235 497v-82h-75v-247q0 -51 9.5 -68t38.5 -17q11 0 27 4v-85q-33 -9 -64 -9q-53 0 -79 37q-13 18 -17.5 38t-4.5 65v282h-55v82h55v136h90v-136h75z" />
    <glyph glyph-name="u" unicode="u" horiz-adv-x="337" 
d="M298 497v-497h-90v54q-32 -35 -54 -48t-49 -13q-33 0 -50 23q-16 23 -16 94v387h90v-366q0 -34 3 -41q3 -15 19 -15q27 0 57 42v380h90z" />
    <glyph glyph-name="v" unicode="v" horiz-adv-x="314" 
d="M204 0h-85l-106 497h92l55 -308l51 308h89z" />
    <glyph glyph-name="w" unicode="w" horiz-adv-x="469" 
d="M368 0h-80l-52 284l-49 -284h-79l-91 497h85l48 -290l50 290h71l54 -283l46 283h82z" />
    <glyph glyph-name="x" unicode="x" horiz-adv-x="323" 
d="M208 262l100 -262h-92l-57 157l-54 -157h-90l97 262l-97 235h95l50 -136l48 136h91z" />
    <glyph glyph-name="y" unicode="y" horiz-adv-x="320" 
d="M214 497h89l-101 -510q-14 -71 -21 -91.5t-23 -37.5q-31 -35 -103 -35q-13 0 -32 3v88q7 -1 18 -1q42 0 61 32q7 12 16 49l-101 503h90l54 -320z" />
    <glyph glyph-name="z" unicode="z" horiz-adv-x="309" 
d="M278 82v-82h-251v77l152 338h-139v82h238v-82l-148 -333h148z" />
    <glyph glyph-name="braceleft" unicode="{" horiz-adv-x="313" 
d="M184 490v-89q0 -48 -12 -73t-43 -42q31 -18 43 -44t12 -73v-88q0 -55 19 -73t77 -19v-83q-81 0 -107 5.5t-46 26.5q-33 34 -33 115v103q0 43 -13 64t-44 30v76q31 8 44 29t13 61v115q0 72 35 106q21 20 47 25t104 5v-88q-57 -1 -76.5 -19t-19.5 -70z" />
    <glyph glyph-name="bar" unicode="|" 
d="M201 667h98v-834h-98v834z" />
    <glyph glyph-name="braceright" unicode="}" horiz-adv-x="313" 
d="M129 81v88q0 47 12 73t43 44q-31 17 -43 42t-12 73v89q0 52 -19.5 70t-75.5 19v88q78 0 103.5 -5t46.5 -25q35 -34 35 -106v-115q0 -40 13.5 -61t44.5 -29v-76q-32 -9 -45 -30t-13 -64v-103q0 -81 -33 -115q-20 -21 -45.5 -26.5t-106.5 -5.5v83q57 1 76 19t19 73z" />
    <glyph glyph-name="asciitilde" unicode="~" horiz-adv-x="667" 
d="M144 573l-50 40q53 119 139 119q36 0 115 -38q66 -31 89 -31q26 0 46 16.5t41 55.5l50 -41q-51 -118 -148 -118q-20 0 -40.5 7.5t-76.5 35.5q-54 25 -80 25q-45 0 -85 -71z" />
    <glyph glyph-name="uni00A0" unicode="&#xa0;" horiz-adv-x="177" 
 />
    <glyph glyph-name="exclamdown" unicode="&#xa1;" horiz-adv-x="223" 
d="M80 300h63l20 -470h-103zM63 394v103h97v-103h-97z" />
    <glyph glyph-name="cent" unicode="&#xa2;" horiz-adv-x="380" 
d="M165 700h53v-107q40 -9 65 -32q22 -21 30.5 -48t8.5 -78v-19h-90v16q0 36 -3 54q-7 27 -39 27q-43 0 -43 -69v-209q0 -68 43 -68q32 0 39 30q3 19 3 58v17h90v-23q0 -57 -10.5 -85.5t-38.5 -50.5q-24 -20 -55 -25v-121h-53v121q-57 13 -82.5 52t-25.5 113v173
q0 58 13 90.5t44 53.5q21 15 51 22v108z" />
    <glyph glyph-name="sterling" unicode="&#xa3;" horiz-adv-x="380" 
d="M285 353v-61h-86q12 -45 12 -82q0 -46 -26 -93q52 -22 62 -22q35 0 37 82l84 -4q0 -84 -30 -132t-82 -48q-32 0 -95 32q-26 13 -39 13q-29 0 -62 -48l-58 62q25 38 48.5 56t54.5 21q18 39 18 77q0 35 -15 86h-85v61h65q-25 70 -32 98.5t-7 60.5q0 76 41 120.5t110 44.5
q72 0 110 -48.5t37 -139.5l-93 -3q-1 52 -13.5 75.5t-40.5 23.5q-25 0 -39.5 -19.5t-14.5 -51.5q0 -41 30 -143l5 -18h104z" />
    <glyph glyph-name="currency" unicode="&#xa4;" horiz-adv-x="416" 
d="M334 265l37 -37l-57 -58l-37 37q-35 -17 -69 -17q-35 0 -71 18l-39 -39l-55 55l39 39q-18 33 -18 70q0 36 18 69l-38 38l58 57l37 -37q35 17 69 17q35 0 70 -18l40 39l54 -54l-39 -40q18 -33 18 -70q0 -36 -17 -69zM207 409q-31 0 -53.5 -22.5t-22.5 -52.5
q0 -31 22.5 -54t53.5 -23t54 22.5t23 52.5q0 32 -22.5 54.5t-54.5 22.5z" />
    <glyph glyph-name="yen" unicode="&#xa5;" horiz-adv-x="380" 
d="M240 279v-279h-95v279h-91v61h72l-100 327h99l68 -262l65 262h96l-96 -327h72v-61h-90z" />
    <glyph glyph-name="brokenbar" unicode="&#xa6;" 
d="M201 667h98v-339h-98v339zM201 153h98v-320h-98v320z" />
    <glyph glyph-name="section" unicode="&#xa7;" horiz-adv-x="389" 
d="M321 522h-90q0 41 -3 50q-9 23 -33 23q-13 0 -22 -8t-9 -20q0 -13 24 -40l127 -154q34 -43 34 -91q0 -78 -75 -110l10 -13q27 -34 27 -80q0 -50 -33.5 -81t-88.5 -31q-61 0 -95.5 34.5t-34.5 93.5q0 11 2 20h91q-2 -16 -2 -18q0 -22 10.5 -35t28.5 -13q14 0 23 9t9 23
q0 13 -18 35l-108 130q-32 38 -43.5 62t-11.5 51q0 71 84 104l-10 12q-40 47 -40 94q0 48 34 78t89 30q56 0 90.5 -34.5t34.5 -90.5q0 -9 -1 -30zM235 327l-65 78q-40 -17 -40 -43q0 -16 20 -39l75 -91q34 16 34 49q0 17 -24 46z" />
    <glyph glyph-name="dieresis" unicode="&#xa8;" 
d="M224 667v-89h-87v89h87zM364 667v-89h-87v89h87z" />
    <glyph glyph-name="copyright" unicode="&#xa9;" horiz-adv-x="775" 
d="M479 395h-66q1 5 1 11q0 40 -3 51q-8 19 -27 19q-21 0 -27 -23q-2 -8 -3 -59v-125q1 -52 4 -61q6 -20 26 -20q18 0 24 15.5t6 62.5q0 7 -1 12h66q1 -11 1 -26q0 -50 -14 -78q-24 -48 -82 -48q-45 0 -72 32q-14 19 -19 39.5t-5 67.5v133q0 48 4.5 68.5t19.5 39.5
q27 32 73 32q55 0 81 -45q14 -25 14 -73q0 -15 -1 -25zM392 679q139 0 239.5 -102t100.5 -244q0 -143 -101 -244t-243 -101t-243.5 101t-101.5 244q0 145 101.5 245.5t247.5 100.5zM392 627q-123 0 -208 -85t-85 -209q0 -121 85 -207t204 -86t203.5 86t84.5 207t-84 207.5
t-200 86.5z" />
    <glyph glyph-name="ordfeminine" unicode="&#xaa;" horiz-adv-x="232" 
d="M207 267h-65l-4 28q-32 -32 -61 -32q-25 0 -40 19.5t-15 53.5q0 39 23.5 65t90.5 61v17q0 22 -4 29.5t-15 7.5q-21 0 -22 -40h-65q6 95 92 95q41 0 62 -26q16 -20 16 -72v-97q0 -76 7 -109zM136 343v70q-48 -30 -48 -68q0 -27 15 -27q18 0 33 25z" />
    <glyph glyph-name="guillemotleft" unicode="&#xab;" horiz-adv-x="308" 
d="M268 100l-90 82v143l90 82v-120l-31 -34l31 -34v-119zM130 107l-90 75v143l90 75v-113l-31 -34l31 -34v-112z" />
    <glyph glyph-name="logicalnot" unicode="&#xac;" 
d="M371 0v195h-338v86h433v-281h-95z" />
    <glyph glyph-name="uni00AD" unicode="&#xad;" horiz-adv-x="140" 
d="M140 298v-90h-140v90h140z" />
    <glyph glyph-name="registered" unicode="&#xae;" horiz-adv-x="775" 
d="M362 301v-164h-66v400h86q53 0 77.5 -28.5t24.5 -89.5q0 -71 -39 -100l46 -182h-70l-37 164h-22zM362 363h16q23 0 31.5 12t8.5 44t-8.5 44t-31.5 12h-16v-112zM392 679q139 0 239.5 -102t100.5 -244q0 -143 -101 -244t-243 -101t-243.5 101t-101.5 244
q0 145 101.5 245.5t247.5 100.5zM391 627q-123 0 -207.5 -85t-84.5 -209q0 -121 85 -207t204 -86t203.5 86t84.5 207t-84 207.5t-201 86.5z" />
    <glyph glyph-name="macron" unicode="&#xaf;" 
d="M153 586v67h193v-67h-193z" />
    <glyph glyph-name="degree" unicode="&#xb0;" horiz-adv-x="407" 
d="M204 674q60 0 101.5 -42.5t41.5 -103.5q0 -58 -42 -100t-101 -42q-60 0 -102 42t-42 101q0 60 42 102.5t102 42.5zM203 606q-31 0 -53.5 -22.5t-22.5 -53.5t22.5 -54t53.5 -23t54 22.5t23 52.5q0 32 -22.5 55t-54.5 23z" />
    <glyph glyph-name="plusminus" unicode="&#xb1;" horiz-adv-x="380" 
d="M338 137v-78h-295v78h295zM338 374v-78h-107v-105h-81v105h-107v78h107v105h81v-105h107z" />
    <glyph glyph-name="twosuperior" unicode="&#xb2;" horiz-adv-x="260" 
d="M224 325v-59h-191v58q74 101 101.5 154.5t27.5 96.5q0 39 -27 39q-33 0 -33 -57v-14h-65q-1 7 -1 17q0 55 25.5 84t74.5 29q44 0 69 -27t25 -73q0 -45 -26.5 -98t-96.5 -150h117z" />
    <glyph glyph-name="threesuperior" unicode="&#xb3;" horiz-adv-x="260" 
d="M98 445v59q37 1 47.5 11.5t10.5 45.5q0 53 -26 53q-14 0 -20 -10.5t-6 -37.5q0 -8 1 -13h-65v12q0 50 24.5 79t67.5 29q41 0 64 -29t23 -82q0 -66 -34 -87q40 -23 40 -96q0 -118 -94 -118q-46 0 -71 28.5t-25 81.5v15h66q-1 -6 -1 -15q0 -51 30 -51q17 0 23.5 13.5
t6.5 47.5q0 40 -11.5 52t-50.5 12z" />
    <glyph glyph-name="acute" unicode="&#xb4;" 
d="M202 580l46 80h96l-72 -80h-70z" />
    <glyph glyph-name="mu" unicode="&#xb5;" horiz-adv-x="337" 
d="M208 497h90v-497h-90v40q-7 -27 -17 -37t-27 -10q-24 0 -35 30v-193h-90v667h90v-370q0 -36 8.5 -50.5t28.5 -14.5q30 0 42 40v395z" />
    <glyph glyph-name="paragraph" unicode="&#xb6;" horiz-adv-x="418" 
d="M189 -100v420q-63 2 -106 52t-43 120q0 77 47.5 126t121.5 49h172v-30h-40v-737h-48v737h-55v-737h-49z" />
    <glyph glyph-name="periodcentered" unicode="&#xb7;" horiz-adv-x="180" 
d="M139 305v-103h-97v103h97z" />
    <glyph glyph-name="cedilla" unicode="&#xb8;" 
d="M290 -46v-68l-22 -56h-47l17 56h-27v68h79z" />
    <glyph glyph-name="onesuperior" unicode="&#xb9;" horiz-adv-x="260" 
d="M173 667v-400h-67v309h-52v43q39 8 74 48h45z" />
    <glyph glyph-name="ordmasculine" unicode="&#xba;" horiz-adv-x="226" 
d="M200 468v-102q0 -48 -18 -72q-24 -31 -68 -31q-45 0 -69 31q-18 24 -18 72v102q0 48 18 72q24 31 69 31q44 0 68 -31q18 -24 18 -72zM91 479v-124q0 -37 23 -37q22 0 22 37v124q0 37 -22 37q-23 0 -23 -37z" />
    <glyph glyph-name="guillemotright" unicode="&#xbb;" horiz-adv-x="308" 
d="M40 407l90 -82v-143l-90 -82v119l31 34l-31 34v120zM178 400l90 -75v-143l-90 -75v112l31 34l-31 34v113z" />
    <glyph glyph-name="onequarter" unicode="&#xbc;" horiz-adv-x="606" 
d="M173 667v-400h-67v309h-52v43q39 8 74 48h45zM167 -33l222 733h51l-227 -733h-46zM478 96h-110v57l109 247h65v-245h39v-59h-39v-96h-64v96zM480 153v143l-58 -143h58z" />
    <glyph glyph-name="onehalf" unicode="&#xbd;" horiz-adv-x="606" 
d="M173 667v-400h-67v309h-52v43q39 8 74 48h45zM167 -33l222 733h51l-227 -733h-46zM570 59v-59h-191v58q74 101 101.5 154.5t27.5 95.5q0 39 -27 39q-33 0 -33 -57v-14h-65q-1 7 -1 17q0 55 25.5 84t74.5 29q44 0 69 -27t25 -73q0 -44 -26.5 -97.5t-96.5 -149.5h117z" />
    <glyph glyph-name="threequarters" unicode="&#xbe;" horiz-adv-x="606" 
d="M98 445v59q37 1 47.5 11.5t10.5 45.5q0 53 -26 53q-14 0 -20 -10.5t-6 -37.5q0 -8 1 -13h-65v12q0 50 24.5 79t67.5 29q41 0 64 -29t23 -82q0 -66 -34 -87q40 -23 40 -96q0 -118 -94 -118q-46 0 -71 28.5t-25 81.5v15h66q-1 -6 -1 -15q0 -51 30 -51q17 0 23.5 13.5
t6.5 47.5q0 40 -11.5 52t-50.5 12zM167 -33l222 733h51l-227 -733h-46zM478 96h-110v57l109 247h65v-245h39v-59h-39v-96h-64v96zM480 153v143l-58 -143h58z" />
    <glyph glyph-name="questiondown" unicode="&#xbf;" horiz-adv-x="346" 
d="M142 300h80q-1 -104 -13.5 -154.5t-56.5 -128.5q-22 -38 -22 -65q0 -22 10 -34.5t27 -12.5q20 0 35 16t29 55l81 -32q-20 -63 -54 -92t-91 -29q-59 0 -93 33t-34 91q0 34 10.5 61.5t43.5 84.5q28 47 38 84.5t10 92.5v30zM132 394v103h97v-103h-97z" />
    <glyph glyph-name="Agrave" unicode="&#xc0;" horiz-adv-x="405" 
d="M256 147h-107l-23 -147h-99l109 667h130l116 -667h-103zM241 240l-40 266l-38 -266h78zM244 720h-70l-73 80h97z" />
    <glyph glyph-name="Aacute" unicode="&#xc1;" horiz-adv-x="405" 
d="M256 147h-107l-23 -147h-99l109 667h130l116 -667h-103zM241 240l-40 266l-38 -266h78zM163 720l46 80h97l-73 -80h-70z" />
    <glyph glyph-name="Acircumflex" unicode="&#xc2;" horiz-adv-x="405" 
d="M256 147h-107l-23 -147h-99l109 667h130l116 -667h-103zM241 240l-40 266l-38 -266h78zM153 800h100l58 -80h-80l-28 31l-29 -31h-80z" />
    <glyph glyph-name="Atilde" unicode="&#xc3;" horiz-adv-x="405" 
d="M256 147h-107l-23 -147h-99l109 667h130l116 -667h-103zM241 240l-40 266l-38 -266h78zM106 718v69q27 15 55 15q20 0 43 -8q32 -12 48 -12q18 0 47 17v-69q-29 -17 -47 -17q-16 0 -48 12q-23 8 -43 8q-28 0 -55 -15z" />
    <glyph glyph-name="Adieresis" unicode="&#xc4;" horiz-adv-x="405" 
d="M256 147h-107l-23 -147h-99l109 667h130l116 -667h-103zM241 240l-40 266l-38 -266h78zM175 809v-89h-87v89h87zM314 809v-89h-87v89h87z" />
    <glyph glyph-name="Aring" unicode="&#xc5;" horiz-adv-x="405" 
d="M256 147h-107l-23 -147h-99l109 667h130l116 -667h-103zM241 240l-40 266l-38 -266h78zM204 846q29 0 50.5 -20.5t21.5 -48.5q0 -29 -21.5 -49.5t-51.5 -20.5t-51.5 20.5t-21.5 49.5t21.5 49t52.5 20zM203 811q-15 0 -25.5 -10t-10.5 -24t10.5 -24.5t25.5 -10.5t25.5 10
t10.5 25q0 14 -10.5 24t-25.5 10z" />
    <glyph glyph-name="AE" unicode="&#xc6;" horiz-adv-x="576" 
d="M272 147h-107l-44 -147h-104l207 667h321v-93h-173v-182h124v-93h-124v-206h173v-93h-273v147zM272 240v266l-79 -266h79z" />
    <glyph glyph-name="Ccedilla" unicode="&#xc7;" horiz-adv-x="388" 
d="M355 446h-101q0 53 -2 85q-3 24 -17.5 38.5t-36.5 14.5q-40 0 -51 -44q-5 -22 -5 -101v-212q0 -86 7 -106q13 -38 49 -38q22 0 36.5 15.5t16.5 40.5q3 27 3 97h101v-38q0 -52 -4.5 -78t-18.5 -52q-40 -78 -133 -78q-75 0 -117 53q-25 30 -32.5 64.5t-7.5 112.5v226
q0 79 7.5 113.5t32.5 64.5q42 53 117 53q93 0 133 -73q23 -42 23 -122v-36zM238 -46v-68l-22 -56h-47l17 56h-27v68h79z" />
    <glyph glyph-name="Egrave" unicode="&#xc8;" horiz-adv-x="348" 
d="M317 667v-93h-172v-182h124v-93h-124v-206h172v-93h-272v667h272zM232 720h-70l-72 80h97z" />
    <glyph glyph-name="Eacute" unicode="&#xc9;" horiz-adv-x="348" 
d="M317 667v-93h-172v-182h124v-93h-124v-206h172v-93h-272v667h272zM133 720l46 80h96l-72 -80h-70z" />
    <glyph glyph-name="Ecircumflex" unicode="&#xca;" horiz-adv-x="348" 
d="M317 667v-93h-172v-182h124v-93h-124v-206h172v-93h-272v667h272zM131 800h100l59 -80h-81l-28 31l-28 -31h-81z" />
    <glyph glyph-name="Edieresis" unicode="&#xcb;" horiz-adv-x="348" 
d="M317 667v-93h-172v-182h124v-93h-124v-206h172v-93h-272v667h272zM148 809v-89h-87v89h87zM288 809v-89h-87v89h87z" />
    <glyph glyph-name="Igrave" unicode="&#xcc;" horiz-adv-x="189" 
d="M144 667v-667h-100v667h100zM141 720h-70l-72 80h97z" />
    <glyph glyph-name="Iacute" unicode="&#xcd;" horiz-adv-x="189" 
d="M145 667v-667h-100v667h100zM62 720l45 80h97l-72 -80h-70z" />
    <glyph glyph-name="Icircumflex" unicode="&#xce;" horiz-adv-x="189" 
d="M145 667v-667h-100v667h100zM44 800h101l58 -80h-80l-28 31l-29 -31h-80z" />
    <glyph glyph-name="Idieresis" unicode="&#xcf;" horiz-adv-x="189" 
d="M145 667v-667h-100v667h100zM75 809v-89h-87v89h87zM201 809v-89h-87v89h87z" />
    <glyph glyph-name="Eth" unicode="&#xd0;" horiz-adv-x="397" 
d="M44 0v299h-33v80h33v288h142q86 0 127.5 -46t41.5 -142v-291q0 -96 -41.5 -142t-127.5 -46h-142zM144 93h31q43 0 63 26q17 24 17 88v253q0 64 -17 88q-20 26 -63 26h-31v-195h57v-80h-57v-206z" />
    <glyph glyph-name="Ntilde" unicode="&#xd1;" horiz-adv-x="420" 
d="M376 0h-93l-145 412v-412h-93v667h101l137 -396v396h93v-667zM114 718v69q27 15 55 15q20 0 43 -8q32 -12 48 -12q18 0 47 17v-69q-29 -17 -47 -17q-16 0 -48 12q-23 8 -43 8q-28 0 -55 -15z" />
    <glyph glyph-name="Ograve" unicode="&#xd2;" horiz-adv-x="397" 
d="M355 450v-233q0 -75 -8 -110t-32 -64q-43 -53 -116 -53q-74 0 -117 53q-24 29 -32 64.5t-8 109.5v233q0 74 8 109.5t32 64.5q43 53 117 53t116 -53q24 -29 32 -64.5t8 -109.5zM142 439v-211q0 -87 7 -107q13 -38 50 -38q40 0 51 44q5 22 5 101v211q0 87 -7 107
q-13 38 -49 38q-41 0 -52 -44q-5 -22 -5 -101zM252 720h-70l-72 80h97z" />
    <glyph glyph-name="Oacute" unicode="&#xd3;" horiz-adv-x="397" 
d="M355 450v-233q0 -75 -8 -110t-32 -64q-43 -53 -116 -53q-74 0 -117 53q-24 29 -32 64.5t-8 109.5v233q0 74 8 109.5t32 64.5q43 53 117 53t116 -53q24 -29 32 -64.5t8 -109.5zM142 439v-211q0 -87 7 -107q13 -38 50 -38q40 0 51 44q5 22 5 101v211q0 87 -7 107
q-13 38 -49 38q-41 0 -52 -44q-5 -22 -5 -101zM163 720l46 80h97l-72 -80h-71z" />
    <glyph glyph-name="Ocircumflex" unicode="&#xd4;" horiz-adv-x="397" 
d="M355 450v-233q0 -75 -8 -110t-32 -64q-43 -53 -116 -53q-74 0 -117 53q-24 29 -32 64.5t-8 109.5v233q0 74 8 109.5t32 64.5q43 53 117 53t116 -53q24 -29 32 -64.5t8 -109.5zM142 439v-211q0 -87 7 -107q13 -38 50 -38q40 0 51 44q5 22 5 101v211q0 87 -7 107
q-13 38 -49 38q-41 0 -52 -44q-5 -22 -5 -101zM148 800h101l58 -80h-80l-28 31l-29 -31h-80z" />
    <glyph glyph-name="Otilde" unicode="&#xd5;" horiz-adv-x="397" 
d="M355 450v-233q0 -75 -8 -110t-32 -64q-43 -53 -116 -53q-74 0 -117 53q-24 29 -32 64.5t-8 109.5v233q0 74 8 109.5t32 64.5q43 53 117 53t116 -53q24 -29 32 -64.5t8 -109.5zM142 439v-211q0 -87 7 -107q13 -38 50 -38q40 0 51 44q5 22 5 101v211q0 87 -7 107
q-13 38 -49 38q-41 0 -52 -44q-5 -22 -5 -101zM104 718v69q27 15 55 15q20 0 43 -8q32 -12 48 -12q18 0 47 17v-69q-29 -17 -47 -17q-16 0 -48 12q-23 8 -43 8q-28 0 -55 -15z" />
    <glyph glyph-name="Odieresis" unicode="&#xd6;" horiz-adv-x="397" 
d="M355 450v-233q0 -75 -8 -110t-32 -64q-43 -53 -116 -53q-74 0 -117 53q-24 29 -32 64.5t-8 109.5v233q0 74 8 109.5t32 64.5q43 53 117 53t116 -53q24 -29 32 -64.5t8 -109.5zM142 439v-211q0 -87 7 -107q13 -38 50 -38q40 0 51 44q5 22 5 101v211q0 87 -7 107
q-13 38 -49 38q-41 0 -52 -44q-5 -22 -5 -101zM172 809v-89h-87v89h87zM312 809v-89h-87v89h87z" />
    <glyph glyph-name="multiply" unicode="&#xd7;" horiz-adv-x="380" 
d="M267 472l54 -55l-75 -76l74 -74l-57 -57l-74 74l-76 -76l-55 55l76 76l-75 74l58 57l74 -74z" />
    <glyph glyph-name="Oslash" unicode="&#xd8;" horiz-adv-x="397" 
d="M300 678h53l-27 -68q18 -28 24 -60t6 -100v-233q0 -74 -8 -109.5t-32 -64.5q-42 -53 -116 -53q-56 0 -100 34l-14 -36h-53l31 82q-22 43 -22 147v233q0 74 8 109.5t32 64.5q41 52 118 52q49 0 89 -26zM142 272l107 275q-15 36 -50 36q-41 0 -52 -44q-4 -14 -5 -100v-167z
M256 427l-111 -287q6 -56 54 -56q41 0 52 44q5 20 5 100v199z" />
    <glyph glyph-name="Ugrave" unicode="&#xd9;" horiz-adv-x="403" 
d="M258 667h100v-450q0 -75 -8 -110t-32 -64q-43 -53 -116 -53q-74 0 -117 53q-24 29 -32 64.5t-8 109.5v450h100v-439q0 -87 7 -107q13 -38 50 -38q40 0 51 44q5 22 5 101v439zM253 720h-70l-72 80h96z" />
    <glyph glyph-name="Uacute" unicode="&#xda;" horiz-adv-x="403" 
d="M258 667h100v-450q0 -75 -8 -110t-32 -64q-43 -53 -116 -53q-74 0 -117 53q-24 29 -32 64.5t-8 109.5v450h100v-439q0 -87 7 -107q13 -38 50 -38q40 0 51 44q5 22 5 101v439zM162 720l46 80h97l-73 -80h-70z" />
    <glyph glyph-name="Ucircumflex" unicode="&#xdb;" horiz-adv-x="403" 
d="M258 667h100v-450q0 -75 -8 -110t-32 -64q-43 -53 -116 -53q-74 0 -117 53q-24 29 -32 64.5t-8 109.5v450h100v-439q0 -87 7 -107q13 -38 50 -38q40 0 51 44q5 22 5 101v439zM151 800h101l58 -80h-80l-28 31l-29 -31h-80z" />
    <glyph glyph-name="Udieresis" unicode="&#xdc;" horiz-adv-x="403" 
d="M258 667h100v-450q0 -75 -8 -110t-32 -64q-43 -53 -116 -53q-74 0 -117 53q-24 29 -32 64.5t-8 109.5v450h100v-439q0 -87 7 -107q13 -38 50 -38q40 0 51 44q5 22 5 101v439zM175 809v-89h-87v89h87zM315 809v-89h-87v89h87z" />
    <glyph glyph-name="Yacute" unicode="&#xdd;" horiz-adv-x="372" 
d="M238 270v-270h-100v270l-125 397h104l71 -262l69 262h101zM148 720l46 80h97l-73 -80h-70z" />
    <glyph glyph-name="Thorn" unicode="&#xde;" horiz-adv-x="391" 
d="M145 162v-162h-100v667h100v-114h40q96 0 134.5 -43.5t38.5 -151.5q0 -109 -38.5 -152.5t-134.5 -43.5h-40zM145 255h32q49 0 65 20.5t16 82.5q0 61 -16 81.5t-65 20.5h-32v-205z" />
    <glyph glyph-name="germandbls" unicode="&#xdf;" horiz-adv-x="342" 
d="M129 0h-90v531q0 66 34.5 104.5t94.5 38.5q56 0 88.5 -33t32.5 -89q0 -68 -52 -90q39 -19 54 -66.5t15 -148.5q0 -115 -23 -175q-13 -34 -36 -53t-52 -19h-32v82h11q25 0 33.5 36.5t8.5 140.5q0 86 -11 118.5t-42 37.5v82q23 2 33 12.5t10 35.5q0 47 -37 47
q-22 0 -31 -15t-9 -51v-526z" />
    <glyph glyph-name="agrave" unicode="&#xe0;" horiz-adv-x="346" 
d="M312 0h-90q-3 16 -7 56q-54 -63 -104 -63q-37 0 -59 32t-22 86q0 65 36.5 107t146.5 104v32q0 40 -7.5 54t-29.5 14q-21 0 -31 -15.5t-11 -52.5h-92q5 72 42 111t100 39q65 0 94 -43q15 -20 20 -43.5t5 -73.5v-164q0 -124 9 -180zM213 121v132q-49 -31 -69.5 -59.5
t-20.5 -66.5q0 -52 31 -52q32 0 59 46zM239 580h-70l-72 80h97z" />
    <glyph glyph-name="aacute" unicode="&#xe1;" horiz-adv-x="346" 
d="M312 0h-90q-3 16 -7 56q-54 -63 -104 -63q-37 0 -59 32t-22 86q0 65 36.5 107t146.5 104v32q0 40 -7.5 54t-29.5 14q-21 0 -31 -15.5t-11 -52.5h-92q5 72 42 111t100 39q65 0 94 -43q15 -20 20 -43.5t5 -73.5v-164q0 -124 9 -180zM213 121v132q-49 -31 -69.5 -59.5
t-20.5 -66.5q0 -52 31 -52q32 0 59 46zM148 580l46 80h97l-73 -80h-70z" />
    <glyph glyph-name="acircumflex" unicode="&#xe2;" horiz-adv-x="346" 
d="M312 0h-90q-3 16 -7 56q-54 -63 -104 -63q-37 0 -59 32t-22 86q0 65 36.5 107t146.5 104v32q0 40 -7.5 54t-29.5 14q-21 0 -31 -15.5t-11 -52.5h-92q5 72 42 111t100 39q65 0 94 -43q15 -20 20 -43.5t5 -73.5v-164q0 -124 9 -180zM213 121v132q-49 -31 -69.5 -59.5
t-20.5 -66.5q0 -52 31 -52q32 0 59 46zM133 660h101l58 -80h-80l-29 31l-28 -31h-80z" />
    <glyph glyph-name="atilde" unicode="&#xe3;" horiz-adv-x="346" 
d="M312 0h-90q-3 16 -7 56q-54 -63 -104 -63q-37 0 -59 32t-22 86q0 65 36.5 107t146.5 104v32q0 40 -7.5 54t-29.5 14q-21 0 -31 -15.5t-11 -52.5h-92q5 72 42 111t100 39q65 0 94 -43q15 -20 20 -43.5t5 -73.5v-164q0 -124 9 -180zM213 121v132q-49 -31 -69.5 -59.5
t-20.5 -66.5q0 -52 31 -52q32 0 59 46zM87 580v70q27 15 55 15q20 0 43 -8q32 -12 48 -12q19 0 47 17v-69q-29 -17 -47 -17q-16 0 -48 12q-23 8 -43 8q-28 0 -55 -16z" />
    <glyph glyph-name="adieresis" unicode="&#xe4;" horiz-adv-x="346" 
d="M312 0h-90q-3 16 -7 56q-54 -63 -104 -63q-37 0 -59 32t-22 86q0 65 36.5 107t146.5 104v32q0 40 -7.5 54t-29.5 14q-21 0 -31 -15.5t-11 -52.5h-92q5 72 42 111t100 39q65 0 94 -43q15 -20 20 -43.5t5 -73.5v-164q0 -124 9 -180zM213 121v132q-49 -31 -69.5 -59.5
t-20.5 -66.5q0 -52 31 -52q32 0 59 46zM152 667v-89h-87v89h87zM291 667v-89h-87v89h87z" />
    <glyph glyph-name="aring" unicode="&#xe5;" horiz-adv-x="346" 
d="M312 0h-90q-3 16 -7 56q-54 -63 -104 -63q-37 0 -59 32t-22 86q0 65 36.5 107t146.5 104v32q0 40 -7.5 54t-29.5 14q-21 0 -31 -15.5t-11 -52.5h-92q5 72 42 111t100 39q65 0 94 -43q15 -20 20 -43.5t5 -73.5v-164q0 -124 9 -180zM213 121v132q-49 -31 -69.5 -59.5
t-20.5 -66.5q0 -52 31 -52q32 0 59 46zM182 698q30 0 51.5 -20.5t21.5 -48.5q0 -29 -21.5 -49.5t-51.5 -20.5q-31 0 -52.5 20.5t-21.5 49.5t21.5 49t52.5 20zM182 663q-15 0 -26 -10t-11 -24t11 -24.5t26 -10.5t25.5 10t10.5 25q0 14 -10.5 24t-25.5 10z" />
    <glyph glyph-name="ae" unicode="&#xe6;" horiz-adv-x="518" 
d="M483 232h-180v-88q0 -69 45 -69q29 0 38 23q5 12 5 56q0 9 1 18h91v-23q0 -70 -23 -102q-38 -54 -110 -54q-76 0 -117 64q-58 -64 -112 -64q-42 0 -66.5 32t-24.5 87q0 64 36.5 105.5t146.5 104.5v32q0 40 -7.5 54t-29.5 14q-21 0 -31 -15.5t-11 -52.5h-92q5 72 42 111
t100 39q47 0 81 -28q38 28 84 28q68 0 106 -51q28 -39 28 -118v-103zM213 121v132q-50 -32 -70 -60t-20 -65q0 -53 31 -53q32 0 59 46zM393 307v46q0 69 -45 69t-45 -69v-46h90z" />
    <glyph glyph-name="ccedilla" unicode="&#xe7;" horiz-adv-x="326" 
d="M300 325h-90q0 49 -1 58q-6 39 -41 39q-43 0 -43 -69v-209q0 -69 43 -69q38 0 41 49q1 8 1 57h90v-23q0 -73 -22 -109q-37 -56 -107 -56q-31 0 -60.5 14t-47.5 37q-28 39 -28 117v174q0 79 28 118q39 51 109 51q43 0 75.5 -23t45.5 -62q7 -23 7 -94zM207 -46v-68l-22 -56
h-47l17 56h-27v68h79z" />
    <glyph glyph-name="egrave" unicode="&#xe8;" horiz-adv-x="340" 
d="M304 232h-179v-88q0 -69 45 -69q27 0 37 23q5 12 5 56q0 9 1 18h91v-23q0 -70 -23 -102q-38 -54 -109 -54q-70 0 -108 51q-29 39 -29 118v173q0 79 28 118q38 51 107 51q68 0 106 -51q28 -39 28 -118v-103zM214 307v46q0 69 -44 69q-45 0 -45 -69v-46h89zM226 580h-70
l-73 80h97z" />
    <glyph glyph-name="eacute" unicode="&#xe9;" horiz-adv-x="340" 
d="M304 232h-179v-88q0 -69 45 -69q27 0 37 23q5 12 5 56q0 9 1 18h91v-23q0 -70 -23 -102q-38 -54 -109 -54q-70 0 -108 51q-29 39 -29 118v173q0 79 28 118q38 51 107 51q68 0 106 -51q28 -39 28 -118v-103zM214 307v46q0 69 -44 69q-45 0 -45 -69v-46h89zM135 580l45 80
h97l-72 -80h-70z" />
    <glyph glyph-name="ecircumflex" unicode="&#xea;" horiz-adv-x="340" 
d="M304 232h-179v-88q0 -69 45 -69q27 0 37 23q5 12 5 56q0 9 1 18h91v-23q0 -70 -23 -102q-38 -54 -109 -54q-70 0 -108 51q-29 39 -29 118v173q0 79 28 118q38 51 107 51q68 0 106 -51q28 -39 28 -118v-103zM214 307v46q0 69 -44 69q-45 0 -45 -69v-46h89zM120 660h100
l58 -80h-80l-28 31l-29 -31h-80z" />
    <glyph glyph-name="edieresis" unicode="&#xeb;" horiz-adv-x="340" 
d="M304 232h-179v-88q0 -69 45 -69q27 0 37 23q5 12 5 56q0 9 1 18h91v-23q0 -70 -23 -102q-38 -54 -109 -54q-70 0 -108 51q-29 39 -29 118v173q0 79 28 118q38 51 107 51q68 0 106 -51q28 -39 28 -118v-103zM214 307v46q0 69 -44 69q-45 0 -45 -69v-46h89zM143 667v-89
h-87v89h87zM283 667v-89h-87v89h87z" />
    <glyph glyph-name="igrave" unicode="&#xec;" horiz-adv-x="167" 
d="M129 497v-497h-90v497h90zM131 580h-70l-72 80h97z" />
    <glyph glyph-name="iacute" unicode="&#xed;" horiz-adv-x="167" 
d="M129 497v-497h-90v497h90zM51 580l45 80h97l-72 -80h-70z" />
    <glyph glyph-name="icircumflex" unicode="&#xee;" horiz-adv-x="167" 
d="M129 497v-497h-90v497h90zM33 660h101l58 -80h-80l-28 31l-29 -31h-80z" />
    <glyph glyph-name="idieresis" unicode="&#xef;" horiz-adv-x="167" 
d="M129 497v-497h-90v497h90zM64 667v-89h-87v89h87zM190 667v-89h-87v89h87z" />
    <glyph glyph-name="eth" unicode="&#xf0;" horiz-adv-x="336" 
d="M203 654l48 40l26 -30l-47 -39q71 -89 71 -244v-219q0 -79 -28 -118q-38 -51 -105 -51t-105 51q-28 39 -28 118v186q0 86 20 117q26 39 78 39q41 0 76 -42q-8 77 -34 116l-48 -40l-26 31l51 42q-14 14 -26 25l46 45q12 -10 31 -27zM125 353v-209q0 -69 43 -69t43 69v209
q0 69 -43 69t-43 -69z" />
    <glyph glyph-name="ntilde" unicode="&#xf1;" horiz-adv-x="337" 
d="M129 497v-54q32 35 54 48t49 13q33 0 50 -23q16 -23 16 -94v-387h-90v366q0 34 -3 41q-3 15 -19 15q-27 0 -57 -42v-380h-90v497h90zM76 580v70q27 15 55 15q20 0 43 -8q32 -12 48 -12q19 0 47 17v-69q-29 -17 -47 -17q-16 0 -48 12q-23 8 -43 8q-28 0 -55 -16z" />
    <glyph glyph-name="ograve" unicode="&#xf2;" horiz-adv-x="336" 
d="M301 335v-173q0 -79 -28 -118q-38 -51 -105 -51t-105 51q-28 39 -28 118v173q0 79 28 118q38 51 105 51t105 -51q28 -39 28 -118zM125 353v-209q0 -69 43 -69t43 69v209q0 69 -43 69t-43 -69zM226 580h-70l-73 80h97z" />
    <glyph glyph-name="oacute" unicode="&#xf3;" horiz-adv-x="336" 
d="M301 335v-173q0 -79 -28 -118q-38 -51 -105 -51t-105 51q-28 39 -28 118v173q0 79 28 118q38 51 105 51t105 -51q28 -39 28 -118zM125 353v-209q0 -69 43 -69t43 69v209q0 69 -43 69t-43 -69zM137 580l45 80h97l-72 -80h-70z" />
    <glyph glyph-name="ocircumflex" unicode="&#xf4;" horiz-adv-x="336" 
d="M301 335v-173q0 -79 -28 -118q-38 -51 -105 -51t-105 51q-28 39 -28 118v173q0 79 28 118q38 51 105 51t105 -51q28 -39 28 -118zM125 353v-209q0 -69 43 -69t43 69v209q0 69 -43 69t-43 -69zM124 660h100l59 -80h-81l-28 31l-28 -31h-80z" />
    <glyph glyph-name="otilde" unicode="&#xf5;" horiz-adv-x="336" 
d="M301 335v-173q0 -79 -28 -118q-38 -51 -105 -51t-105 51q-28 39 -28 118v173q0 79 28 118q38 51 105 51t105 -51q28 -39 28 -118zM125 353v-209q0 -69 43 -69t43 69v209q0 69 -43 69t-43 -69zM75 580v70q27 15 55 15q20 0 43 -8q32 -12 48 -12q19 0 47 17v-69
q-29 -17 -47 -17q-16 0 -48 12q-23 8 -43 8q-28 0 -55 -16z" />
    <glyph glyph-name="odieresis" unicode="&#xf6;" horiz-adv-x="336" 
d="M301 335v-173q0 -79 -28 -118q-38 -51 -105 -51t-105 51q-28 39 -28 118v173q0 79 28 118q38 51 105 51t105 -51q28 -39 28 -118zM125 353v-209q0 -69 43 -69t43 69v209q0 69 -43 69t-43 -69zM142 667v-89h-87v89h87zM281 667v-89h-87v89h87z" />
    <glyph glyph-name="divide" unicode="&#xf7;" horiz-adv-x="380" 
d="M338 379v-78h-295v78h295zM229 249v-84h-78v84h78zM229 516v-84h-78v84h78z" />
    <glyph glyph-name="oslash" unicode="&#xf8;" horiz-adv-x="336" 
d="M220 527h40l-13 -49q30 -22 42 -54t12 -89v-173q0 -80 -28 -118q-38 -51 -105 -51q-19 0 -41 7l-11 -42h-40l15 59q-32 24 -44 55.5t-12 89.5v173q0 79 28 118q37 51 106 51q20 0 43 -8zM125 152l66 263q-11 7 -22 7q-44 0 -44 -69v-201zM211 334l-64 -253q10 -6 21 -6
q43 0 43 69v190z" />
    <glyph glyph-name="ugrave" unicode="&#xf9;" horiz-adv-x="337" 
d="M298 497v-497h-90v54q-32 -35 -54 -48t-49 -13q-33 0 -50 23q-16 23 -16 94v387h90v-366q0 -34 3 -41q3 -15 19 -15q27 0 57 42v380h90zM227 580h-70l-73 80h97z" />
    <glyph glyph-name="uacute" unicode="&#xfa;" horiz-adv-x="337" 
d="M298 497v-497h-90v54q-32 -35 -54 -48t-49 -13q-33 0 -50 23q-16 23 -16 94v387h90v-366q0 -34 3 -41q3 -15 19 -15q27 0 57 42v380h90zM136 580l45 80h97l-72 -80h-70z" />
    <glyph glyph-name="ucircumflex" unicode="&#xfb;" horiz-adv-x="337" 
d="M298 497v-497h-90v54q-32 -35 -54 -48t-49 -13q-33 0 -50 23q-16 23 -16 94v387h90v-366q0 -34 3 -41q3 -15 19 -15q27 0 57 42v380h90zM118 660h101l58 -80h-80l-28 31l-29 -31h-80z" />
    <glyph glyph-name="udieresis" unicode="&#xfc;" horiz-adv-x="337" 
d="M298 497v-497h-90v54q-32 -35 -54 -48t-49 -13q-33 0 -50 23q-16 23 -16 94v387h90v-366q0 -34 3 -41q3 -15 19 -15q27 0 57 42v380h90zM142 667v-89h-87v89h87zM282 667v-89h-87v89h87z" />
    <glyph glyph-name="yacute" unicode="&#xfd;" horiz-adv-x="320" 
d="M214 497h89l-101 -510q-14 -71 -21 -91.5t-23 -37.5q-31 -35 -103 -35q-13 0 -32 3v88q7 -1 18 -1q42 0 61 32q7 12 16 49l-101 503h90l54 -320zM125 580l46 80h97l-73 -80h-70z" />
    <glyph glyph-name="thorn" unicode="&#xfe;" horiz-adv-x="338" 
d="M39 667h90v-218q45 55 93 55q45 0 65 -40q16 -32 16 -116v-199q0 -84 -16 -116q-20 -40 -65 -40q-48 0 -93 55v-218h-90v837zM129 400v-303q23 -22 45 -22q24 0 32 18q7 13 7 55v201q0 41 -7 55q-8 18 -32 18q-22 0 -45 -22z" />
    <glyph glyph-name="ydieresis" unicode="&#xff;" horiz-adv-x="320" 
d="M214 497h89l-101 -510q-14 -71 -21 -91.5t-23 -37.5q-31 -35 -103 -35q-13 0 -32 3v88q7 -1 18 -1q42 0 61 32q7 12 16 49l-101 503h90l54 -320zM134 667v-89h-87v89h87zM274 667v-89h-87v89h87z" />
    <glyph glyph-name="Amacron" unicode="&#x100;" horiz-adv-x="405" 
d="M256 147h-107l-23 -147h-99l109 667h130l116 -667h-103zM241 240l-40 266l-38 -266h78zM106 716v67h193v-67h-193z" />
    <glyph glyph-name="amacron" unicode="&#x101;" horiz-adv-x="346" 
d="M312 0h-90q-3 16 -7 56q-54 -63 -104 -63q-37 0 -59 32t-22 86q0 65 36.5 107t146.5 104v32q0 40 -7.5 54t-29.5 14q-21 0 -31 -15.5t-11 -52.5h-92q5 72 42 111t100 39q65 0 94 -43q15 -20 20 -43.5t5 -73.5v-164q0 -124 9 -180zM213 121v132q-49 -31 -69.5 -59.5
t-20.5 -66.5q0 -52 31 -52q32 0 59 46zM85 586v67h193v-67h-193z" />
    <glyph glyph-name="Abreve" unicode="&#x102;" horiz-adv-x="405" 
d="M256 147h-107l-23 -147h-99l109 667h130l116 -667h-103zM241 240l-40 266l-38 -266h78zM254 797l57 -34q-36 -50 -108 -50t-108 50l56 34q28 -18 52 -18q25 0 51 18z" />
    <glyph glyph-name="abreve" unicode="&#x103;" horiz-adv-x="346" 
d="M312 0h-90q-3 16 -7 56q-54 -63 -104 -63q-37 0 -59 32t-22 86q0 65 36.5 107t146.5 104v32q0 40 -7.5 54t-29.5 14q-21 0 -31 -15.5t-11 -52.5h-92q5 72 42 111t100 39q65 0 94 -43q15 -20 20 -43.5t5 -73.5v-164q0 -124 9 -180zM213 121v132q-49 -31 -69.5 -59.5
t-20.5 -66.5q0 -52 31 -52q32 0 59 46zM237 662l57 -34q-35 -49 -108 -49q-72 0 -109 49l57 34q27 -17 52 -17q24 0 51 17z" />
    <glyph glyph-name="Aogonek" unicode="&#x104;" horiz-adv-x="405" 
d="M382 0h-21q-24 -42 -24 -66q0 -33 34 -33q8 0 20 4v-49q-20 -5 -37 -5q-37 0 -60 18.5t-23 48.5q0 32 29 82h-21l-23 147h-107l-23 -147h-99l109 667h130zM241 240l-40 266l-38 -266h78z" />
    <glyph glyph-name="aogonek" unicode="&#x105;" horiz-adv-x="346" 
d="M312 0h-18q-24 -40 -24 -66q0 -33 34 -33q8 0 20 4v-49q-20 -5 -37 -5q-37 0 -60 18.5t-23 48.5q0 32 29 82h-11q-3 16 -7 56q-54 -63 -104 -63q-37 0 -59 32t-22 86q0 65 36.5 107t146.5 104v32q0 40 -7.5 54t-29.5 14q-21 0 -31 -15.5t-11 -52.5h-92q5 72 42 111
t100 39q65 0 94 -43q15 -20 20 -43.5t5 -73.5v-164q0 -125 9 -180zM213 121v132q-49 -31 -69.5 -59.5t-20.5 -66.5q0 -52 31 -52q32 0 59 46z" />
    <glyph glyph-name="Cacute" unicode="&#x106;" horiz-adv-x="388" 
d="M355 446h-101q0 53 -2 85q-3 24 -17.5 38.5t-36.5 14.5q-40 0 -51 -44q-5 -22 -5 -101v-212q0 -86 7 -106q13 -38 49 -38q22 0 36.5 15.5t16.5 40.5q3 27 3 97h101v-38q0 -52 -4.5 -78t-18.5 -52q-40 -78 -133 -78q-75 0 -117 53q-25 30 -32.5 64.5t-7.5 112.5v226
q0 79 7.5 113.5t32.5 64.5q42 53 117 53q93 0 133 -73q23 -42 23 -122v-36zM159 720l45 80h97l-72 -80h-70z" />
    <glyph glyph-name="cacute" unicode="&#x107;" horiz-adv-x="326" 
d="M300 325h-90q0 49 -1 58q-6 39 -41 39q-43 0 -43 -69v-209q0 -69 43 -69q38 0 41 49q1 8 1 57h90v-23q0 -73 -22 -109q-37 -56 -107 -56q-31 0 -60.5 14t-47.5 37q-28 39 -28 117v174q0 79 28 118q39 51 109 51q43 0 75.5 -23t45.5 -62q7 -23 7 -94zM132 580l45 80h97
l-72 -80h-70z" />
    <glyph glyph-name="Ccircumflex" unicode="&#x108;" horiz-adv-x="388" 
d="M355 446h-101q0 53 -2 85q-3 24 -17.5 38.5t-36.5 14.5q-40 0 -51 -44q-5 -22 -5 -101v-212q0 -86 7 -106q13 -38 49 -38q22 0 36.5 15.5t16.5 40.5q3 27 3 97h101v-38q0 -52 -4.5 -78t-18.5 -52q-40 -78 -133 -78q-75 0 -117 53q-25 30 -32.5 64.5t-7.5 112.5v226
q0 79 7.5 113.5t32.5 64.5q42 53 117 53q93 0 133 -73q23 -42 23 -122v-36zM148 800h101l58 -80h-80l-29 31l-28 -31h-80z" />
    <glyph glyph-name="Cdotaccent" unicode="&#x10a;" horiz-adv-x="388" 
d="M355 446h-101q0 53 -2 85q-3 24 -17.5 38.5t-36.5 14.5q-40 0 -51 -44q-5 -22 -5 -101v-212q0 -86 7 -106q13 -38 49 -38q22 0 36.5 15.5t16.5 40.5q3 27 3 97h101v-38q0 -52 -4.5 -78t-18.5 -52q-40 -78 -133 -78q-75 0 -117 53q-25 30 -32.5 64.5t-7.5 112.5v226
q0 79 7.5 113.5t32.5 64.5q42 53 117 53q93 0 133 -73q23 -42 23 -122v-36zM244 809v-89h-87v89h87z" />
    <glyph glyph-name="cdotaccent" unicode="&#x10b;" horiz-adv-x="326" 
d="M300 325h-90q0 49 -1 58q-6 39 -41 39q-43 0 -43 -69v-209q0 -69 43 -69q38 0 41 49q1 8 1 57h90v-23q0 -73 -22 -109q-37 -56 -107 -56q-31 0 -60.5 14t-47.5 37q-28 39 -28 117v174q0 79 28 118q39 51 109 51q43 0 75.5 -23t45.5 -62q7 -23 7 -94zM213 667v-89h-87v89
h87z" />
    <glyph glyph-name="Ccaron" unicode="&#x10c;" horiz-adv-x="388" 
d="M355 446h-101q0 53 -2 85q-3 24 -17.5 38.5t-36.5 14.5q-40 0 -51 -44q-5 -22 -5 -101v-212q0 -86 7 -106q13 -38 49 -38q22 0 36.5 15.5t16.5 40.5q3 27 3 97h101v-38q0 -52 -4.5 -78t-18.5 -52q-40 -78 -133 -78q-75 0 -117 53q-25 30 -32.5 64.5t-7.5 112.5v226
q0 79 7.5 113.5t32.5 64.5q42 53 117 53q93 0 133 -73q23 -42 23 -122v-36zM251 720h-101l-58 80h80l29 -31l28 31h80z" />
    <glyph glyph-name="ccaron" unicode="&#x10d;" horiz-adv-x="326" 
d="M300 325h-90q0 49 -1 58q-6 39 -41 39q-43 0 -43 -69v-209q0 -69 43 -69q38 0 41 49q1 8 1 57h90v-23q0 -73 -22 -109q-37 -56 -107 -56q-31 0 -60.5 14t-47.5 37q-28 39 -28 117v174q0 79 28 118q39 51 109 51q43 0 75.5 -23t45.5 -62q7 -23 7 -94zM222 580h-101l-58 80
h80l28 -31l29 31h80z" />
    <glyph glyph-name="Dcaron" unicode="&#x10e;" horiz-adv-x="397" 
d="M45 0v667h142q86 0 127.5 -46t41.5 -142v-291q0 -96 -41.5 -142t-127.5 -46h-142zM145 93h31q43 0 63 26q17 24 17 88v253q0 64 -17 88q-20 26 -63 26h-31v-481zM232 720h-100l-58 80h80l28 -31l29 31h80z" />
    <glyph glyph-name="dcaron" unicode="&#x10f;" horiz-adv-x="422" 
d="M209 667h90v-667h-90v48q-45 -55 -93 -55q-45 0 -65 40q-16 32 -16 116v199q0 84 16 116q20 40 65 40q48 0 93 -55v218zM209 97v303q-23 22 -45 22q-24 0 -32 -18q-7 -13 -7 -55v-201q0 -41 7 -55q8 -18 32 -18q22 0 45 22zM331 667h91v-98l-39 -83h-50l31 83h-33v98z
" />
    <glyph glyph-name="Dcroat" unicode="&#x110;" horiz-adv-x="397" 
d="M44 0v299h-33v80h33v288h142q86 0 127.5 -46t41.5 -142v-291q0 -96 -41.5 -142t-127.5 -46h-142zM144 93h31q43 0 63 26q17 24 17 88v253q0 64 -17 88q-20 26 -63 26h-31v-195h57v-80h-57v-206z" />
    <glyph glyph-name="dcroat" unicode="&#x111;" horiz-adv-x="346" 
d="M209 667h90v-47h47v-68h-47v-552h-90v48q-45 -55 -93 -55q-45 0 -65 40q-16 32 -16 116v199q0 84 16 116q20 40 65 40q48 0 93 -55v103h-67v68h67v47zM209 97v303q-23 22 -45 22q-24 0 -32 -18q-7 -13 -7 -55v-201q0 -41 7 -55q8 -18 32 -18q22 0 45 22z" />
    <glyph glyph-name="Emacron" unicode="&#x112;" horiz-adv-x="348" 
d="M317 667v-93h-172v-182h124v-93h-124v-206h172v-93h-272v667h272zM85 716v67h193v-67h-193z" />
    <glyph glyph-name="emacron" unicode="&#x113;" horiz-adv-x="340" 
d="M304 232h-179v-88q0 -69 45 -69q27 0 37 23q5 12 5 56q0 9 1 18h91v-23q0 -70 -23 -102q-38 -54 -109 -54q-70 0 -108 51q-29 39 -29 118v173q0 79 28 118q38 51 107 51q68 0 106 -51q28 -39 28 -118v-103zM214 307v46q0 69 -44 69q-45 0 -45 -69v-46h89zM77 586v67h193
v-67h-193z" />
    <glyph glyph-name="Ebreve" unicode="&#x114;" horiz-adv-x="348" 
d="M317 667v-93h-172v-182h124v-93h-124v-206h172v-93h-272v667h272zM237 797l56 -34q-36 -50 -108 -50t-108 50l57 34q26 -18 51 -18q24 0 52 18z" />
    <glyph glyph-name="ebreve" unicode="&#x115;" horiz-adv-x="340" 
d="M304 232h-179v-88q0 -69 45 -69q27 0 37 23q5 12 5 56q0 9 1 18h91v-23q0 -70 -23 -102q-38 -54 -109 -54q-70 0 -108 51q-29 39 -29 118v173q0 79 28 118q38 51 107 51q68 0 106 -51q28 -39 28 -118v-103zM214 307v46q0 69 -44 69q-45 0 -45 -69v-46h89zM221 662l57 -34
q-35 -49 -108 -49t-108 49l56 34q27 -17 52 -17q26 0 51 17z" />
    <glyph glyph-name="Edotaccent" unicode="&#x116;" horiz-adv-x="348" 
d="M317 667v-93h-172v-182h124v-93h-124v-206h172v-93h-272v667h272zM227 809v-89h-87v89h87z" />
    <glyph glyph-name="edotaccent" unicode="&#x117;" horiz-adv-x="340" 
d="M304 232h-179v-88q0 -69 45 -69q27 0 37 23q5 12 5 56q0 9 1 18h91v-23q0 -70 -23 -102q-38 -54 -109 -54q-70 0 -108 51q-29 39 -29 118v173q0 79 28 118q38 51 107 51q68 0 106 -51q28 -39 28 -118v-103zM214 307v46q0 69 -44 69q-45 0 -45 -69v-46h89zM218 667v-89
h-87v89h87z" />
    <glyph glyph-name="Eogonek" unicode="&#x118;" horiz-adv-x="348" 
d="M317 0h-30q-24 -42 -24 -66q0 -33 34 -33q8 0 20 4v-49q-20 -5 -37 -5q-37 0 -60 18.5t-23 48.5q0 34 29 82h-181v667h272v-93h-172v-182h124v-93h-124v-206h172v-93z" />
    <glyph glyph-name="eogonek" unicode="&#x119;" horiz-adv-x="340" 
d="M304 172v-23q1 -47 -6.5 -71t-28.5 -46q-43 -70 -43 -99q0 -32 34 -32q9 0 21 4v-49q-20 -5 -37 -5q-38 0 -61 18.5t-23 48.5q0 28 26 76q-5 -1 -13 -1q-71 0 -109 51q-29 37 -29 118v173q0 79 28 118q38 51 107 51q68 0 107 -51q27 -38 27 -118v-103h-179v-88
q0 -69 45 -69q27 0 37 23q5 12 5 56q0 9 1 18h91zM214 307v46q0 69 -44 69q-45 0 -45 -69v-46h89z" />
    <glyph glyph-name="Ecaron" unicode="&#x11a;" horiz-adv-x="348" 
d="M317 667v-93h-172v-182h124v-93h-124v-206h172v-93h-272v667h272zM233 720h-100l-59 80h81l28 -31l28 31h81z" />
    <glyph glyph-name="ecaron" unicode="&#x11b;" horiz-adv-x="340" 
d="M304 232h-179v-88q0 -69 45 -69q27 0 37 23q5 12 5 56q0 9 1 18h91v-23q0 -70 -23 -102q-38 -54 -109 -54q-70 0 -108 51q-29 39 -29 118v173q0 79 28 118q38 51 107 51q68 0 106 -51q28 -39 28 -118v-103zM214 307v46q0 69 -44 69q-45 0 -45 -69v-46h89zM220 580h-100
l-59 80h80l29 -31l28 31h80z" />
    <glyph glyph-name="Gcircumflex" unicode="&#x11c;" horiz-adv-x="399" 
d="M355 338v-338h-49l-19 53q-21 -35 -44.5 -49t-60.5 -14q-75 0 -110 57q-30 52 -30 166v233q0 79 7.5 113.5t32.5 64.5q42 53 117 53q56 0 96 -30.5t53 -82.5q7 -28 7 -115h-101q0 51 -2 81q-3 24 -17.5 38.5t-36.5 14.5q-40 0 -51 -44q-5 -20 -5 -100v-211q0 -83 7 -106
q11 -38 50 -38q41 0 51 43q5 23 5 101v27h-61v83h161zM149 800h101l58 -80h-80l-29 31l-28 -31h-80z" />
    <glyph glyph-name="gcircumflex" unicode="&#x11d;" horiz-adv-x="339" 
d="M333 501v-76q-34 0 -54 -20q2 -16 2 -52v-84q0 -64 -25 -99q-35 -44 -94 -44q-13 0 -25 1q-21 -17 -21 -34q0 -22 55 -25q99 -6 126 -26q41 -29 41 -88q0 -63 -45.5 -97t-130.5 -34q-71 0 -111 23t-40 65q0 26 17 44t64 41q-57 24 -57 64q0 39 57 81q-32 22 -44.5 50
t-12.5 78v92q0 64 25 99q33 44 101 44q65 0 103 -56q26 50 69 53zM117 363v-97q0 -63 41 -63t41 63v97q0 64 -41 64t-41 -64zM144 -13q-38 -18 -38 -46q0 -22 19 -35t50 -13q37 0 60 14t23 37q0 18 -11 26.5t-37 11.5q-3 0 -8.5 0.5t-21 1.5t-36.5 3zM119 660h100l59 -80
h-80l-29 31l-28 -31h-80z" />
    <glyph glyph-name="Gbreve" unicode="&#x11e;" horiz-adv-x="399" 
d="M355 338v-338h-49l-19 53q-21 -35 -44.5 -49t-60.5 -14q-75 0 -110 57q-30 52 -30 166v233q0 79 7.5 113.5t32.5 64.5q42 53 117 53q56 0 96 -30.5t53 -82.5q7 -28 7 -115h-101q0 51 -2 81q-3 24 -17.5 38.5t-36.5 14.5q-40 0 -51 -44q-5 -20 -5 -100v-211q0 -83 7 -106
q11 -38 50 -38q41 0 51 43q5 23 5 101v27h-61v83h161zM251 797l57 -34q-36 -50 -108 -50t-109 50l57 34q28 -18 51 -18q26 0 52 18z" />
    <glyph glyph-name="gbreve" unicode="&#x11f;" horiz-adv-x="339" 
d="M333 501v-76q-34 0 -54 -20q2 -16 2 -52v-84q0 -64 -25 -99q-35 -44 -94 -44q-13 0 -25 1q-21 -17 -21 -34q0 -22 55 -25q99 -6 126 -26q41 -29 41 -88q0 -63 -45.5 -97t-130.5 -34q-71 0 -111 23t-40 65q0 26 17 44t64 41q-57 24 -57 64q0 39 57 81q-32 22 -44.5 50
t-12.5 78v92q0 64 25 99q33 44 101 44q65 0 103 -56q26 50 69 53zM117 363v-97q0 -63 41 -63t41 63v97q0 64 -41 64t-41 -64zM144 -13q-38 -18 -38 -46q0 -22 19 -35t50 -13q37 0 60 14t23 37q0 18 -11 26.5t-37 11.5q-3 0 -8.5 0.5t-21 1.5t-36.5 3zM221 662l56 -34
q-35 -49 -108 -49q-71 0 -108 49l57 34q27 -17 51 -17q25 0 52 17z" />
    <glyph glyph-name="Gdotaccent" unicode="&#x120;" horiz-adv-x="399" 
d="M355 338v-338h-49l-19 53q-21 -35 -44.5 -49t-60.5 -14q-75 0 -110 57q-30 52 -30 166v233q0 79 7.5 113.5t32.5 64.5q42 53 117 53q56 0 96 -30.5t53 -82.5q7 -28 7 -115h-101q0 51 -2 81q-3 24 -17.5 38.5t-36.5 14.5q-40 0 -51 -44q-5 -20 -5 -100v-211q0 -83 7 -106
q11 -38 50 -38q41 0 51 43q5 23 5 101v27h-61v83h161zM243 809v-89h-87v89h87z" />
    <glyph glyph-name="gdotaccent" unicode="&#x121;" horiz-adv-x="339" 
d="M333 501v-76q-34 0 -54 -20q2 -16 2 -52v-84q0 -64 -25 -99q-35 -44 -94 -44q-13 0 -25 1q-21 -17 -21 -34q0 -22 55 -25q99 -6 126 -26q41 -29 41 -88q0 -63 -45.5 -97t-130.5 -34q-71 0 -111 23t-40 65q0 26 17 44t64 41q-57 24 -57 64q0 39 57 81q-32 22 -44.5 50
t-12.5 78v92q0 64 25 99q33 44 101 44q65 0 103 -56q26 50 69 53zM117 363v-97q0 -63 41 -63t41 63v97q0 64 -41 64t-41 -64zM144 -13q-38 -18 -38 -46q0 -22 19 -35t50 -13q37 0 60 14t23 37q0 18 -11 26.5t-37 11.5q-3 0 -8.5 0.5t-21 1.5t-36.5 3zM213 667v-89h-87v89h87
z" />
    <glyph glyph-name="Gcommaaccent" unicode="&#x122;" horiz-adv-x="399" 
d="M355 338v-338h-49l-19 53q-21 -35 -44.5 -49t-60.5 -14q-75 0 -110 57q-30 52 -30 166v233q0 79 7.5 113.5t32.5 64.5q42 53 117 53q56 0 96 -30.5t53 -82.5q7 -28 7 -115h-101q0 51 -2 81q-3 24 -17.5 38.5t-36.5 14.5q-40 0 -51 -44q-5 -20 -5 -100v-211q0 -83 7 -106
q11 -38 50 -38q41 0 51 43q5 23 5 101v27h-61v83h161zM238 -46v-68l-22 -56h-47l17 56h-27v68h79z" />
    <glyph glyph-name="gcommaaccent" unicode="&#x123;" horiz-adv-x="339" 
d="M333 501v-76q-34 0 -54 -20q2 -16 2 -52v-84q0 -64 -25 -99q-35 -44 -94 -44q-13 0 -25 1q-21 -17 -21 -34q0 -22 55 -25q99 -6 126 -26q41 -29 41 -88q0 -63 -45.5 -97t-130.5 -34q-71 0 -111 23t-40 65q0 26 17 44t64 41q-57 24 -57 64q0 39 57 81q-32 22 -44.5 50
t-12.5 78v92q0 64 25 99q33 44 101 44q65 0 103 -56q26 50 69 53zM117 363v-97q0 -63 41 -63t41 63v97q0 64 -41 64t-41 -64zM144 -13q-38 -18 -38 -46q0 -22 19 -35t50 -13q37 0 60 14t23 37q0 18 -11 26.5t-37 11.5q-3 0 -8.5 0.5t-21 1.5t-36.5 3zM213 539h-91v98l39 82
h50l-31 -82h33v-98z" />
    <glyph glyph-name="Hcircumflex" unicode="&#x124;" horiz-adv-x="400" 
d="M256 301h-111v-301h-100v667h100v-273h111v273h100v-667h-100v301zM150 800h101l58 -80h-80l-29 31l-28 -31h-80z" />
    <glyph glyph-name="Hbar" unicode="&#x126;" horiz-adv-x="400" 
d="M45 492h-40v67h40v108h100v-108h111v108h100v-108h42v-67h-42v-492h-100v301h-111v-301h-100v492zM145 492v-98h111v98h-111z" />
    <glyph glyph-name="hbar" unicode="&#x127;" horiz-adv-x="337" 
d="M129 620h82v-67h-82v-110q31 34 54 47.5t50 13.5q33 0 50 -23q16 -23 16 -94v-387h-90v366q0 34 -3 41q-3 15 -20 15q-27 0 -57 -42v-380h-90v553h-34v67h34v47h90v-47z" />
    <glyph glyph-name="Imacron" unicode="&#x12a;" horiz-adv-x="189" 
d="M145 667v-667h-100v667h100zM-2 716v67h193v-67h-193z" />
    <glyph glyph-name="imacron" unicode="&#x12b;" horiz-adv-x="167" 
d="M129 497v-497h-90v497h90zM-13 586v67h193v-67h-193z" />
    <glyph glyph-name="ibreve" unicode="&#x12d;" horiz-adv-x="167" 
d="M128 497v-497h-90v497h90zM135 662l56 -34q-35 -49 -108 -49q-71 0 -108 49l57 34q27 -17 51 -17q25 0 52 17z" />
    <glyph glyph-name="Iogonek" unicode="&#x12e;" horiz-adv-x="189" 
d="M145 0h-20q-24 -43 -24 -66q0 -33 34 -33q9 0 20 4v-49q-19 -5 -37 -5q-37 0 -60 18.5t-23 48.5q0 33 29 82h-19v667h100v-667z" />
    <glyph glyph-name="iogonek" unicode="&#x12f;" horiz-adv-x="167" 
d="M129 0h-15q-24 -43 -24 -66q0 -33 34 -33q9 0 20 4v-49q-19 -5 -37 -5q-37 0 -60 18.5t-23 48.5q0 33 29 82h-14v497h90v-497zM129 667v-90h-90v90h90z" />
    <glyph glyph-name="Idotaccent" unicode="&#x130;" horiz-adv-x="189" 
d="M145 667v-667h-100v667h100zM139 809v-89h-87v89h87z" />
    <glyph glyph-name="dotlessi" unicode="&#x131;" horiz-adv-x="167" 
d="M129 497v-497h-90v497h90z" />
    <glyph glyph-name="IJ" unicode="&#x132;" horiz-adv-x="420" 
d="M145 667v-667h-100v667h100zM276 667h100v-457q0 -72 -6 -106.5t-22 -59.5q-29 -44 -100 -44h-48v93h24q29 0 40.5 21.5t11.5 79.5v473z" />
    <glyph glyph-name="ij" unicode="&#x133;" horiz-adv-x="343" 
d="M129 497v-497h-90v497h90zM129 667v-90h-90v90h90zM214 497h90v-510q0 -53 -3.5 -74.5t-14.5 -40.5q-24 -42 -88 -42q-20 0 -47 6v87q15 -3 21 -3q42 0 42 56v521zM304 667v-90h-90v90h90z" />
    <glyph glyph-name="Kcommaaccent" unicode="&#x136;" horiz-adv-x="399" 
d="M45 667h100v-267l118 267h105l-115 -232l130 -435h-107l-85 310l-46 -92v-218h-100v667zM241 -46v-68l-22 -56h-47l17 56h-27v68h79z" />
    <glyph glyph-name="kcommaaccent" unicode="&#x137;" horiz-adv-x="338" 
d="M129 667v-361l92 191h91l-90 -166l98 -331h-88l-63 231l-40 -72v-159h-90v667h90zM205 -46v-68l-22 -56h-47l17 56h-27v68h79z" />
    <glyph glyph-name="kgreenlandic" unicode="&#x138;" horiz-adv-x="504" 
d="M490 481l-205 -194l228 -287h-108l-179 228l-75 -68v-160h-90v481h90v-226l234 226h105z" />
    <glyph glyph-name="Lacute" unicode="&#x139;" horiz-adv-x="324" 
d="M311 93v-93h-266v667h100v-574h166zM66 720l46 80h97l-73 -80h-70z" />
    <glyph glyph-name="lacute" unicode="&#x13a;" horiz-adv-x="167" 
d="M129 667v-667h-90v667h90zM49 720l45 80h97l-72 -80h-70z" />
    <glyph glyph-name="Lcommaaccent" unicode="&#x13b;" horiz-adv-x="324" 
d="M311 93v-93h-266v667h100v-574h166zM218 -46v-68l-22 -56h-47l17 56h-27v68h79z" />
    <glyph glyph-name="lcommaaccent" unicode="&#x13c;" horiz-adv-x="167" 
d="M129 667v-667h-90v667h90zM124 -46v-68l-22 -56h-47l17 56h-27v68h79z" />
    <glyph glyph-name="Lcaron" unicode="&#x13d;" horiz-adv-x="324" 
d="M311 93v-93h-266v667h100v-574h166zM180 667h91v-98l-39 -83h-50l31 83h-33v98z" />
    <glyph glyph-name="lcaron" unicode="&#x13e;" horiz-adv-x="250" 
d="M129 667v-667h-90v667h90zM160 667h91v-98l-39 -83h-50l31 83h-33v98z" />
    <glyph glyph-name="Ldot" unicode="&#x13f;" horiz-adv-x="324" 
d="M311 93v-93h-266v667h100v-574h166zM272 391v-89h-87v89h87z" />
    <glyph glyph-name="ldot" unicode="&#x140;" horiz-adv-x="257" 
d="M129 667v-667h-90v667h90zM258 370v-89h-87v89h87z" />
    <glyph glyph-name="Lslash" unicode="&#x141;" horiz-adv-x="331" 
d="M52 279l-27 -20v87l27 21v300h100v-237l56 43v-87l-56 -43v-250h166v-93h-266v279z" />
    <glyph glyph-name="lslash" unicode="&#x142;" horiz-adv-x="208" 
d="M149 434l47 36v-81l-47 -35v-354h-90v295l-46 -36v81l46 35v292h90v-233z" />
    <glyph glyph-name="Nacute" unicode="&#x143;" horiz-adv-x="420" 
d="M376 0h-93l-145 412v-412h-93v667h101l137 -396v396h93v-667zM163 720l45 80h97l-72 -80h-70z" />
    <glyph glyph-name="nacute" unicode="&#x144;" horiz-adv-x="337" 
d="M129 497v-54q32 35 54 48t49 13q33 0 50 -23q16 -23 16 -94v-387h-90v366q0 34 -3 41q-3 15 -19 15q-27 0 -57 -42v-380h-90v497h90zM129 580l46 80h97l-73 -80h-70z" />
    <glyph glyph-name="Ncommaaccent" unicode="&#x145;" horiz-adv-x="420" 
d="M376 0h-93l-145 412v-412h-93v667h101l137 -396v396h93v-667zM250 -46v-68l-22 -56h-47l17 56h-27v68h79z" />
    <glyph glyph-name="ncommaaccent" unicode="&#x146;" horiz-adv-x="337" 
d="M129 497v-54q32 35 54 48t49 13q33 0 50 -23q16 -23 16 -94v-387h-90v366q0 34 -3 41q-3 15 -19 15q-27 0 -57 -42v-380h-90v497h90zM208 -46v-68l-22 -56h-47l17 56h-27v68h79z" />
    <glyph glyph-name="Ncaron" unicode="&#x147;" horiz-adv-x="420" 
d="M376 0h-93l-145 412v-412h-93v667h101l137 -396v396h93v-667zM261 720h-101l-58 80h80l28 -31l29 31h80z" />
    <glyph glyph-name="ncaron" unicode="&#x148;" horiz-adv-x="337" 
d="M129 497v-54q32 35 54 48t49 13q33 0 50 -23q16 -23 16 -94v-387h-90v366q0 34 -3 41q-3 15 -19 15q-27 0 -57 -42v-380h-90v497h90zM227 580h-100l-59 80h81l28 -31l28 31h81z" />
    <glyph glyph-name="napostrophe" unicode="&#x149;" horiz-adv-x="527" 
d="M144 667v-103l-52 -116h-45l35 116h-35v103h97zM319 497v-54q32 35 54 48t49 13q33 0 50 -23q16 -23 16 -94v-387h-90v366q0 34 -3 41q-3 15 -19 15q-27 0 -57 -42v-380h-90v497h90z" />
    <glyph glyph-name="Eng" unicode="&#x14a;" horiz-adv-x="651" 
d="M63 658h93v-135q24 58 51 86q61 66 164 66q107 0 169 -70q27 -31 37.5 -68t10.5 -101v-527q0 -50 -21.5 -67.5t-84.5 -17.5h-80v56h8q53 0 66.5 20t13.5 96v418q0 88 -37 129q-42 47 -115 47q-100 0 -148 -84q-29 -52 -29 -150v-356h-98v658z" />
    <glyph glyph-name="eng" unicode="&#x14b;" horiz-adv-x="553" 
d="M61 479h84v-97q53 112 172 112q87 0 138 -57q37 -45 37 -137v-386q0 -59 -36 -76q-15 -7 -66 -7h-73v45h8q45 0 61 13t16 49v345q0 57 -15 83q-31 52 -101 52q-36 0 -67 -16.5t-47 -45.5q-22 -37 -22 -109v-247h-89v479z" />
    <glyph glyph-name="Omacron" unicode="&#x14c;" horiz-adv-x="397" 
d="M355 450v-233q0 -75 -8 -110t-32 -64q-43 -53 -116 -53q-74 0 -117 53q-24 29 -32 64.5t-8 109.5v233q0 74 8 109.5t32 64.5q43 53 117 53t116 -53q24 -29 32 -64.5t8 -109.5zM142 439v-211q0 -87 7 -107q13 -38 50 -38q40 0 51 44q5 22 5 101v211q0 87 -7 107
q-13 38 -49 38q-41 0 -52 -44q-5 -22 -5 -101zM102 716v67h193v-67h-193z" />
    <glyph glyph-name="omacron" unicode="&#x14d;" horiz-adv-x="336" 
d="M301 335v-173q0 -79 -28 -118q-38 -51 -105 -51t-105 51q-28 39 -28 118v173q0 79 28 118q38 51 105 51t105 -51q28 -39 28 -118zM125 353v-209q0 -69 43 -69t43 69v209q0 69 -43 69t-43 -69zM71 586v67h193v-67h-193z" />
    <glyph glyph-name="Ohungarumlaut" unicode="&#x150;" horiz-adv-x="397" 
d="M355 450v-233q0 -75 -8 -110t-32 -64q-43 -53 -116 -53q-74 0 -117 53q-24 29 -32 64.5t-8 109.5v233q0 74 8 109.5t32 64.5q43 53 117 53t116 -53q24 -29 32 -64.5t8 -109.5zM142 439v-211q0 -87 7 -107q13 -38 50 -38q40 0 51 44q5 22 5 101v211q0 87 -7 107
q-13 38 -49 38q-41 0 -52 -44q-5 -22 -5 -101zM92 720l45 80h97l-72 -80h-70zM232 720l45 80h97l-72 -80h-70z" />
    <glyph glyph-name="ohungarumlaut" unicode="&#x151;" horiz-adv-x="336" 
d="M301 335v-173q0 -79 -28 -118q-38 -51 -105 -51t-105 51q-28 39 -28 118v173q0 79 28 118q38 51 105 51t105 -51q28 -39 28 -118zM125 353v-209q0 -69 43 -69t43 69v209q0 69 -43 69t-43 -69zM65 580l45 80h97l-72 -80h-70zM205 580l45 80h97l-72 -80h-70z" />
    <glyph glyph-name="OE" unicode="&#x152;" horiz-adv-x="558" 
d="M526 667v-93h-172v-182h123v-93h-123v-206h172v-93h-314q-86 0 -127.5 46t-41.5 142v290q0 97 41.5 143t127.5 46h314zM254 93v481h-31q-43 0 -63 -23q-17 -21 -17 -78v-280q0 -56 17 -77q20 -23 63 -23h31z" />
    <glyph glyph-name="oe" unicode="&#x153;" horiz-adv-x="521" 
d="M485 232h-179v-88q0 -69 45 -69q27 0 37 23q5 12 5 56q0 9 1 18h91v-23q0 -70 -23 -102q-38 -54 -108 -54q-50 0 -92 33q-40 -33 -89 -33q-67 0 -105 51q-28 39 -28 118v173q0 79 28 118q38 51 105 51q47 0 88 -33q42 33 90 33q68 0 106 -51q28 -39 28 -118v-103z
M130 353v-209q0 -69 43 -69t43 69v209q0 69 -43 69t-43 -69zM395 307v46q0 69 -44 69q-45 0 -45 -69v-46h89z" />
    <glyph glyph-name="Racute" unicode="&#x154;" horiz-adv-x="389" 
d="M145 279v-279h-100v667h140q87 0 127 -46.5t40 -146.5q0 -65 -15 -103t-52 -65l77 -306h-106l-63 279h-48zM145 372h32q44 0 58 21q17 27 17 80q0 60 -20 83q-13 18 -55 18h-32v-202zM134 720l46 80h97l-73 -80h-70z" />
    <glyph glyph-name="racute" unicode="&#x155;" horiz-adv-x="236" 
d="M39 497h90v-71q23 41 48 59t60 19v-99q-16 5 -31 5q-36 0 -56 -25q-21 -25 -21 -84v-301h-90v497zM98 580l46 80h97l-73 -80h-70z" />
    <glyph glyph-name="Rcommaaccent" unicode="&#x156;" horiz-adv-x="389" 
d="M145 279v-279h-100v667h140q87 0 127 -46.5t40 -146.5q0 -65 -15 -103t-52 -65l77 -306h-106l-63 279h-48zM145 372h32q44 0 58 21q17 27 17 80q0 60 -20 83q-13 18 -55 18h-32v-202zM233 -46v-68l-22 -56h-47l17 56h-27v68h79z" />
    <glyph glyph-name="rcommaaccent" unicode="&#x157;" horiz-adv-x="236" 
d="M39 497h90v-71q23 41 48 59t60 19v-99q-16 5 -31 5q-36 0 -56 -25q-21 -25 -21 -84v-301h-90v497zM127 -46v-68l-22 -56h-47l17 56h-27v68h79z" />
    <glyph glyph-name="Rcaron" unicode="&#x158;" horiz-adv-x="389" 
d="M145 279v-279h-100v667h140q87 0 127 -46.5t40 -146.5q0 -65 -15 -103t-52 -65l77 -306h-106l-63 279h-48zM145 372h32q44 0 58 21q17 27 17 80q0 60 -20 83q-13 18 -55 18h-32v-202zM232 720h-100l-59 80h81l28 -31l28 31h81z" />
    <glyph glyph-name="rcaron" unicode="&#x159;" horiz-adv-x="236" 
d="M39 497h90v-71q23 41 48 59t59 19v-99q-16 5 -31 5q-35 0 -55 -25q-21 -25 -21 -84v-301h-90v497zM175 580h-101l-58 80h80l29 -31l28 31h80z" />
    <glyph glyph-name="Sacute" unicode="&#x15a;" horiz-adv-x="371" 
d="M340 517l-97 -14q-5 45 -17.5 63t-40.5 18q-25 0 -40.5 -18t-15.5 -48q0 -34 17.5 -61.5t71.5 -77.5q78 -71 103.5 -114t25.5 -104q0 -76 -43.5 -123.5t-114.5 -47.5q-73 0 -118.5 49t-47.5 131l95 17q4 -104 71 -104q28 0 44.5 19.5t16.5 53.5q0 37 -26 72
q-20 26 -78 79q-63 59 -88.5 104.5t-25.5 100.5q0 74 43 119.5t114 45.5q133 0 151 -160zM148 720l45 80h97l-72 -80h-70z" />
    <glyph glyph-name="sacute" unicode="&#x15b;" horiz-adv-x="313" 
d="M292 380l-86 -20q-7 35 -18 48.5t-32 13.5q-19 0 -30.5 -12t-11.5 -32q0 -21 13 -38t53 -47q71 -55 93.5 -87.5t22.5 -81.5q0 -60 -37 -95.5t-99 -35.5q-123 0 -145 143l85 20q8 -36 15 -50q17 -31 47 -31q20 0 32 12.5t12 34.5t-12 38t-50 45q-71 54 -95.5 88.5
t-24.5 81.5q0 58 37 93.5t98 35.5q114 0 133 -124zM120 580l45 80h97l-72 -80h-70z" />
    <glyph glyph-name="Scircumflex" unicode="&#x15c;" horiz-adv-x="371" 
d="M340 517l-97 -14q-5 45 -17.5 63t-40.5 18q-25 0 -40.5 -18t-15.5 -48q0 -34 17.5 -61.5t71.5 -77.5q78 -71 103.5 -114t25.5 -104q0 -76 -43.5 -123.5t-114.5 -47.5q-73 0 -118.5 49t-47.5 131l95 17q4 -104 71 -104q28 0 44.5 19.5t16.5 53.5q0 37 -26 72
q-20 26 -78 79q-63 59 -88.5 104.5t-25.5 100.5q0 74 43 119.5t114 45.5q133 0 151 -160zM135 800h100l59 -80h-81l-28 31l-28 -31h-80z" />
    <glyph glyph-name="scircumflex" unicode="&#x15d;" horiz-adv-x="313" 
d="M292 380l-86 -20q-7 35 -18 48.5t-32 13.5q-19 0 -30.5 -12t-11.5 -32q0 -21 13 -38t53 -47q71 -55 93.5 -87.5t22.5 -81.5q0 -60 -37 -95.5t-99 -35.5q-123 0 -145 143l85 20q8 -36 15 -50q17 -31 47 -31q20 0 32 12.5t12 34.5t-12 38t-50 45q-71 54 -95.5 88.5
t-24.5 81.5q0 58 37 93.5t98 35.5q114 0 133 -124zM109 660h100l59 -80h-81l-28 31l-28 -31h-81z" />
    <glyph glyph-name="Scedilla" unicode="&#x15e;" horiz-adv-x="371" 
d="M340 517l-97 -14q-5 45 -17.5 63t-40.5 18q-25 0 -40.5 -18t-15.5 -48q0 -34 17.5 -61.5t71.5 -77.5q78 -71 103.5 -114t25.5 -104q0 -76 -43.5 -123.5t-114.5 -47.5q-73 0 -118.5 49t-47.5 131l95 17q4 -104 71 -104q28 0 44.5 19.5t16.5 53.5q0 37 -26 72
q-20 26 -78 79q-63 59 -88.5 104.5t-25.5 100.5q0 74 43 119.5t114 45.5q133 0 151 -160zM225 -46v-68l-22 -56h-47l17 56h-27v68h79z" />
    <glyph glyph-name="scedilla" unicode="&#x15f;" horiz-adv-x="313" 
d="M292 380l-86 -20q-7 35 -18 48.5t-32 13.5q-19 0 -30.5 -12t-11.5 -32q0 -21 13 -38t53 -47q71 -55 93.5 -87.5t22.5 -81.5q0 -60 -37 -95.5t-99 -35.5q-123 0 -145 143l85 20q8 -36 15 -50q17 -31 47 -31q20 0 32 12.5t12 34.5t-12 38t-50 45q-71 54 -95.5 88.5
t-24.5 81.5q0 58 37 93.5t98 35.5q114 0 133 -124zM195 -46v-68l-22 -56h-47l17 56h-27v68h79z" />
    <glyph glyph-name="Scaron" unicode="&#x160;" horiz-adv-x="371" 
d="M340 517l-97 -14q-5 45 -17.5 63t-40.5 18q-25 0 -40.5 -18t-15.5 -48q0 -34 17.5 -61.5t71.5 -77.5q78 -71 103.5 -114t25.5 -104q0 -76 -43.5 -123.5t-114.5 -47.5q-73 0 -118.5 49t-47.5 131l95 17q4 -104 71 -104q28 0 44.5 19.5t16.5 53.5q0 37 -26 72
q-20 26 -78 79q-63 59 -88.5 104.5t-25.5 100.5q0 74 43 119.5t114 45.5q133 0 151 -160zM242 720h-101l-58 80h80l28 -31l29 31h80z" />
    <glyph glyph-name="scaron" unicode="&#x161;" horiz-adv-x="313" 
d="M292 380l-86 -20q-7 35 -18 48.5t-32 13.5q-19 0 -30.5 -12t-11.5 -32q0 -21 13 -38t53 -47q71 -55 93.5 -87.5t22.5 -81.5q0 -60 -37 -95.5t-99 -35.5q-123 0 -145 143l85 20q8 -36 15 -50q17 -31 47 -31q20 0 32 12.5t12 34.5t-12 38t-50 45q-71 54 -95.5 88.5
t-24.5 81.5q0 58 37 93.5t98 35.5q114 0 133 -124zM207 580h-100l-59 80h81l28 -31l28 31h80z" />
    <glyph glyph-name="Tcommaaccent" unicode="&#x162;" horiz-adv-x="328" 
d="M213 574v-574h-100v574h-106v93h314v-93h-108zM204 -46v-68l-22 -56h-47l17 56h-27v68h79z" />
    <glyph glyph-name="tcommaaccent" unicode="&#x163;" horiz-adv-x="244" 
d="M235 497v-82h-75v-247q0 -51 9.5 -68t38.5 -17q11 0 27 4v-85q-33 -9 -64 -9q-53 0 -79 37q-13 18 -17.5 38t-4.5 65v282h-55v82h55v136h90v-136h75zM173 -46v-68l-22 -56h-47l17 56h-27v68h79z" />
    <glyph glyph-name="Tcaron" unicode="&#x164;" horiz-adv-x="328" 
d="M213 574v-574h-100v574h-106v93h314v-93h-108zM214 720h-100l-58 80h80l28 -31l29 31h80z" />
    <glyph glyph-name="tcaron" unicode="&#x165;" horiz-adv-x="286" 
d="M235 497v-82h-75v-247q0 -51 9.5 -68t38.5 -17q11 0 27 4v-85q-33 -9 -64 -9q-53 0 -79 37q-13 18 -17.5 38t-4.5 65v282h-55v82h55v136h90v-136h75zM194 730h91v-98l-39 -83h-50l31 83h-33v98z" />
    <glyph glyph-name="Tbar" unicode="&#x166;" horiz-adv-x="529" 
d="M314 412h179v-69h-179v-343h-98v343h-180v69h180v172h-219v83h535v-83h-218v-172z" />
    <glyph glyph-name="tbar" unicode="&#x167;" horiz-adv-x="300" 
d="M181 341h79v-56h-79v-135q0 -47 8 -62q13 -24 56 -24q16 0 39 4v-68q-39 -4 -64 -4q-80 0 -110 40q-19 28 -19 100v149h-66v56h66v80h-86v60h86v151h90v-151h103v-60h-103v-80z" />
    <glyph glyph-name="utilde" unicode="&#x169;" horiz-adv-x="337" 
d="M298 497v-497h-90v54q-32 -35 -54 -48t-49 -13q-33 0 -50 23q-16 23 -16 94v387h90v-366q0 -34 3 -41q3 -15 19 -15q27 0 57 42v380h90zM72 580v70q27 15 55 15q20 0 43 -8q32 -12 48 -12q19 0 47 17v-69q-29 -17 -47 -17q-16 0 -48 12q-23 8 -43 8q-28 0 -55 -16z" />
    <glyph glyph-name="Umacron" unicode="&#x16a;" horiz-adv-x="403" 
d="M258 667h100v-450q0 -75 -8 -110t-32 -64q-43 -53 -116 -53q-74 0 -117 53q-24 29 -32 64.5t-8 109.5v450h100v-439q0 -87 7 -107q13 -38 50 -38q40 0 51 44q5 22 5 101v439zM105 716v67h193v-67h-193z" />
    <glyph glyph-name="umacron" unicode="&#x16b;" horiz-adv-x="337" 
d="M298 497v-497h-90v54q-32 -35 -54 -48t-49 -13q-33 0 -50 23q-16 23 -16 94v387h90v-366q0 -34 3 -41q3 -15 19 -15q27 0 57 42v380h90zM72 586v67h193v-67h-193z" />
    <glyph glyph-name="ubreve" unicode="&#x16d;" horiz-adv-x="337" 
d="M298 497v-497h-90v54q-32 -35 -54 -48t-49 -13q-33 0 -50 23q-16 23 -16 94v387h90v-366q0 -34 3 -41q3 -15 19 -15q27 0 57 42v380h90zM220 662l57 -34q-35 -49 -108 -49t-108 49l56 34q27 -17 52 -17t51 17z" />
    <glyph glyph-name="Uring" unicode="&#x16e;" horiz-adv-x="403" 
d="M258 667h100v-450q0 -75 -8 -110t-32 -64q-43 -53 -116 -53q-74 0 -117 53q-24 29 -32 64.5t-8 109.5v450h100v-439q0 -87 7 -107q13 -38 50 -38q40 0 51 44q5 22 5 101v439zM202 846q30 0 51.5 -20.5t21.5 -48.5q0 -29 -21.5 -49.5t-51.5 -20.5q-31 0 -52.5 20.5
t-21.5 49.5t21.5 49t52.5 20zM202 811q-15 0 -26 -10t-11 -24t11 -24.5t26 -10.5t25.5 10t10.5 25q0 14 -10.5 24t-25.5 10z" />
    <glyph glyph-name="uring" unicode="&#x16f;" horiz-adv-x="337" 
d="M298 497v-497h-90v54q-32 -35 -54 -48t-49 -13q-33 0 -50 23q-16 23 -16 94v387h90v-366q0 -34 3 -41q3 -15 19 -15q27 0 57 42v380h90zM169 698q30 0 51.5 -20.5t21.5 -48.5q0 -29 -21.5 -49.5t-51.5 -20.5q-31 0 -52.5 20.5t-21.5 49.5t21.5 49t52.5 20zM169 663
q-15 0 -26 -10t-11 -24t11 -24.5t26 -10.5t25.5 10t10.5 25q0 14 -10.5 24t-25.5 10z" />
    <glyph glyph-name="Uhungarumlaut" unicode="&#x170;" horiz-adv-x="403" 
d="M258 667h100v-450q0 -75 -8 -110t-32 -64q-43 -53 -116 -53q-74 0 -117 53q-24 29 -32 64.5t-8 109.5v450h100v-439q0 -87 7 -107q13 -38 50 -38q40 0 51 44q5 22 5 101v439zM90 720l46 80h97l-72 -80h-71zM230 720l46 80h97l-72 -80h-71z" />
    <glyph glyph-name="uhungarumlaut" unicode="&#x171;" horiz-adv-x="337" 
d="M298 497v-497h-90v54q-32 -35 -54 -48t-49 -13q-33 0 -50 23q-16 23 -16 94v387h90v-366q0 -34 3 -41q3 -15 19 -15q27 0 57 42v380h90zM68 580l45 80h97l-72 -80h-70zM208 580l45 80h97l-72 -80h-70z" />
    <glyph glyph-name="Uogonek" unicode="&#x172;" horiz-adv-x="403" 
d="M358 667v-450q0 -83 -11.5 -122t-43.5 -68q-28 -51 -33.5 -64.5t-5.5 -28.5q0 -33 34 -33q9 0 21 4v-49q-20 -5 -37 -5q-38 0 -61 18.5t-23 48.5t25 73q-8 -1 -21 -1q-75 0 -117 53q-24 29 -32 64.5t-8 109.5v450h100v-439q0 -87 7 -107q13 -38 50 -38q40 0 51 44
q5 22 5 101v439h100z" />
    <glyph glyph-name="uogonek" unicode="&#x173;" horiz-adv-x="337" 
d="M298 0h-17q-25 -40 -25 -66q0 -33 34 -33q9 0 21 4v-49q-20 -5 -37 -5q-38 0 -61 18.5t-23 48.5q0 32 29 82h-11v54q-32 -35 -54 -48t-49 -13q-33 0 -50 23q-16 23 -16 94v387h90v-366q0 -34 3 -41q3 -15 19 -15q27 0 57 42v380h90v-497z" />
    <glyph glyph-name="Wcircumflex" unicode="&#x174;" horiz-adv-x="550" 
d="M429 0h-87l-69 404l-66 -404h-87l-100 667h100l50 -399l63 399h83l66 -399l51 399h97zM225 800h100l59 -80h-81l-28 31l-28 -31h-81z" />
    <glyph glyph-name="Ycircumflex" unicode="&#x176;" horiz-adv-x="372" 
d="M238 270v-270h-100v270l-125 397h104l71 -262l69 262h101zM135 800h101l58 -80h-80l-29 31l-28 -31h-80z" />
    <glyph glyph-name="ycircumflex" unicode="&#x177;" horiz-adv-x="320" 
d="M214 497h89l-101 -510q-14 -71 -21 -91.5t-23 -37.5q-31 -35 -103 -35q-13 0 -32 3v88q7 -1 18 -1q42 0 61 32q7 12 16 49l-101 503h90l54 -320zM110 660h101l58 -80h-80l-29 31l-28 -31h-80z" />
    <glyph glyph-name="Ydieresis" unicode="&#x178;" horiz-adv-x="372" 
d="M238 270v-270h-100v270l-125 397h104l71 -262l69 262h101zM159 809v-89h-87v89h87zM299 809v-89h-87v89h87z" />
    <glyph glyph-name="Zacute" unicode="&#x179;" horiz-adv-x="352" 
d="M326 93v-93h-299v93l193 481h-178v93h284v-93l-192 -481h192zM150 720l45 80h97l-72 -80h-70z" />
    <glyph glyph-name="zacute" unicode="&#x17a;" horiz-adv-x="309" 
d="M278 82v-82h-251v77l152 338h-139v82h238v-82l-148 -333h148zM123 580l45 80h97l-72 -80h-70z" />
    <glyph glyph-name="Zdotaccent" unicode="&#x17b;" horiz-adv-x="352" 
d="M326 93v-93h-299v93l193 481h-178v93h284v-93l-192 -481h192zM233 809v-89h-87v89h87z" />
    <glyph glyph-name="zdotaccent" unicode="&#x17c;" horiz-adv-x="309" 
d="M278 82v-82h-251v77l152 338h-139v82h238v-82l-148 -333h148zM206 667v-89h-87v89h87z" />
    <glyph glyph-name="Zcaron" unicode="&#x17d;" horiz-adv-x="352" 
d="M326 93v-93h-299v93l193 481h-178v93h284v-93l-192 -481h192zM239 720h-100l-59 80h81l28 -31l28 31h81z" />
    <glyph glyph-name="zcaron" unicode="&#x17e;" horiz-adv-x="309" 
d="M278 82v-82h-251v77l152 338h-139v82h238v-82l-148 -333h148zM219 580h-100l-59 80h80l29 -31l28 31h80z" />
    <glyph glyph-name="florin" unicode="&#x192;" horiz-adv-x="380" 
d="M249 483h78l-16 -82h-78l-111 -571h-90l111 571h-76l16 82h76l27 138q7 36 15 53.5t24 32.5q36 33 92 33q27 0 48 -7l-15 -77q-12 2 -24 2q-24 0 -36 -14t-19 -49z" />
    <glyph glyph-name="uni01CD" unicode="&#x1cd;" horiz-adv-x="405" 
d="M256 147h-107l-23 -147h-99l109 667h130l116 -667h-103zM241 240l-40 266l-38 -266h78zM253 720h-100l-59 80h80l29 -31l28 31h80z" />
    <glyph glyph-name="uni01CE" unicode="&#x1ce;" horiz-adv-x="346" 
d="M312 0h-90q-3 16 -7 56q-54 -63 -104 -63q-37 0 -59 32t-22 86q0 65 36.5 107t146.5 104v32q0 40 -7.5 54t-29.5 14q-21 0 -31 -15.5t-11 -52.5h-92q5 72 42 111t100 39q65 0 94 -43q15 -20 20 -43.5t5 -73.5v-164q0 -124 9 -180zM213 121v132q-49 -31 -69.5 -59.5
t-20.5 -66.5q0 -52 31 -52q32 0 59 46zM236 580h-101l-58 80h80l29 -31l28 31h80z" />
    <glyph glyph-name="uni01D3" unicode="&#x1d3;" horiz-adv-x="403" 
d="M258 667h100v-450q0 -75 -8 -110t-32 -64q-43 -53 -116 -53q-74 0 -117 53q-24 29 -32 64.5t-8 109.5v450h100v-439q0 -87 7 -107q13 -38 50 -38q40 0 51 44q5 22 5 101v439zM252 720h-101l-58 80h80l29 -31l28 31h80z" />
    <glyph glyph-name="uni01D4" unicode="&#x1d4;" horiz-adv-x="337" 
d="M298 497v-497h-90v54q-32 -35 -54 -48t-49 -13q-33 0 -50 23q-16 23 -16 94v387h90v-366q0 -34 3 -41q3 -15 19 -15q27 0 57 42v380h90zM219 580h-100l-59 80h80l29 -31l28 31h80z" />
    <glyph glyph-name="Gcaron" unicode="&#x1e6;" horiz-adv-x="399" 
d="M355 338v-338h-49l-19 53q-21 -35 -44.5 -49t-60.5 -14q-75 0 -110 57q-30 52 -30 166v233q0 79 7.5 113.5t32.5 64.5q42 53 117 53q56 0 96 -30.5t53 -82.5q7 -28 7 -115h-101q0 51 -2 81q-3 24 -17.5 38.5t-36.5 14.5q-40 0 -51 -44q-5 -20 -5 -100v-211q0 -83 7 -106
q11 -38 50 -38q41 0 51 43q5 23 5 101v27h-61v83h161zM250 720h-101l-58 80h80l29 -31l28 31h80z" />
    <glyph glyph-name="gcaron" unicode="&#x1e7;" horiz-adv-x="339" 
d="M333 501v-76q-34 0 -54 -20q2 -16 2 -52v-84q0 -64 -25 -99q-35 -44 -94 -44q-13 0 -25 1q-21 -17 -21 -34q0 -22 55 -25q99 -6 126 -26q41 -29 41 -88q0 -63 -45.5 -97t-130.5 -34q-71 0 -111 23t-40 65q0 26 17 44t64 41q-57 24 -57 64q0 39 57 81q-32 22 -44.5 50
t-12.5 78v92q0 64 25 99q33 44 101 44q65 0 103 -56q26 50 69 53zM117 363v-97q0 -63 41 -63t41 63v97q0 64 -41 64t-41 -64zM144 -13q-38 -18 -38 -46q0 -22 19 -35t50 -13q37 0 60 14t23 37q0 18 -11 26.5t-37 11.5q-3 0 -8.5 0.5t-21 1.5t-36.5 3zM219 580h-100l-58 80
h80l28 -31l29 31h80z" />
    <glyph glyph-name="uni01F4" unicode="&#x1f4;" horiz-adv-x="399" 
d="M355 338v-338h-49l-19 53q-21 -35 -44.5 -49t-60.5 -14q-75 0 -110 57q-30 52 -30 166v233q0 79 7.5 113.5t32.5 64.5q42 53 117 53q56 0 96 -30.5t53 -82.5q7 -28 7 -115h-101q0 51 -2 81q-3 24 -17.5 38.5t-36.5 14.5q-40 0 -51 -44q-5 -20 -5 -100v-211q0 -83 7 -106
q11 -38 50 -38q41 0 51 43q5 23 5 101v27h-61v83h161zM158 720l46 80h96l-72 -80h-70z" />
    <glyph glyph-name="Scommaaccent" unicode="&#x218;" horiz-adv-x="371" 
d="M340 517l-97 -14q-5 45 -17.5 63t-40.5 18q-25 0 -40.5 -18t-15.5 -48q0 -34 17.5 -61.5t71.5 -77.5q78 -71 103.5 -114t25.5 -104q0 -76 -43.5 -123.5t-114.5 -47.5q-73 0 -118.5 49t-47.5 131l95 17q4 -104 71 -104q28 0 44.5 19.5t16.5 53.5q0 37 -26 72
q-20 26 -78 79q-63 59 -88.5 104.5t-25.5 100.5q0 74 43 119.5t114 45.5q133 0 151 -160zM225 -46v-68l-22 -56h-47l17 56h-27v68h79z" />
    <glyph glyph-name="scommaaccent" unicode="&#x219;" horiz-adv-x="313" 
d="M292 380l-86 -20q-7 35 -18 48.5t-32 13.5q-19 0 -30.5 -12t-11.5 -32q0 -21 13 -38t53 -47q71 -55 93.5 -87.5t22.5 -81.5q0 -60 -37 -95.5t-99 -35.5q-123 0 -145 143l85 20q8 -36 15 -50q17 -31 47 -31q20 0 32 12.5t12 34.5t-12 38t-50 45q-71 54 -95.5 88.5
t-24.5 81.5q0 58 37 93.5t98 35.5q114 0 133 -124zM195 -46v-68l-22 -56h-47l17 56h-27v68h79z" />
    <glyph glyph-name="uni021A" unicode="&#x21a;" horiz-adv-x="328" 
d="M213 574v-574h-100v574h-106v93h314v-93h-108zM204 -46v-68l-22 -56h-47l17 56h-27v68h79z" />
    <glyph glyph-name="uni021B" unicode="&#x21b;" horiz-adv-x="244" 
d="M235 497v-82h-75v-247q0 -51 9.5 -68t38.5 -17q11 0 27 4v-85q-33 -9 -64 -9q-53 0 -79 37q-13 18 -17.5 38t-4.5 65v282h-55v82h55v136h90v-136h75zM173 -46v-68l-22 -56h-47l17 56h-27v68h79z" />
    <glyph glyph-name="afii57929" unicode="&#x2bc;" horiz-adv-x="190" 
d="M144 667v-103l-52 -116h-45l35 116h-35v103h97z" />
    <glyph glyph-name="circumflex" unicode="&#x2c6;" 
d="M199 660h101l58 -80h-80l-28 31l-29 -31h-80z" />
    <glyph glyph-name="caron" unicode="&#x2c7;" 
d="M300 580h-101l-58 80h80l29 -31l28 31h80z" />
    <glyph glyph-name="uni02C9" unicode="&#x2c9;" 
d="M153 586v67h193v-67h-193z" />
    <glyph glyph-name="breve" unicode="&#x2d8;" 
d="M302 662l56 -34q-35 -49 -108 -49q-71 0 -108 49l57 34q27 -17 51 -17q25 0 52 17z" />
    <glyph glyph-name="dotaccent" unicode="&#x2d9;" 
d="M294 667v-89h-87v89h87z" />
    <glyph glyph-name="ring" unicode="&#x2da;" 
d="M251 698q30 0 51.5 -20.5t21.5 -48.5q0 -29 -21.5 -49.5t-51.5 -20.5q-31 0 -52.5 20.5t-21.5 49.5t21.5 49t52.5 20zM251 663q-15 0 -26 -10t-11 -24t11 -24.5t26 -10.5t25.5 10t10.5 25q0 14 -10.5 24t-25.5 10z" />
    <glyph glyph-name="ogonek" unicode="&#x2db;" 
d="M295 18h60q-34 -60 -34 -85q0 -32 34 -32q8 0 20 4v-49q-20 -5 -37 -5q-37 0 -60 18.5t-23 48.5q0 36 40 100z" />
    <glyph glyph-name="tilde" unicode="&#x2dc;" 
d="M153 580v70q27 15 55 15q20 0 43 -8q32 -12 48 -12q19 0 47 17v-69q-29 -17 -47 -17q-16 0 -48 12q-23 8 -43 8q-28 0 -55 -16z" />
    <glyph glyph-name="hungarumlaut" unicode="&#x2dd;" 
d="M132 580l46 80h96l-72 -80h-70zM272 580l46 80h96l-72 -80h-70z" />
    <glyph glyph-name="uni0387" unicode="&#x387;" horiz-adv-x="180" 
d="M139 305v-103h-97v103h97z" />
    <glyph glyph-name="Wacute" unicode="&#x1e82;" horiz-adv-x="206" 
d="M173 298v-90h-140v90h140z" />
    <glyph glyph-name="Wdieresis" unicode="&#x1e84;" horiz-adv-x="550" 
d="M429 0h-87l-69 404l-66 -404h-87l-100 667h100l50 -399l63 399h83l66 -399l51 399h97zM249 809v-89h-87v89h87zM388 809v-89h-87v89h87z" />
    <glyph glyph-name="uni2006" unicode="&#x2006;" horiz-adv-x="67" 
 />
    <glyph glyph-name="uni2007" unicode="&#x2007;" horiz-adv-x="556" 
 />
    <glyph glyph-name="uni2011" unicode="&#x2011;" horiz-adv-x="140" 
d="M140 298v-90h-140v90h140z" />
    <glyph glyph-name="figuredash" unicode="&#x2012;" horiz-adv-x="380" 
d="M338 298v-90h-295v90h295z" />
    <glyph glyph-name="endash" unicode="&#x2013;" horiz-adv-x="380" 
d="M338 298v-90h-295v90h295z" />
    <glyph glyph-name="emdash" unicode="&#x2014;" horiz-adv-x="429" 
d="M429 298v-90h-429v90h429z" />
    <glyph glyph-name="afii00208" unicode="&#x2015;" horiz-adv-x="429" 
d="M429 298v-90h-429v90h429z" />
    <glyph glyph-name="underscoredbl" unicode="&#x2017;" 
d="M0 -58h500v-44h-500v44zM0 -174h500v-45h-500v45z" />
    <glyph glyph-name="quoteleft" unicode="&#x2018;" horiz-adv-x="190" 
d="M47 448v103l52 116h45l-35 -116h35v-103h-97z" />
    <glyph glyph-name="quoteright" unicode="&#x2019;" horiz-adv-x="190" 
d="M144 667v-103l-52 -116h-45l35 116h-35v103h97z" />
    <glyph glyph-name="quotesinglbase" unicode="&#x201a;" horiz-adv-x="190" 
d="M144 103v-103l-52 -116h-45l35 116h-35v103h97z" />
    <glyph glyph-name="quotedblleft" unicode="&#x201c;" horiz-adv-x="327" 
d="M183 448v103l52 116h45l-35 -116h35v-103h-97zM47 448v103l52 116h45l-35 -116h35v-103h-97z" />
    <glyph glyph-name="quotedblright" unicode="&#x201d;" horiz-adv-x="327" 
d="M144 667v-103l-52 -116h-45l35 116h-35v103h97zM280 667v-103l-52 -116h-45l35 116h-35v103h97z" />
    <glyph glyph-name="quotedblbase" unicode="&#x201e;" horiz-adv-x="327" 
d="M144 103v-103l-52 -116h-45l35 116h-35v103h97zM280 103v-103l-52 -116h-45l35 116h-35v103h97z" />
    <glyph glyph-name="dagger" unicode="&#x2020;" horiz-adv-x="388" 
d="M348 502v-82h-109v-420h-90v420h-109v82h109v165h90v-165h109z" />
    <glyph glyph-name="daggerdbl" unicode="&#x2021;" horiz-adv-x="388" 
d="M348 502v-82h-109v-173h109v-82h-109v-165h-90v165h-109v82h109v173h-109v82h109v165h90v-165h109z" />
    <glyph glyph-name="bullet" unicode="&#x2022;" horiz-adv-x="667" 
d="M337 478q55 0 95.5 -41t40.5 -97q0 -58 -40.5 -98.5t-97.5 -40.5t-98 40.5t-41 97.5q0 58 41 98.5t100 40.5z" />
    <glyph glyph-name="ellipsis" unicode="&#x2026;" horiz-adv-x="540" 
d="M139 103v-103h-97v103h97zM319 103v-103h-97v103h97zM499 103v-103h-97v103h97z" />
    <glyph glyph-name="perthousand" unicode="&#x2030;" horiz-adv-x="748" 
d="M203 576v-148q0 -49 -17 -71q-22 -30 -64 -30q-43 0 -65 30q-17 22 -17 71v148q0 49 17 71q22 30 65 30q42 0 64 -30q17 -22 17 -71zM97 576v-148q0 -31 5 -40.5t20 -9.5q14 0 19 10t5 40v148q0 30 -5 40t-19 10q-15 0 -20 -9.5t-5 -40.5zM380 667h60l-288 -667h-60z
M492 239v-147q0 -49 -17 -71q-22 -31 -64 -31t-65 31q-17 22 -17 71v147q0 49 17 71q22 30 65 30q42 0 64 -30q17 -22 17 -71zM386 240v-149q0 -31 5 -40.5t20 -9.5q14 0 19 10t5 40v149q0 30 -5 39.5t-19 9.5q-15 0 -20 -9.5t-5 -39.5zM708 239v-147q0 -49 -17 -71
q-22 -31 -64 -31t-65 31q-17 22 -17 71v147q0 49 17 71q22 30 65 30q42 0 64 -30q17 -22 17 -71zM602 240v-149q0 -31 5 -40.5t20 -9.5q14 0 19 10t5 40v149q0 30 -5 39.5t-19 9.5q-15 0 -20 -9.5t-5 -39.5z" />
    <glyph glyph-name="guilsinglleft" unicode="&#x2039;" horiz-adv-x="170" 
d="M130 100l-90 82v143l90 82v-120l-31 -34l31 -34v-119z" />
    <glyph glyph-name="guilsinglright" unicode="&#x203a;" horiz-adv-x="170" 
d="M40 407l90 -82v-143l-90 -82v119l31 34l-31 34v120z" />
    <glyph glyph-name="exclamdbl" unicode="&#x203c;" horiz-adv-x="412" 
d="M149 667v-177l-24 -296h-49l-23 295v178h96zM150 128v-128h-99v128h99zM359 667v-177l-24 -296h-49l-23 295v178h96zM361 128v-128h-99v128h99z" />
    <glyph glyph-name="uni203E" unicode="&#x203e;" 
d="M0 859h500v-60h-500v60z" />
    <glyph glyph-name="fraction" unicode="&#x2044;" horiz-adv-x="86" 
d="M-93 -33l223 733h50l-227 -733h-46z" />
    <glyph glyph-name="zerosuperior" unicode="&#x2070;" horiz-adv-x="260" 
d="M226 554v-174q0 -58 -20 -83q-28 -36 -76 -36q-49 0 -76 36q-20 27 -20 83v174q0 56 20 83q27 36 76 36q48 0 76 -36q20 -25 20 -83zM100 555v-176q0 -36 6 -47.5t24 -11.5q17 0 23 11.5t6 47.5v176q0 35 -6 47t-23 12q-18 0 -24 -12t-6 -47z" />
    <glyph glyph-name="foursuperior" unicode="&#x2074;" horiz-adv-x="260" 
d="M131 363h-110v57l109 247h65v-245h39v-59h-39v-96h-64v96zM133 420v143l-58 -143h58z" />
    <glyph glyph-name="fivesuperior" unicode="&#x2075;" horiz-adv-x="260" 
d="M211 667v-59h-109l-3 -84q21 22 53 22q37 0 54 -24t17 -77v-71q0 -59 -23 -85q-26 -29 -72 -29q-96 0 -96 111v13h67q-1 -5 -1 -11q0 -54 30 -54q16 0 22 11t6 42v64q0 33 -4 42t-20 9q-23 0 -34 -32l-61 4l7 208h167z" />
    <glyph glyph-name="sixsuperior" unicode="&#x2076;" horiz-adv-x="260" 
d="M223 555h-67v17q0 42 -27 42q-15 0 -21 -11t-6 -39v-71q20 23 53 23q72 0 72 -86v-54q0 -56 -23 -83q-29 -32 -73 -32t-73 32q-23 27 -23 83v179q0 63 26 90q26 28 69 28t68 -28t25 -77v-13zM102 433v-65q0 -26 6.5 -37t22.5 -11t22.5 11t6.5 38v52q0 38 -23 38
q-24 0 -35 -26z" />
    <glyph glyph-name="sevensuperior" unicode="&#x2077;" horiz-adv-x="260" 
d="M34 667h184v-44l-79 -356h-67l78 341h-116v59z" />
    <glyph glyph-name="eightsuperior" unicode="&#x2078;" horiz-adv-x="260" 
d="M187 480q40 -23 40 -95q0 -124 -96 -124q-97 0 -97 123q0 73 40 96q-34 28 -34 86q0 52 23.5 79.5t67.5 27.5q43 0 66.5 -27.5t23.5 -79.5q0 -58 -34 -86zM130 614q-27 0 -27 -52q0 -53 28 -53q27 0 27 52q0 53 -28 53zM131 445q-16 0 -22.5 -13.5t-6.5 -48.5
q0 -36 6 -49.5t23 -13.5q16 0 22 13.5t6 47.5q0 37 -6 50.5t-22 13.5z" />
    <glyph glyph-name="ninesuperior" unicode="&#x2079;" horiz-adv-x="260" 
d="M37 378h67v-16q0 -43 27 -43q15 0 21 11t6 39v71q-20 -22 -53 -22q-72 0 -72 85v54q0 57 23 84q29 32 73 32t73 -32q23 -27 23 -84v-179q0 -63 -26 -90q-26 -28 -69 -28t-68 28t-25 77v13zM158 501v65q0 26 -6.5 37t-22.5 11t-22.5 -11t-6.5 -38v-52q0 -22 5 -30t18 -8
q24 0 35 26z" />
    <glyph glyph-name="zeroinferior" unicode="&#x2080;" horiz-adv-x="260" 
d="M226 287v-174q0 -58 -20 -83q-28 -36 -76 -36q-49 0 -76 36q-20 27 -20 83v174q0 56 20 83q27 36 76 36q48 0 76 -36q20 -25 20 -83zM100 288v-176q0 -36 6 -47.5t24 -11.5q17 0 23 11.5t6 47.5v176q0 35 -6 47t-23 12q-18 0 -24 -12t-6 -47z" />
    <glyph glyph-name="oneinferior" unicode="&#x2081;" horiz-adv-x="260" 
d="M173 400v-400h-67v309h-52v43q39 8 74 48h45z" />
    <glyph glyph-name="twoinferior" unicode="&#x2082;" horiz-adv-x="260" 
d="M224 59v-59h-191v58q74 101 101.5 154.5t27.5 95.5q0 39 -27 39q-33 0 -33 -57v-14h-65q-1 7 -1 17q0 55 25.5 84t74.5 29q44 0 69 -27t25 -73q0 -44 -26.5 -97.5t-96.5 -149.5h117z" />
    <glyph glyph-name="threeinferior" unicode="&#x2083;" horiz-adv-x="260" 
d="M98 178v59q37 1 47.5 11.5t10.5 45.5q0 53 -26 53q-14 0 -20 -10.5t-6 -37.5q0 -8 1 -13h-65v12q0 50 24.5 79t67.5 29q41 0 64 -29t23 -82q0 -66 -34 -87q40 -23 40 -96q0 -118 -94 -118q-46 0 -71 28.5t-25 81.5v15h66q-1 -6 -1 -15q0 -51 30 -51q17 0 23.5 13.5
t6.5 47.5q0 40 -11.5 52t-50.5 12z" />
    <glyph glyph-name="fourinferior" unicode="&#x2084;" horiz-adv-x="260" 
d="M131 96h-110v57l109 247h65v-245h39v-59h-39v-96h-64v96zM133 153v143l-58 -143h58z" />
    <glyph glyph-name="fiveinferior" unicode="&#x2085;" horiz-adv-x="260" 
d="M211 400v-59h-109l-3 -84q22 22 53 22q37 0 54 -23.5t17 -76.5v-71q0 -59 -23 -85q-26 -29 -72 -29q-96 0 -96 111v13h67q-1 -5 -1 -11q0 -54 30 -54q16 0 22 11t6 42v63q0 33 -4 42t-20 9q-23 0 -34 -32l-61 4l7 208h167z" />
    <glyph glyph-name="sixinferior" unicode="&#x2086;" horiz-adv-x="260" 
d="M223 288h-67v17q0 42 -27 42q-15 0 -21 -11t-6 -39v-71q21 23 53 23q72 0 72 -86v-54q0 -56 -23 -83q-29 -32 -73 -32t-73 32q-23 27 -23 83v179q0 63 26 90q26 28 69 28t68 -28t25 -77v-13zM102 166v-65q0 -26 6.5 -37t22.5 -11t22.5 11t6.5 38v52q0 38 -23 38
q-24 0 -35 -26z" />
    <glyph glyph-name="seveninferior" unicode="&#x2087;" horiz-adv-x="260" 
d="M34 400h184v-44l-79 -356h-67l78 341h-116v59z" />
    <glyph glyph-name="eightinferior" unicode="&#x2088;" horiz-adv-x="260" 
d="M187 213q40 -23 40 -95q0 -124 -96 -124q-97 0 -97 123q0 73 40 96q-34 28 -34 86q0 52 23.5 79.5t67.5 27.5q43 0 66.5 -27.5t23.5 -79.5q0 -58 -34 -86zM130 347q-27 0 -27 -52q0 -53 28 -53q27 0 27 52q0 53 -28 53zM131 178q-16 0 -22.5 -13.5t-6.5 -48.5
q0 -36 6 -49.5t23 -13.5q16 0 22 13.5t6 47.5q0 37 -6 50.5t-22 13.5z" />
    <glyph glyph-name="nineinferior" unicode="&#x2089;" horiz-adv-x="260" 
d="M37 112h67v-16q0 -43 27 -43q15 0 21 11t6 39v71q-20 -22 -53 -22q-72 0 -72 85v54q0 57 23 83q29 32 73 32t73 -32q23 -26 23 -83v-179q0 -63 -26 -90q-26 -28 -69 -28t-68 28t-25 77v13zM158 234v65q0 26 -6.5 37t-22.5 11t-22.5 -11t-6.5 -37v-53q0 -21 5 -29t18 -8
q24 0 35 25z" />
    <glyph glyph-name="franc" unicode="&#x20a3;" horiz-adv-x="580" 
d="M314 667v-93h-169v-182h123v-93h-123v-299h-100v667h269zM369 497h90v-71q23 41 48 59t60 19v-99q-16 5 -31 5q-36 0 -56 -25q-21 -25 -21 -84v-301h-90v497z" />
    <glyph glyph-name="lira" unicode="&#x20a4;" horiz-adv-x="607" 
d="M364 372v-35h-110q22 -45 28 -81h83v-35h-88q-4 -43 -22.5 -73.5t-60.5 -64.5q14 6 17 7q40 18 73 18q21 0 38.5 -4.5t78.5 -25.5q18 -7 42 -7q63 0 115 63l36 -79q-74 -71 -152 -71q-39 0 -106 26q-61 23 -91 23q-49 0 -105 -42l-51 73q43 28 69.5 70t28.5 87h-113v35
h110q-12 44 -36 81h-74v35h53q-34 63 -34 105q0 41 20.5 79t56.5 64q62 46 167 46q146 0 205 -93q32 -50 35 -144h-90q-2 81 -38 119.5t-109 38.5q-64 0 -104.5 -31.5t-40.5 -81.5q0 -23 7.5 -42t32.5 -60h129z" />
    <glyph glyph-name="peseta" unicode="&#x20a7;" horiz-adv-x="666" 
d="M350 380h49v-80h45v-55h-45v-143q0 -28 5 -37t20 -9q5 0 20 3v-57q-26 -6 -42 -6q-35 0 -52 23q-15 17 -15 63v163h-35v55h35v42q-22 -37 -55 -51.5t-95 -14.5h-40v-276h-100v667h140q89 0 126 -36q48 -47 48 -154q0 -45 -9 -97zM145 369h32q49 0 65 20.5t16 81.5
q0 62 -16 82.5t-65 20.5h-32v-205zM649 225l-61 -13q-5 22 -10.5 29.5t-17.5 7.5q-22 0 -22 -23q0 -11 7.5 -20.5t31.5 -26.5q46 -33 60 -52.5t14 -49.5q0 -37 -24 -59t-64 -22q-80 0 -95 90l60 13q7 -28 14.5 -38t21.5 -10q23 0 23 24q0 13 -7 21.5t-29 24.5
q-46 33 -61.5 54t-15.5 49q0 36 24.5 58t63.5 22q74 0 87 -79z" />
    <glyph glyph-name="Euro" unicode="&#x20ac;" horiz-adv-x="380" 
d="M63 403v43q0 79 7.5 113.5t32.5 64.5q42 53 117 53q55 0 95.5 -30t54.5 -83q5 -20 6 -74h-101q0 7 -0.5 16t-1 15t-0.5 10q-3 24 -17.5 38.5t-36.5 14.5q-40 0 -51 -44q-5 -22 -5 -101v-36h160l-26 -62h-134v-34h120l-26 -62h-94v-17q0 -87 7 -107q13 -38 49 -38
q40 0 51 44q3 11 4 41h102q-2 -45 -11 -72q-16 -50 -54.5 -78t-90.5 -28q-75 0 -117 53q-25 30 -32.5 64.5t-7.5 113.5v24h-68l26 62h42v34h-68l26 62h42z" />
    <glyph glyph-name="uni2101" unicode="&#x2101;" horiz-adv-x="647" 
d="M173 353h-63l-14 -86h-69l70 400h87l75 -400h-72zM164 415l-23 152l-23 -152h46zM196 -33l223 733h50l-226 -733h-47zM603 306l-68 -10q-3 28 -9.5 38t-23.5 10q-32 0 -32 -36q0 -19 11 -35t44 -44q50 -43 66 -68.5t16 -62.5q0 -46 -28.5 -75t-74.5 -29q-49 0 -77.5 30
t-30.5 83l67 10q1 -61 41 -61q16 0 25.5 10.5t9.5 28.5q0 20 -11.5 35.5t-52.5 51.5q-41 35 -57 62.5t-16 60.5q0 46 28 73.5t74 27.5q87 0 99 -100z" />
    <glyph glyph-name="afii61248" unicode="&#x2105;" horiz-adv-x="190" 
d="M144 392v-103h-97v103h97z" />
    <glyph glyph-name="afii61289" unicode="&#x2113;" 
d="M248 264q-28 -152 -28 -200q0 -25 17 -25q12 0 22 11.5t24 40.5q9 19 21 19q15 0 15 -17q0 -22 -21 -56q-35 -56 -83 -56q-74 0 -74 100q0 33 7 107q-39 -43 -52 -43q-5 0 -9.5 6.5t-4.5 13.5q0 13 18 28q22 22 55 62q40 216 89 317.5t113 101.5q31 0 50 -23.5t19 -62.5
q0 -86 -65 -190q-32 -49 -113 -134zM257 323q67 74 98 152q27 66 27 114q0 15 -7 25t-17 10q-29 0 -51 -66t-50 -235z" />
    <glyph glyph-name="uni2117" unicode="&#x2117;" horiz-adv-x="121" 
d="M93 566v-299h-64v299h64zM93 667v-60h-64v60h64z" />
    <glyph glyph-name="trademark" unicode="&#x2122;" horiz-adv-x="553" 
d="M154 608v-321h-65v321h-62v59h189v-59h-62zM514 287h-61v233l-55 -233h-35l-57 234v-234h-61v380h84l52 -214l48 214h85v-380z" />
    <glyph glyph-name="uni2126" unicode="&#x2126;" horiz-adv-x="666" 
d="M28 0v81h172q-174 103 -174 284q0 134 89 226t218 92t218.5 -92.5t89.5 -225.5q0 -181 -174 -284h172v-81h-263v75q63 35 101 81q70 85 70 193q0 106 -62 179t-151 73q-90 0 -152 -73t-62 -179q0 -180 170 -274v-75h-262z" />
    <glyph glyph-name="onethird" unicode="&#x2153;" horiz-adv-x="606" 
d="M173 667v-400h-67v309h-52v43q39 8 74 48h45zM167 -33l222 733h51l-227 -733h-46zM444 178v59q37 1 47.5 11.5t10.5 45.5q0 53 -26 53q-14 0 -20 -10.5t-6 -37.5q0 -8 1 -13h-65v12q0 50 24.5 79t67.5 29q41 0 64 -29t23 -82q0 -66 -34 -87q40 -23 40 -96
q0 -118 -94 -118q-46 0 -71 28.5t-25 81.5v15h66q-1 -6 -1 -15q0 -51 30 -51q17 0 23.5 13.5t6.5 47.5q0 40 -11.5 52t-50.5 12z" />
    <glyph glyph-name="twothirds" unicode="&#x2154;" horiz-adv-x="606" 
d="M224 325v-59h-191v58q74 101 101.5 154.5t27.5 96.5q0 39 -27 39q-33 0 -33 -57v-14h-65q-1 7 -1 17q0 55 25.5 84t74.5 29q44 0 69 -27t25 -73q0 -45 -26.5 -98t-96.5 -150h117zM167 -33l223 733h50l-227 -733h-46zM444 178v59q37 1 47.5 11.5t10.5 45.5q0 53 -26 53
q-14 0 -20 -10.5t-6 -37.5q0 -8 1 -13h-65v12q0 50 24.5 79t67.5 29q41 0 64 -29t23 -82q0 -66 -34 -87q40 -23 40 -96q0 -118 -94 -118q-46 0 -71 28.5t-25 81.5v15h66q-1 -6 -1 -15q0 -51 30 -51q17 0 23.5 13.5t6.5 47.5q0 40 -11.5 52t-50.5 12z" />
    <glyph glyph-name="oneeighth" unicode="&#x215b;" horiz-adv-x="606" 
d="M173 667v-400h-67v309h-52v43q39 8 74 48h45zM167 -33l222 733h51l-227 -733h-46zM533 213q40 -23 40 -95q0 -124 -96 -124q-97 0 -97 123q0 73 40 96q-35 28 -35 86q0 52 23.5 79.5t67.5 27.5t67.5 -27.5t23.5 -79.5q0 -58 -34 -86zM476 347q-28 0 -28 -52q0 -53 28 -53
t28 52q0 53 -28 53zM477 178q-16 0 -22.5 -13.5t-6.5 -48.5q0 -36 6 -49.5t23 -13.5q16 0 22 13.5t6 47.5q0 37 -6 50.5t-22 13.5z" />
    <glyph glyph-name="threeeighths" unicode="&#x215c;" horiz-adv-x="606" 
d="M98 445v59q37 1 47.5 11.5t10.5 45.5q0 53 -26 53q-14 0 -20 -10.5t-6 -37.5q0 -8 1 -13h-65v12q0 50 24.5 79t67.5 29q41 0 64 -29t23 -82q0 -66 -34 -87q40 -23 40 -96q0 -118 -94 -118q-46 0 -71 28.5t-25 81.5v15h66q-1 -6 -1 -15q0 -51 30 -51q17 0 23.5 13.5
t6.5 47.5q0 40 -11.5 52t-50.5 12zM167 -33l222 733h51l-227 -733h-46zM533 213q40 -23 40 -95q0 -124 -96 -124q-97 0 -97 123q0 73 40 96q-34 28 -34 86q0 52 23.5 79.5t67.5 27.5q43 0 66.5 -27.5t23.5 -79.5q0 -58 -34 -86zM476 347q-27 0 -27 -52q0 -53 28 -53
q27 0 27 52q0 53 -28 53zM477 178q-16 0 -22.5 -13.5t-6.5 -48.5q0 -36 6 -49.5t23 -13.5q16 0 22 13.5t6 47.5q0 37 -6 50.5t-22 13.5z" />
    <glyph glyph-name="fiveeighths" unicode="&#x215d;" horiz-adv-x="606" 
d="M211 667v-59h-108l-3 -84q21 22 53 22q34 0 52 -23q19 -23 19 -78v-71q0 -114 -95 -114q-96 0 -96 111v13h67q-1 -5 -1 -11q0 -54 30 -54q16 0 22 11t6 42v64q0 33 -4 42t-20 9q-23 0 -34 -32l-61 4l7 208h166zM167 -33l222 733h51l-227 -733h-46zM533 213q40 -23 40 -95
q0 -124 -96 -124q-97 0 -97 123q0 73 40 96q-34 28 -34 86q0 52 23.5 79.5t67.5 27.5q43 0 66.5 -27.5t23.5 -79.5q0 -58 -34 -86zM476 347q-27 0 -27 -52q0 -53 28 -53q27 0 27 52q0 53 -28 53zM477 178q-16 0 -22.5 -13.5t-6.5 -48.5q0 -36 6 -49.5t23 -13.5q16 0 22 13.5
t6 47.5q0 37 -6 50.5t-22 13.5z" />
    <glyph glyph-name="seveneighths" unicode="&#x215e;" horiz-adv-x="606" 
d="M34 667h184v-44l-79 -356h-67l78 341h-116v59zM167 -33l223 733h50l-227 -733h-46zM533 213q40 -23 40 -95q0 -124 -96 -124q-97 0 -97 123q0 73 40 96q-34 28 -34 86q0 52 23.5 79.5t67.5 27.5t67.5 -27.5t23.5 -79.5q0 -58 -35 -86zM477 347q-28 0 -28 -52
q0 -53 28 -53t28 52q0 53 -28 53zM477 178q-16 0 -22.5 -13.5t-6.5 -48.5q0 -36 6 -49.5t23 -13.5q16 0 22 13.5t6 47.5q0 37 -6 50.5t-22 13.5z" />
    <glyph glyph-name="arrowleft" unicode="&#x2190;" horiz-adv-x="667" 
d="M653 363v-51h-500q15 -19 33.5 -56t18.5 -48q0 -14 -15 -14q-8 0 -22 17q-46 55 -132 103q-23 13 -23 21q0 10 16 19q62 37 87.5 57.5t57.5 58.5q8 9 16 9q15 0 15 -15q0 -29 -52 -101h500z" />
    <glyph glyph-name="arrowup" unicode="&#x2191;" horiz-adv-x="667" 
d="M360 13h-51v500q-18 -15 -55.5 -33.5t-48.5 -18.5q-14 0 -14 15q0 8 17 23q53 44 103 132q13 23 21 23q10 0 19 -17q37 -61 57.5 -87t58.5 -58q9 -8 9 -16q0 -15 -15 -15q-29 0 -101 52v-500z" />
    <glyph glyph-name="arrowright" unicode="&#x2192;" horiz-adv-x="667" 
d="M13 310v51h500q-15 20 -33.5 57t-18.5 48q0 14 15 14q8 0 22 -17q46 -54 132 -104q23 -13 23 -21q0 -10 -16 -19q-62 -38 -87.5 -58t-57.5 -58q-9 -9 -16 -9q-15 0 -15 15q0 29 52 101h-500z" />
    <glyph glyph-name="arrowdown" unicode="&#x2193;" horiz-adv-x="667" 
d="M307 653h51v-500q19 16 56 34t48 18q14 0 14 -15q0 -8 -17 -22q-55 -47 -103 -132q-13 -23 -21 -23q-10 0 -19 16q-37 62 -57 87t-59 58q-9 8 -9 16q0 15 15 15q27 0 101 -52v500z" />
    <glyph glyph-name="arrowboth" unicode="&#x2194;" horiz-adv-x="667" 
d="M513 310h-361q22 -29 37.5 -59t15.5 -42q0 -15 -15 -15q-6 0 -8.5 2.5t-15.5 16.5q-28 32 -55.5 53.5t-87.5 56.5q-10 6 -10 15q0 8 23 20q87 51 132 104q14 17 22 17q15 0 15 -14q0 -11 -18.5 -47.5t-34.5 -56.5h361q-15 19 -33.5 56t-18.5 48q0 14 15 14q8 0 22 -17
q46 -54 132 -104q23 -12 23 -20q0 -10 -16 -19q-62 -38 -87.5 -58t-57.5 -58q-8 -9 -16 -9q-15 0 -15 15q0 29 52 101z" />
    <glyph glyph-name="arrowupdn" unicode="&#x2195;" horiz-adv-x="667" 
d="M360 513v-361q29 22 59 38t42 16q15 0 15 -15q0 -6 -2.5 -8.5t-16.5 -15.5q-33 -29 -53.5 -56t-56.5 -88q-6 -10 -15 -10q-8 0 -20 23q-50 88 -104 132q-17 15 -17 23q0 15 14 15q11 0 48 -19t56 -35v361q-19 -15 -56 -33.5t-48 -18.5q-14 0 -14 15q0 8 17 23
q55 46 104 132q12 23 20 23q10 0 19 -17q37 -61 57.5 -87t58.5 -58q9 -8 9 -16q0 -15 -15 -15q-29 0 -101 52z" />
    <glyph glyph-name="arrowupdnbse" unicode="&#x21a8;" horiz-adv-x="667" 
d="M360 513v-361q29 22 59 38t42 16q15 0 15 -15q0 -6 -2.5 -8.5t-16.5 -15.5q-33 -29 -53.5 -56t-56.5 -88q-6 -10 -15 -10q-7 0 -21 23q-47 86 -103 132q-17 15 -17 23q0 15 14 15q11 0 47.5 -19t56.5 -35v361q-18 -14 -55.5 -33t-48.5 -19q-14 0 -14 15q0 8 17 23
q55 46 104 132q12 23 20 23q10 0 19 -17q37 -61 57.5 -87t58.5 -58q9 -8 9 -16q0 -15 -15 -15q-29 0 -101 52zM201 -68h264v-43h-264v43z" />
    <glyph glyph-name="partialdiff" unicode="&#x2202;" 
d="M79 595l11 74q87 -11 145.5 -35.5t107.5 -69.5q128 -119 128 -319q0 -97 -40 -158q-31 -46 -78.5 -71.5t-102.5 -25.5q-93 0 -157 65t-64 159q0 92 59.5 156t145.5 64q61 0 100 -27q12 -8 42 -41q-1 3 -3 7.5t-3.5 7t-1.5 3.5q-12 23 -25 55q-33 63 -103.5 104.5
t-160.5 51.5zM255 364q-60 0 -101.5 -43.5t-41.5 -107.5q0 -61 40.5 -105t96.5 -44q58 0 97.5 44t39.5 109q0 63 -37.5 105t-93.5 42z" />
    <glyph glyph-name="emptyset" unicode="&#x2205;" horiz-adv-x="618" 
d="M439 667l48 -25l-48 -88q113 -80 113 -204q0 -102 -72 -172.5t-176 -70.5q-46 0 -79 16l-63 -123l-48 25l61 122q-108 79 -108 202q0 102 71 172.5t173 70.5q39 0 81 -14zM416 502l-165 -330q32 -8 58 -8q77 0 132 54.5t55 130.5q0 47 -21.5 89t-58.5 64zM200 198
l166 329q-28 8 -54 8q-78 0 -133.5 -54.5t-55.5 -130.5q0 -90 77 -152z" />
    <glyph glyph-name="Delta" unicode="&#x2206;" horiz-adv-x="629" 
d="M7 0l259 667h96l260 -667h-615zM127 81h374l-186 487z" />
    <glyph glyph-name="product" unicode="&#x220f;" horiz-adv-x="667" 
d="M25 750h617v-75h-73v-850h73v-75h-231v75h74v850h-303v-850h72v-75h-229v75h74v850h-74v75z" />
    <glyph glyph-name="summation" unicode="&#x2211;" horiz-adv-x="667" 
d="M603 750v-235h-84l-10 149h-372l248 -395l-247 -434h381l5 152h88v-237h-578v99l241 420l-241 383v98h569z" />
    <glyph glyph-name="minus" unicode="&#x2212;" horiz-adv-x="380" 
d="M338 379v-78h-295v78h295z" />
    <glyph glyph-name="uni2218" unicode="&#x2218;" 
d="M253 480q55 0 95 -41t40 -98q0 -58 -40 -99t-97 -41t-97.5 41t-40.5 98q0 58 40.5 99t99.5 41zM252 432q-38 0 -65 -26.5t-27 -65.5q0 -38 27 -64.5t64 -26.5t63.5 26.5t26.5 64.5q0 37 -26.5 64.5t-62.5 27.5z" />
    <glyph glyph-name="radical" unicode="&#x221a;" horiz-adv-x="667" 
d="M667 827v-78h-187l-215 -749h-104l-79 284h-82v78h136l39 -132q5 -18 30 -137h5l2 10t2 7.5t1 3.5q6 24 16.5 67.5t14.5 60.5q14 57 28 104l27 95l111 386h255z" />
    <glyph glyph-name="infinity" unicode="&#x221e;" horiz-adv-x="667" 
d="M335 295q-75 -107 -166 -107q-66 0 -108 43t-42 111q0 66 42.5 108.5t108.5 42.5q90 0 163 -107q72 107 166 107q67 0 108.5 -42.5t41.5 -110.5q0 -67 -42 -109.5t-107 -42.5q-94 0 -165 107zM367 341q33 -50 61.5 -71.5t63.5 -21.5q38 0 63 26t25 66t-25.5 66.5
t-63.5 26.5q-34 0 -62.5 -21t-61.5 -71zM300 340q-32 50 -61 71.5t-63 21.5q-38 0 -63 -26t-25 -66q0 -41 25 -67t64 -26q34 0 61.5 21t61.5 71z" />
    <glyph glyph-name="orthogonal" unicode="&#x221f;" horiz-adv-x="341" 
d="M20 489h302v-63h-302v63z" />
    <glyph glyph-name="intersection" unicode="&#x2229;" horiz-adv-x="571" 
d="M537 0h-93v314q0 91 -5.5 131.5t-21.5 66.5q-20 32 -55.5 51.5t-75.5 19.5q-44 0 -81.5 -22t-55.5 -59q-22 -41 -22 -188v-314h-93v312q0 124 8 170.5t36 84.5q74 100 207 100q71 0 128.5 -30.5t90.5 -86.5q20 -34 26.5 -80t6.5 -158v-312z" />
    <glyph glyph-name="union" unicode="&#x222a;" horiz-adv-x="571" 
d="M34 667h93v-314q0 -91 5.5 -131.5t21.5 -66.5q20 -32 55.5 -51.5t75.5 -19.5q44 0 81.5 22t55.5 59q22 41 22 188v314h93v-312q0 -123 -8 -170t-36 -85q-72 -100 -207 -100q-71 0 -129 31t-90 86q-20 34 -26.5 80t-6.5 158v312z" />
    <glyph glyph-name="integral" unicode="&#x222b;" 
d="M85 -239l18 87q23 -11 40 -11q42 0 53 35q5 15 5 94v552q1 86 2 104t7 39q11 41 48 65t88 24q30 0 70 -10l-18 -87q-22 9 -41 9q-41 0 -52 -34q-5 -14 -5 -66v-577q0 -96 -4.5 -125.5t-21.5 -53.5q-40 -54 -138 -54q-28 0 -51 9z" />
    <glyph glyph-name="uni222E" unicode="&#x222e;" 
d="M83 -239l18 87q26 -10 46 -10q41 0 52 34q5 17 5 69v140q-60 10 -101 61.5t-41 116.5q0 66 39 114.5t103 62.5v134q0 84 22 121q35 59 115 59q31 0 73 -10l-18 -87q-26 9 -46 9q-40 0 -51 -34q-5 -12 -5 -60v-132q46 -9 75 -32q69 -55 69 -145q0 -67 -40.5 -117.5
t-103.5 -60.5v-144q0 -57 -3.5 -80.5t-16.5 -45.5q-35 -61 -125 -61q-38 0 -66 11zM294 390v-262q46 11 72 46t26 85q0 48 -27.5 85t-70.5 46zM204 128v261q-43 -9 -69.5 -45.5t-26.5 -84.5q0 -47 27.5 -84t68.5 -47z" />
    <glyph glyph-name="uni2236" unicode="&#x2236;" horiz-adv-x="190" 
d="M134 249v-84h-78v84h78zM134 516v-84h-78v84h78z" />
    <glyph glyph-name="similar" unicode="&#x223c;" 
d="M60 254l-50 40q53 119 139 119q38 0 115 -38q66 -31 88 -31q26 0 46 16.5t42 54.5l50 -40q-51 -119 -143 -119q-21 0 -42.5 8t-79.5 36q-53 25 -80 25q-45 0 -85 -71z" />
    <glyph glyph-name="approxequal" unicode="&#x2248;" 
d="M60 348l-50 35q53 119 139 119q38 0 115 -38q64 -31 89 -31q26 0 43.5 13.5t43.5 52.5l50 -35q-51 -118 -148 -118q-19 0 -40 7.5t-77 35.5q-53 25 -80 25q-24 0 -42.5 -14.5t-42.5 -51.5zM60 165l-50 35q53 119 139 119q38 0 115 -38q63 -31 89 -31t43.5 13.5t43.5 51.5
l50 -35q-51 -117 -148 -117q-20 0 -39 7t-78 36q-53 25 -80 25q-24 0 -42.5 -14.5t-42.5 -51.5z" />
    <glyph glyph-name="notequal" unicode="&#x2260;" horiz-adv-x="380" 
d="M281 456h57v-78h-88l-31 -76h119v-78h-150l-33 -80l-72 29l21 51h-61v78h92l31 76h-123v78h154l32 78l72 -29z" />
    <glyph glyph-name="equivalence" unicode="&#x2261;" 
d="M33 550h433v-86h-433v86zM33 376h433v-86h-433v86zM33 202h433v-86h-433v86z" />
    <glyph glyph-name="lessequal" unicode="&#x2264;" 
d="M466 608v-92l-326 -123l326 -122v-92l-433 173v83zM466 151v-86h-433v86h433z" />
    <glyph glyph-name="greaterequal" unicode="&#x2265;" 
d="M33 179v92l326 122l-326 123v92l433 -173v-83zM33 65v86h433v-86h-433z" />
    <glyph glyph-name="dotmath" unicode="&#x22c5;" horiz-adv-x="180" 
d="M139 305v-103h-97v103h97z" />
    <glyph glyph-name="house" unicode="&#x2302;" horiz-adv-x="751" 
d="M84 0v401l291 328l292 -328v-401h-583zM135 51h481v328l-241 270l-240 -270v-328z" />
    <glyph glyph-name="revlogicalnot" unicode="&#x2310;" 
d="M128 0h-95v281h433v-86h-338v-195z" />
    <glyph glyph-name="uni2319" unicode="&#x2319;" 
d="M128 281v-195h338v-86h-433v281h95z" />
    <glyph glyph-name="integraltp" unicode="&#x2320;" 
d="M299 -250h-99v768q1 86 2 104t7 39q12 41 48.5 65t87.5 24q30 0 70 -10l-18 -87q-22 9 -41 9q-40 0 -52 -34q-5 -12 -5 -66v-812z" />
    <glyph glyph-name="integralbt" unicode="&#x2321;" 
d="M201 750h99v-768q-1 -86 -2 -103.5t-7 -39.5q-11 -41 -48 -65t-88 -24q-31 0 -70 11l18 87q21 -10 41 -10q41 0 52 34q5 14 5 66v812z" />
    <glyph glyph-name="filledbox" unicode="&#x25a0;" horiz-adv-x="667" 
d="M667 0h-667v667h667v-667z" />
    <glyph glyph-name="uni25A1" unicode="&#x25a1;" horiz-adv-x="667" 
d="M667 0h-667v667h667v-667zM620 47v573h-573v-573h573z" />
    <glyph glyph-name="H18551" unicode="&#x25ab;" horiz-adv-x="341" 
d="M20 489h117v114h68v-114h117v-63h-117v-115h-68v115h-117v63z" />
    <glyph glyph-name="filledrect" unicode="&#x25ac;" horiz-adv-x="667" 
d="M667 333v-333h-667v333h667z" />
    <glyph glyph-name="uni25AE" unicode="&#x25ae;" horiz-adv-x="667" 
d="M500 0h-333v667h333v-667z" />
    <glyph glyph-name="uni25AF" unicode="&#x25af;" horiz-adv-x="667" 
d="M334 589q107 0 183.5 -74.5t76.5 -180.5t-76.5 -181.5t-183.5 -75.5q-110 0 -185.5 75.5t-75.5 184.5q0 104 77 178t184 74z" />
    <glyph glyph-name="triagup" unicode="&#x25b2;" horiz-adv-x="667" 
d="M633 67h-600l300 561z" />
    <glyph glyph-name="uni25B4" unicode="&#x25b4;" 
d="M466 147h-433l217 405z" />
    <glyph glyph-name="uni25B8" unicode="&#x25b8;" 
d="M71 119v433l405 -217z" />
    <glyph glyph-name="triagdn" unicode="&#x25bc;" horiz-adv-x="667" 
d="M33 600h600l-300 -561z" />
    <glyph glyph-name="uni25BE" unicode="&#x25be;" 
d="M33 520h433l-216 -405z" />
    <glyph glyph-name="uni25C2" unicode="&#x25c2;" 
d="M428 552v-433l-405 216z" />
    <glyph glyph-name="lozenge" unicode="&#x25ca;" horiz-adv-x="667" 
d="M334 693l259 -359l-259 -360l-260 360zM334 604l-197 -270l197 -271l197 271z" />
    <glyph glyph-name="circle" unicode="&#x25cb;" horiz-adv-x="667" 
d="M334 589q107 0 183.5 -74.5t76.5 -180.5t-76.5 -181.5t-183.5 -75.5q-110 0 -185.5 75.5t-75.5 184.5q0 104 77 178t184 74zM334 543q-88 0 -151 -61t-63 -146q0 -89 62 -151t152 -62q88 0 150.5 62t62.5 149q0 86 -62.5 147.5t-150.5 61.5z" />
    <glyph glyph-name="invbullet" unicode="&#x25d8;" horiz-adv-x="667" 
d="M0 0v667h667v-667h-667zM336 473q-59 0 -99.5 -40.5t-40.5 -99.5q0 -57 40.5 -98t97.5 -41t97 41t40 99q0 57 -40 98t-95 41z" />
    <glyph glyph-name="invcircle" unicode="&#x25d9;" horiz-adv-x="667" 
d="M667 0h-667v667h667v-667zM334 590q-107 0 -184 -74t-77 -178q0 -110 75.5 -185.5t185.5 -75.5q107 0 183.5 75.5t76.5 181.5t-76.5 181t-183.5 75zM334 543q88 0 150.5 -61.5t62.5 -147.5q0 -87 -62.5 -149t-150.5 -62q-90 0 -152 62t-62 151q0 85 63 146t151 61z" />
    <glyph glyph-name="openbullet" unicode="&#x25e6;" 
d="M253 480q55 0 95 -41t40 -98q0 -58 -40 -99t-97 -41t-97.5 41t-40.5 98q0 58 40.5 99t99.5 41zM252 432q-38 0 -65 -26.5t-27 -65.5q0 -38 27 -64.5t64 -26.5t63.5 26.5t26.5 64.5q0 37 -26.5 64.5t-62.5 27.5z" />
    <glyph glyph-name="smileface" unicode="&#x263a;" horiz-adv-x="667" 
d="M339 650q127 0 219 -93.5t92 -222.5q0 -131 -92.5 -224t-223.5 -93q-132 0 -224.5 93t-92.5 226q0 131 94 222.5t228 91.5zM338 608q-126 0 -208 -91q-71 -79 -71 -181q0 -116 80 -196.5t195 -80.5q114 0 194.5 80.5t80.5 194.5q0 112 -80.5 193t-190.5 81zM241 466
q17 0 30 -13t13 -31t-13 -31t-31 -13t-31 13t-13 31q0 19 13 31.5t32 12.5zM434 465q17 0 30 -13t13 -31t-13 -31t-31 -13t-31 13t-13 31q0 19 13 31.5t32 12.5zM540 372q-4 -60 -15 -95t-35 -66q-56 -70 -156 -70q-109 0 -164 82q-20 29 -28.5 60.5t-13.5 88.5
q12 -54 42 -89q61 -70 164 -70q102 0 165 70q29 35 41 89z" />
    <glyph glyph-name="invsmileface" unicode="&#x263b;" horiz-adv-x="667" 
d="M339 650q127 0 219 -93.5t92 -222.5q0 -131 -92.5 -224t-223.5 -93q-132 0 -224.5 93t-92.5 226q0 131 94 222.5t228 91.5zM240 466q-18 0 -31 -12.5t-13 -31.5q0 -18 12.5 -31t31.5 -13q18 0 30.5 13t12.5 31t-13 31t-30 13zM434 466q-19 0 -32 -13t-13 -31
q0 -19 13 -32t31 -13t31 13t13 32q0 18 -13 31t-30 13zM540 372q-13 -55 -41 -88q-62 -71 -165 -71t-164 71q-29 33 -42 88q5 -61 15.5 -95.5t35.5 -65.5q56 -70 155 -70q111 0 165 83q20 29 28.5 61t12.5 87z" />
    <glyph glyph-name="sun" unicode="&#x263c;" horiz-adv-x="667" 
d="M159 472l-75 75l35 35l75 -74q52 41 114 47v105h50v-105q66 -8 113 -47l75 74l35 -35l-74 -74q38 -48 47 -114h105v-51h-105q-9 -64 -47 -114l74 -74l-35 -35l-75 74q-50 -40 -113 -47v-105h-50v105q-60 6 -114 47l-75 -74l-35 35l74 74q-40 51 -46 114h-105v51h105
q7 61 47 113zM336 493q-68 0 -115.5 -46t-47.5 -112q0 -67 46.5 -114t113.5 -47q66 0 112.5 47t46.5 113q0 65 -46 112t-110 47z" />
    <glyph glyph-name="female" unicode="&#x2640;" horiz-adv-x="667" 
d="M308 209v105q-68 10 -111.5 61.5t-43.5 120.5q0 76 52.5 129.5t126.5 53.5q75 0 128 -53.5t53 -129.5q0 -70 -44 -120.5t-113 -61.5v-105h163v-43h-163v-166h-48v166h-161v43h161zM335 632q-57 0 -96 -39.5t-39 -96.5q0 -56 39 -95.5t94 -39.5t94 39.5t39 95.5t-38.5 96
t-92.5 40z" />
    <glyph glyph-name="male" unicode="&#x2642;" horiz-adv-x="667" 
d="M570 499l-152 -151q36 -50 36 -110q0 -75 -53 -128.5t-127 -53.5t-127 53.5t-53 129.5q0 75 53 128.5t127 53.5q61 0 112 -39l151 151q-52 12 -106 40q-21 11 -21 23t13 12q3 0 20 -3q41 -9 83 -9q57 0 105 14l10 1q10 0 10 -10q0 -4 -5 -23q-10 -40 -10 -87q0 -43 9 -84
q3 -17 3 -20q0 -13 -12 -13q-7 0 -10.5 3.5t-12.5 17.5q-31 44 -43 104zM276 374q-57 0 -96 -39t-39 -96q0 -56 39 -95.5t94 -39.5t94 39.5t39 95.5t-38.5 95.5t-92.5 39.5z" />
    <glyph glyph-name="spade" unicode="&#x2660;" horiz-adv-x="667" 
d="M108 0v18q70 14 102 29t63 49q52 60 56 159q-12 -26 -13 -28q-20 -33 -56 -53.5t-76 -20.5q-49 0 -84.5 37t-35.5 88q0 81 104 169q142 115 164 239q26 -80 51.5 -117t99.5 -105q73 -67 97 -103.5t24 -83.5q0 -52 -35.5 -87.5t-86.5 -35.5q-84 0 -140 101
q6 -108 58.5 -163t167.5 -74v-18h-460z" />
    <glyph glyph-name="club" unicode="&#x2663;" horiz-adv-x="667" 
d="M561 0h-455v18q113 16 167 78.5t54 177.5q-22 -38 -34 -52q-27 -35 -66.5 -55t-79.5 -20q-59 0 -101.5 44.5t-42.5 107.5q0 62 38.5 104.5t93.5 42.5q19 0 33 -4.5t53 -24.5q-35 53 -35 100q0 59 43.5 101t104.5 42t104 -42t43 -101q0 -47 -35 -100q40 20 53 24.5t33 4.5
q55 0 93.5 -42.5t38.5 -104.5q0 -64 -42.5 -108t-103.5 -44q-37 0 -76 19t-64 50q-16 21 -38 58q2 -65 15 -106t44 -76q32 -32 62.5 -46.5t99.5 -27.5v-18z" />
    <glyph glyph-name="heart" unicode="&#x2665;" horiz-adv-x="667" 
d="M332 -11q-16 67 -52 128.5t-134 192.5q-54 74 -72 113t-18 82q0 56 37.5 95t91.5 39q76 0 120 -68q13 -19 27 -62q37 131 147 131q55 0 93.5 -38.5t38.5 -92.5q0 -50 -24 -100.5t-86 -128.5q-143 -179 -169 -291z" />
    <glyph glyph-name="diamond" unicode="&#x2666;" horiz-adv-x="667" 
d="M333 693q22 -47 111.5 -173t142.5 -186q-71 -85 -141.5 -184.5t-112.5 -175.5q-71 135 -253 360q180 226 253 359z" />
    <glyph glyph-name="musicalnote" unicode="&#x266a;" horiz-adv-x="667" 
d="M306 156v511h46v-61q14 -18 15 -18l52 -63q91 -107 91 -225q0 -91 -57 -162h-28q33 77 33 149q0 65 -31.5 116t-74.5 57v-304q0 -72 -42.5 -118.5t-109.5 -46.5q-32 0 -50.5 16t-18.5 45q0 45 36.5 80t84.5 35q29 0 54 -11z" />
    <glyph glyph-name="uni266C" unicode="&#x266c;" horiz-adv-x="667" 
d="M616 694v-502q0 -46 -17 -81q-19 -38 -55.5 -60.5t-79.5 -22.5q-32 0 -50 16t-18 44q0 46 36.5 80.5t83.5 34.5q29 0 54 -11v270l-329 -90v-236q0 -71 -42.5 -117t-109.5 -46q-32 0 -50.5 16t-18.5 44q0 44 36.5 78.5t84.5 34.5q26 0 54 -10v451zM241 448l329 90v70
l-329 -90v-70z" />
    <glyph glyph-name="dotlessj" unicode="&#xf6be;" horiz-adv-x="175" 
d="M46 497h90v-510q0 -53 -3.5 -74.5t-14.5 -40.5q-24 -42 -88 -42q-20 0 -47 6v87q15 -3 21 -3q42 0 42 56v521z" />
    <glyph glyph-name="commaaccent" unicode="&#xf6c3;" 
d="M290 -46v-68l-22 -56h-47l17 56h-27v68h79z" />
    <glyph glyph-name="Acute" unicode="&#xf6c9;" 
d="M202 720l46 80h96l-72 -80h-70z" />
    <glyph glyph-name="Caron" unicode="&#xf6ca;" 
d="M300 720h-101l-58 80h80l29 -31l28 31h80z" />
    <glyph glyph-name="Dieresis" unicode="&#xf6cb;" 
d="M224 809v-89h-87v89h87zM364 809v-89h-87v89h87z" />
    <glyph glyph-name="Grave" unicode="&#xf6ce;" 
d="M284 720h-70l-72 80h97z" />
    <glyph glyph-name="Hungarumlaut" unicode="&#xf6cf;" 
d="M139 720l46 80h96l-72 -80h-70zM279 720l46 80h96l-72 -80h-70z" />
    <glyph glyph-name="Macron" unicode="&#xf6d0;" 
d="M153 716v67h193v-67h-193z" />
    <glyph glyph-name="commasuperior" unicode="&#xf6e2;" horiz-adv-x="160" 
d="M113 335v-66l-33 -72h-33l21 69h-20v69h65z" />
    <glyph glyph-name="periodsuperior" unicode="&#xf6e8;" horiz-adv-x="160" 
d="M113 335v-69h-65v69h65z" />
    <glyph glyph-name="Dbreve" horiz-adv-x="397" 
d="M45 0v667h142q86 0 127.5 -46t41.5 -142v-291q0 -96 -41.5 -142t-127.5 -46h-142zM145 93h31q43 0 63 26q17 24 17 88v253q0 64 -17 88q-20 26 -63 26h-31v-481zM236 797l56 -34q-34 -50 -108 -50q-70 0 -108 50l57 34q26 -18 51 -18q26 0 52 18z" />
    <glyph glyph-name="Adotaccent" horiz-adv-x="405" 
d="M256 147h-107l-23 -147h-99l109 667h130l116 -667h-103zM241 240l-40 266l-38 -266h78zM246 809v-89h-87v89h87z" />
    <glyph glyph-name="Fdotaccent" horiz-adv-x="330" 
d="M314 667v-93h-169v-182h123v-93h-123v-299h-100v667h269zM228 809v-89h-87v89h87z" />
    <glyph glyph-name="ahungarumlaut" horiz-adv-x="346" 
d="M312 0h-90q-3 16 -7 56q-54 -63 -104 -63q-37 0 -59 32t-22 86q0 65 36.5 107t146.5 104v32q0 40 -7.5 54t-29.5 14q-21 0 -31 -15.5t-11 -52.5h-92q5 72 42 111t100 39q65 0 94 -43q15 -20 20 -43.5t5 -73.5v-164q0 -124 9 -180zM213 121v132q-49 -31 -69.5 -59.5
t-20.5 -66.5q0 -52 31 -52q32 0 59 46zM85 580l45 80h97l-72 -80h-70zM225 580l45 80h97l-72 -80h-70z" />
    <glyph glyph-name="adotaccent" horiz-adv-x="346" 
d="M312 0h-90q-3 16 -7 56q-54 -63 -104 -63q-37 0 -59 32t-22 86q0 65 36.5 107t146.5 104v32q0 40 -7.5 54t-29.5 14q-21 0 -31 -15.5t-11 -52.5h-92q5 72 42 111t100 39q65 0 94 -43q15 -20 20 -43.5t5 -73.5v-164q0 -124 9 -180zM213 121v132q-49 -31 -69.5 -59.5
t-20.5 -66.5q0 -52 31 -52q32 0 59 46zM231 667v-89h-87v89h87z" />
    <glyph glyph-name="one.numerator" horiz-adv-x="182" 
d="M121 667v-274h-47v211h-36v29q27 6 51 34h32z" />
    <glyph glyph-name="two.numerator" horiz-adv-x="182" 
d="M157 434v-40h-134v40q52 69 71.5 105t19.5 65q0 27 -20 27q-23 0 -23 -38q0 -7 1 -11h-46q-1 5 -1 11q0 38 18 58t52 20q31 0 48.5 -18t17.5 -50q0 -31 -18.5 -68t-67.5 -101h82z" />
    <glyph glyph-name="three.numerator" horiz-adv-x="182" 
d="M68 516v40q26 1 33.5 8t7.5 31q0 36 -18 36q-11 0 -14 -7t-4 -35h-45q1 82 64 82q29 0 45 -20t16 -56q0 -45 -24 -59q28 -15 28 -65q0 -81 -66 -81q-67 0 -67 75v10h46v-10q0 -35 20 -35q12 0 16.5 9.5t4.5 32.5q0 28 -8 36t-35 8z" />
    <glyph glyph-name="four.numerator" horiz-adv-x="182" 
d="M92 459h-77v39l76 169h46v-168h27v-40h-27v-66h-45v66zM93 498v98l-40 -98h40z" />
    <glyph glyph-name="five.numerator" horiz-adv-x="182" 
d="M147 667v-40h-76l-2 -58q15 15 37 15q50 0 50 -68v-49q0 -77 -67 -77t-67 76v8h47q0 -26 4 -35t17 -9q11 0 15 7.5t4 28.5v43q0 23 -3 29t-14 6q-16 0 -24 -22l-42 3l4 142h117z" />
    <glyph glyph-name="six.numerator" horiz-adv-x="182" 
d="M156 590h-47q0 25 -3.5 32.5t-15.5 7.5q-19 0 -19 -34v-48q15 15 37 15q51 0 51 -58v-37q0 -40 -16 -57q-20 -22 -51 -22q-68 0 -68 79v122q0 43 18 62q19 19 48 19q31 0 48.5 -19.5t17.5 -52.5v-9zM71 506v-44q0 -33 21 -33q20 0 20 33v36q0 26 -16 26q-17 0 -25 -18z
" />
    <glyph glyph-name="seven.numerator" horiz-adv-x="182" 
d="M24 667h129v-30l-55 -244h-47l54 234h-81v40z" />
    <glyph glyph-name="eight.numerator" horiz-adv-x="182" 
d="M130 539q28 -15 28 -65q0 -84 -67 -84q-68 0 -68 84q0 50 28 65q-24 20 -24 59q0 73 64 73q30 0 46.5 -19t16.5 -54q0 -39 -24 -59zM91 631q-20 0 -20 -36t20 -36q19 0 19 36t-19 36zM91 515q-12 0 -16.5 -9t-4.5 -34q0 -24 4.5 -33t15.5 -9q12 0 16.5 9t4.5 33
q0 25 -4.5 34t-15.5 9z" />
    <glyph glyph-name="nine.numerator" horiz-adv-x="182" 
d="M26 470h47v-11q0 -29 19 -29t19 34v48q-15 -15 -37 -15q-51 0 -51 58v37q0 40 16 57q20 22 51 22q68 0 68 -79v-122q0 -43 -18 -61q-19 -19 -48 -19q-42 0 -60 36q-6 12 -6 44zM111 554v44q0 33 -20 33q-21 0 -21 -33v-36q0 -26 16 -26q18 0 25 18z" />
    <glyph glyph-name="zero.numerator" horiz-adv-x="182" 
d="M159 590v-119q0 -39 -14 -57q-19 -24 -53 -24q-35 0 -54 24q-14 18 -14 57v119q0 39 14 57q19 24 54 24q34 0 53 -24q14 -18 14 -57zM71 590v-120q0 -24 4 -32t17 -8q12 0 16 8t4 32v120q0 25 -4 33t-16 8q-13 0 -17 -8t-4 -33z" />
    <glyph glyph-name="one.denominator" horiz-adv-x="182" 
d="M121 273v-273h-47v211h-36v29q26 5 51 33h32z" />
    <glyph glyph-name="two.denominator" horiz-adv-x="182" 
d="M157 40v-40h-134v40q52 68 71.5 105t19.5 66q0 27 -20 27q-23 0 -23 -38q0 -7 1 -11h-46q-1 5 -1 11q0 38 18 58t52 20q31 0 48.5 -18t17.5 -50q0 -31 -18.5 -68t-67.5 -102h82z" />
    <glyph glyph-name="three.denominator" horiz-adv-x="182" 
d="M68 122v40q26 2 33.5 8.5t7.5 31.5q0 36 -18 36q-11 0 -14 -7t-4 -35h-45q1 82 64 82q61 0 61 -76q0 -44 -24 -60q28 -15 28 -66q0 -80 -66 -80q-67 0 -67 75v10h46v-10q0 -35 20 -35q12 0 16.5 9.5t4.5 32.5q0 28 -8 36t-35 8z" />
    <glyph glyph-name="four.denominator" horiz-adv-x="182" 
d="M92 66h-77v39l76 168h46v-167h27v-40h-27v-66h-45v66zM93 105v97l-40 -97h40z" />
    <glyph glyph-name="five.denominator" horiz-adv-x="182" 
d="M147 273v-40h-76l-2 -58q15 15 37 15q50 0 50 -68v-49q0 -77 -67 -77t-67 76v8h47q0 -26 4 -35t17 -9q11 0 15 7.5t4 28.5v43q0 23 -3 29t-14 6q-16 0 -24 -22l-42 3l4 142h117z" />
    <glyph glyph-name="six.denominator" horiz-adv-x="182" 
d="M156 197h-47q0 25 -3.5 32.5t-15.5 7.5q-19 0 -19 -34v-48q15 15 37 15q51 0 51 -58v-37q0 -40 -16 -57q-20 -22 -51 -22q-68 0 -68 79v122q0 43 18 61q19 19 48 19q31 0 48.5 -19t17.5 -52v-9zM71 113v-44q0 -33 21 -33q20 0 20 33v36q0 26 -16 26q-17 0 -25 -18z" />
    <glyph glyph-name="seven.denominator" horiz-adv-x="182" 
d="M24 273h129v-30l-55 -243h-47l54 233h-81v40z" />
    <glyph glyph-name="eight.denominator" horiz-adv-x="182" 
d="M130 145q28 -15 28 -65q0 -84 -67 -84q-68 0 -68 84q0 50 28 65q-24 21 -24 59q0 73 64 73q30 0 46.5 -19t16.5 -54q0 -38 -24 -59zM91 237q-20 0 -20 -36t20 -36q19 0 19 36t-19 36zM91 121q-12 0 -16.5 -9t-4.5 -34q0 -24 4.5 -33t15.5 -9q12 0 16.5 9t4.5 33
q0 25 -4.5 34t-15.5 9z" />
    <glyph glyph-name="nine.denominator" horiz-adv-x="182" 
d="M26 76h47v-11q0 -29 19 -29t19 34v48q-15 -15 -37 -15q-51 0 -51 58v37q0 40 16 57q20 22 51 22q68 0 68 -79v-122q0 -43 -18 -61q-19 -19 -48 -19q-42 0 -60 36q-6 12 -6 44zM111 160v44q0 33 -20 33q-21 0 -21 -33v-36q0 -26 16 -26q18 0 25 18z" />
    <glyph glyph-name="zero.denominator" horiz-adv-x="182" 
d="M159 196v-119q0 -39 -14 -57q-19 -24 -53 -24q-35 0 -54 24q-14 18 -14 57v119q0 39 14 57q19 24 54 24q34 0 53 -24q14 -18 14 -57zM71 197v-120q0 -25 4 -33t17 -8q12 0 16 8t4 33v120q0 24 -4 32t-16 8q-13 0 -17 -8t-4 -32z" />
    <glyph glyph-name="oneone" horiz-adv-x="606" 
d="M173 667v-400h-67v309h-52v43q39 8 74 48h45zM167 -33l222 733h51l-227 -733h-46zM519 400v-400h-67v309h-52v43q39 8 74 48h45z" />
    <glyph glyph-name="onefifth" horiz-adv-x="606" 
d="M173 667v-400h-67v309h-52v43q39 8 74 48h45zM167 -33l222 733h51l-227 -733h-46zM557 400v-59h-109l-3 -84q22 22 53 22q37 0 54 -23.5t17 -76.5v-71q0 -59 -23 -85q-26 -29 -72 -29q-96 0 -96 111v13h67q-1 -5 -1 -11q0 -54 30 -54q16 0 22 11t6 42v63q0 33 -4 42
t-20 9q-23 0 -34 -32l-61 4l7 208h167z" />
    <glyph glyph-name="twofifth" horiz-adv-x="606" 
d="M224 325v-59h-191v58q74 101 101.5 154.5t27.5 96.5q0 39 -27 39q-33 0 -33 -57v-14h-65q-1 7 -1 17q0 55 25.5 84t74.5 29q44 0 69 -27t25 -73q0 -45 -26.5 -98t-96.5 -150h117zM167 -33l223 733h50l-227 -733h-46zM557 400v-59h-108l-3 -84q22 22 53 22q71 0 71 -100
v-71q0 -114 -95 -114q-96 0 -96 111v13h67q-1 -5 -1 -11q0 -54 30 -54q16 0 22 11t6 42v63q0 33 -4 42t-20 9q-23 0 -34 -32l-61 4l7 208h166z" />
    <glyph glyph-name="threefifth" horiz-adv-x="606" 
d="M98 445v59q37 1 47.5 11.5t10.5 45.5q0 53 -26 53q-14 0 -20 -10.5t-6 -37.5q0 -8 1 -13h-65v12q0 50 24.5 79t67.5 29q41 0 64 -29t23 -82q0 -66 -34 -87q40 -23 40 -96q0 -118 -94 -118q-46 0 -71 28.5t-25 81.5v15h66q-1 -6 -1 -15q0 -51 30 -51q17 0 23.5 13.5
t6.5 47.5q0 40 -11.5 52t-50.5 12zM167 -33l222 733h51l-227 -733h-46zM557 400v-59h-108l-3 -84q22 22 53 22q71 0 71 -100v-71q0 -114 -95 -114q-96 0 -96 111v13h67q-1 -5 -1 -11q0 -54 30 -54q16 0 22 11t6 42v63q0 33 -4 42t-20 9q-23 0 -34 -32l-61 4l7 208h166z" />
    <glyph glyph-name="fourfifth" horiz-adv-x="606" 
d="M131 363h-110v57l109 247h65v-245h39v-59h-39v-96h-64v96zM133 420v143l-58 -143h58zM166 -33l223 733h50l-226 -733h-47zM556 400v-59h-108l-3 -84q22 22 53 22q71 0 71 -100v-71q0 -114 -95 -114q-96 0 -96 111v13h67q-1 -5 -1 -11q0 -54 30 -54q16 0 22 11t6 42v63
q0 33 -4 42t-20 9q-23 0 -34 -32l-61 4l7 208h166z" />
    <glyph glyph-name="onesixth" horiz-adv-x="606" 
d="M173 667v-400h-67v309h-52v43q39 8 74 48h45zM167 -33l222 733h51l-227 -733h-46zM569 288h-67v17q0 42 -27 42q-15 0 -21 -11t-6 -39v-71q21 23 53 23q72 0 72 -86v-54q0 -56 -23 -83q-29 -32 -73 -32t-73 32q-23 27 -23 83v179q0 63 26 90q26 28 69 28t68 -28t25 -77
v-13zM448 166v-65q0 -26 6.5 -37t22.5 -11t22.5 11t6.5 38v52q0 38 -23 38q-24 0 -35 -26z" />
    <glyph glyph-name="fivesixth" horiz-adv-x="606" 
d="M211 667v-59h-108l-3 -84q21 22 53 22q34 0 52 -23q19 -23 19 -78v-71q0 -114 -95 -114q-96 0 -96 111v13h67q-1 -5 -1 -11q0 -54 30 -54q16 0 22 11t6 42v64q0 33 -4 42t-20 9q-23 0 -34 -32l-61 4l7 208h166zM167 -33l222 733h51l-227 -733h-46zM570 288h-67v17
q0 42 -27 42q-16 0 -22 -11t-6 -39v-71q21 23 54 23q72 0 72 -86v-54q0 -56 -23 -83q-29 -32 -73 -32q-45 0 -74 32q-23 27 -23 83v179q0 63 26 90q26 28 69 28q44 0 69 -28t25 -77v-13zM448 166v-65q0 -26 7 -37t23 -11t22.5 11t6.5 38v52q0 21 -5.5 29.5t-18.5 8.5
q-24 0 -35 -26z" />
    <glyph glyph-name="Dotaccent" 
d="M294 809v-89h-87v89h87z" />
    <glyph glyph-name="Ring" 
d="M251 846q30 0 51.5 -20.5t21.5 -48.5q0 -29 -21.5 -49.5t-51.5 -20.5q-31 0 -52.5 20.5t-21.5 49.5t21.5 49t52.5 20zM251 811q-15 0 -26 -10t-11 -24t11 -24.5t26 -10.5t25.5 10t10.5 25q0 14 -10.5 24t-25.5 10z" />
    <glyph glyph-name="Circumflex" 
d="M199 800h101l58 -80h-80l-28 31l-29 -31h-80z" />
    <glyph glyph-name="Breve" 
d="M302 797l56 -34q-36 -50 -108 -50t-108 50l57 34q26 -18 51 -18q24 0 52 18z" />
    <glyph glyph-name="Tilde" 
d="M153 718v69q27 15 55 15q20 0 43 -8q32 -12 48 -12q18 0 47 17v-69q-29 -17 -47 -17q-16 0 -48 12q-23 8 -43 8q-28 0 -55 -15z" />
    <glyph glyph-name="Cedilla" 
d="M290 -46v-68l-22 -56h-47l17 56h-27v68h79z" />
    <glyph glyph-name="Ogonek" 
d="M295 18h60q-34 -60 -34 -85q0 -32 34 -32q8 0 20 4v-49q-20 -5 -37 -5q-37 0 -60 18.5t-23 48.5q0 36 40 100z" />
    <glyph glyph-name="commaaccent.sc" 
d="M290 -46v-68l-22 -56h-47l17 56h-27v68h79z" />
    <glyph glyph-name="Comma.high" horiz-adv-x="120" 
d="M14 667h91v-98l-39 -83h-50l31 83h-33v98z" />
    <glyph glyph-name="Dieresis.alt" 
d="M230 809v-89h-87v89h87zM356 809v-89h-87v89h87z" />
    <glyph glyph-name="comma.high" horiz-adv-x="120" 
d="M14 667h91v-98l-39 -83h-50l31 83h-33v98z" />
    <glyph glyph-name="dieresis.alt" 
d="M230 667v-89h-87v89h87zM356 667v-89h-87v89h87z" />
    <glyph glyph-name="zerozero.afrac" horiz-adv-x="281" 
d="M281 354v-43h-281v43h281zM208 590v-119q0 -39 -14 -57q-19 -24 -53 -24q-35 0 -54 24q-14 18 -14 57v119q0 39 14 57q19 24 54 24q34 0 53 -24q14 -18 14 -57zM120 590v-120q0 -24 4 -32t17 -8q12 0 16 8t4 32v120q0 25 -4 33t-16 8q-13 0 -17 -8t-4 -33zM208 196v-119
q0 -39 -14 -57q-19 -24 -53 -24q-35 0 -54 24q-14 18 -14 57v119q0 39 14 57q19 24 54 24q34 0 53 -24q14 -18 14 -57zM120 197v-120q0 -25 4 -33t17 -8q12 0 16 8t4 33v120q0 24 -4 32t-16 8q-13 0 -17 -8t-4 -32z" />
    </font>
</defs>
</svg>
