<?xml version="1.0" standalone="no"?>
<!DOCTYPE svg PUBLIC "-//W3C//DTD SVG 1.1//EN" "http://www.w3.org/Graphics/SVG/1.1/DTD/svg11.dtd" >
<svg xmlns="http://www.w3.org/2000/svg" xmlns:xlink="http://www.w3.org/1999/xlink" version="1.1">
<metadata></metadata>
<defs>
<font id="pathway_gothic_oneregular" horiz-adv-x="776" >
<font-face units-per-em="2048" ascent="1638" descent="-410" />
<missing-glyph horiz-adv-x="294" />
<glyph horiz-adv-x="0" />
<glyph unicode="&#xd;" horiz-adv-x="681" />
<glyph unicode=" "  horiz-adv-x="294" />
<glyph unicode="&#x09;" horiz-adv-x="294" />
<glyph unicode="&#xa0;" horiz-adv-x="294" />
<glyph unicode="!" horiz-adv-x="409" d="M115 1434h180l-31 -1092h-114zM125 0v188h162v-188h-162z" />
<glyph unicode="&#x22;" horiz-adv-x="616" d="M98 1516h166l-28 -500h-109zM352 1516h166l-31 -500h-104z" />
<glyph unicode="#" horiz-adv-x="1001" d="M55 432l27 127h141l47 315h-151l22 127h150l71 463h125l-69 -463h250l71 463h129l-71 -463h149l-26 -127h-144l-47 -315h152l-27 -127h-145l-70 -463h-129l70 463h-250l-70 -463h-127l70 463h-148zM350 559h250l47 315h-250z" />
<glyph unicode="$" horiz-adv-x="786" d="M86 420l152 26q14 -295 157 -294q152 0 152 196q0 143 -109 230l-153 114q-84 59 -129 143.5t-45 219.5q0 330 241 356v252h109v-254q100 -12 160.5 -90t78.5 -248l-155 -37q-6 242 -144 242q-133 0 -133 -201q0 -90 19.5 -143t77.5 -98l155 -119q55 -39 88 -73 t63.5 -109.5t30.5 -178.5q0 -299 -241 -331v-252h-109v249q-115 12 -182.5 102.5t-83.5 297.5z" />
<glyph unicode="%" horiz-adv-x="1419" d="M80 842v348q0 156 56.5 215t160.5 59t160.5 -59t56.5 -215v-348q0 -156 -56.5 -215.5t-160.5 -59.5t-160.5 59.5t-56.5 215.5zM209 823q0 -156 87 -156t87 156v385q0 156 -87 156t-87 -156v-385zM451 -31l374 1495h117l-375 -1495h-116zM905 244v348q0 156 56.5 215 t161 59t160.5 -59t56 -215v-348q0 -156 -56 -215.5t-160.5 -59.5t-161 59.5t-56.5 215.5zM1034 225q0 -156 87 -156t87 156v385q0 156 -87 156t-87 -156v-385z" />
<glyph unicode="&#x26;" horiz-adv-x="862" d="M53 336v65q0 145 52.5 221t150.5 113q-98 176 -98 385q0 344 284 344q127 0 199 -83t90 -291l-145 -23q-10 154 -43 209t-97.5 55t-98.5 -46t-34 -183t80 -287l191 -352q20 133 28 285h136q-23 -301 -68 -459l158 -289h-176l-60 109q-90 -139 -270 -140q-129 0 -204 80 t-75 287zM211 334q0 -133 38.5 -182.5t106.5 -49.5q117 0 172 138l-206 376q-111 -61 -111 -215v-67z" />
<glyph unicode="'" horiz-adv-x="362" d="M98 1516h166l-28 -500h-109z" />
<glyph unicode="(" horiz-adv-x="532" d="M86 738q0 253 20.5 423t52 265.5t87 145.5t106.5 63.5t131 13.5v-133q-47 0 -75.5 -8.5t-63.5 -50.5t-53 -122q-43 -186 -43 -502.5t12 -476t30.5 -244.5t53.5 -130t62.5 -54.5t76.5 -9.5v-133q-80 0 -131 13.5t-106.5 67.5t-87 154.5t-52 282.5t-20.5 435z" />
<glyph unicode=")" horiz-adv-x="532" d="M12 -82q49 0 77 9.5t62.5 54.5t53.5 129q43 199 43 637q0 594 -96 710q-35 41 -64 49.5t-76 8.5v133q80 0 131.5 -13.5t106.5 -63.5t87 -145.5t52.5 -265.5t20.5 -423t-20.5 -435t-52.5 -282.5t-87 -154.5t-106.5 -67.5t-131.5 -13.5v133z" />
<glyph unicode="*" horiz-adv-x="800" d="M98 956l207 201l-207 201l70 96l176 -197l-6 324h125l-8 -324l178 197l69 -96l-208 -201l208 -201l-69 -94l-178 193l8 -320h-125l6 320l-176 -193z" />
<glyph unicode="+" horiz-adv-x="772" d="M115 653v127h211v303h120v-303h209v-127h-209v-303h-120v303h-211z" />
<glyph unicode="," horiz-adv-x="333" d="M86 0v188h162v-180l-80 -254l-62 13l25 233h-45z" />
<glyph unicode="-" horiz-adv-x="516" d="M61 561v127h394v-127h-394z" />
<glyph unicode="." horiz-adv-x="333" d="M86 0v188h162v-188h-162z" />
<glyph unicode="/" horiz-adv-x="593" d="M68 -106l352 1646h106l-352 -1646h-106z" />
<glyph unicode="0" horiz-adv-x="841" d="M100 428v578q0 260 83 359t237.5 99t237.5 -99t83 -359v-578q0 -260 -83 -359.5t-237.5 -99.5t-237.5 99.5t-83 359.5zM262 397q0 -168 42 -231.5t118 -63.5q158 0 158 295v639q0 295 -158 295q-76 0 -118 -63.5t-42 -231.5v-639z" />
<glyph unicode="1" horiz-adv-x="481" d="M12 1251v95l250 88h90v-1434h-164v1251h-176z" />
<glyph unicode="2" horiz-adv-x="819" d="M104 0v98q0 104 34 186.5t151 266.5l170 266q100 139 100 307q0 119 -39 166t-109.5 47t-109.5 -58t-51 -212l-144 23q19 210 94.5 292t217 82t222.5 -74.5t81 -268t-127 -398.5l-369 -592h492v-131h-613z" />
<glyph unicode="3" horiz-adv-x="835" d="M96 344l146 21q12 -154 49.5 -208.5t111.5 -54.5q168 0 168 232v57q0 158 -44 214.5t-128 56.5h-96v126h98q72 4 113 58.5t41 187.5v62q0 242 -145 241q-72 0 -112 -58t-50 -212l-146 23q18 211 94 292.5t217.5 81.5t220.5 -85t79 -318.5t-119 -315.5q141 -84 141 -374 q0 -221 -89 -311.5t-235.5 -90.5t-222 82t-92.5 293z" />
<glyph unicode="4" d="M14 336v78l344 1020h277v-967h84v-131h-84v-336h-162v336h-459zM182 467h291v852z" />
<glyph unicode="5" horiz-adv-x="774" d="M86 344l143 18q12 -154 49 -207t110 -53t115 62.5t42 226.5v45q0 139 -41 193.5t-121 54.5h-258v750h553v-131h-404v-492h109q156 0 237.5 -83t81.5 -323.5t-82.5 -338t-224 -97.5t-217.5 83t-92 292z" />
<glyph unicode="6" horiz-adv-x="827" d="M100 408v587q0 266 84 367.5t224.5 101.5t215 -72.5t91.5 -258.5l-150 -37q-8 133 -44 184t-106.5 51t-111.5 -64.5t-41 -236.5v-266q70 76 195 76t204.5 -94.5t79.5 -341t-84 -341t-237.5 -94.5t-236.5 94.5t-83 344.5zM262 379q0 -283 162 -283t162 283v51 q0 283 -161 283t-163 -267v-67z" />
<glyph unicode="7" horiz-adv-x="681" d="M39 1303v131h596v-78l-332 -1356h-166l336 1303h-434z" />
<glyph unicode="8" horiz-adv-x="854" d="M100 367q0 309 176 374q-147 70 -147 349q0 213 77 293.5t221 80.5t222 -80.5t78 -293.5q0 -281 -152 -349q178 -72 179 -374q0 -225 -85 -311.5t-243 -86.5t-242 86t-84 312zM262 354q0 -145 43 -201.5t122 -56.5t122 56.5t43 201.5v64q0 145 -43 201.5t-122 56.5 t-122 -56.5t-43 -201.5v-64zM285 1032q0 -133 36.5 -182t105.5 -49t105.5 49t36.5 182v74q0 133 -36.5 182t-105.5 49t-105.5 -49t-36.5 -182v-74z" />
<glyph unicode="9" horiz-adv-x="827" d="M86 1029q0 247 85 341t238.5 94t235.5 -94t82 -344v-588q0 -268 -83 -368.5t-229.5 -100.5t-224 82t-98.5 293l144 21q16 -154 55 -208.5t115.5 -54.5t118.5 64.5t42 236.5v267q-68 -76 -193.5 -76t-206.5 94t-81 341zM242 1004q0 -283 164 -283q74 0 116.5 58.5 t44.5 207.5v68q0 283 -162.5 283t-162.5 -283v-51z" />
<glyph unicode=":" horiz-adv-x="333" d="M86 0v188h162v-188h-162zM86 836v188h162v-188h-162z" />
<glyph unicode=";" horiz-adv-x="333" d="M86 0v188h162v-180l-80 -254l-62 13l25 233h-45zM86 836v188h162v-188h-162z" />
<glyph unicode="&#x3c;" d="M115 649v135l544 308v-136l-401 -239l401 -240v-135z" />
<glyph unicode="=" horiz-adv-x="772" d="M115 449v126h540v-126h-540zM115 858v127h540v-127h-540z" />
<glyph unicode="&#x3e;" d="M115 342v135l403 240l-403 239v136l544 -308v-135z" />
<glyph unicode="?" horiz-adv-x="733" d="M55 1090q16 209 89 291.5t206 82.5t208 -75.5t75 -257t-116 -399.5t-116 -388h-122q0 244 97 442.5t97 325.5t-33.5 173t-96 46t-96.5 -56t-46 -208zM260 0v188h162v-188h-162z" />
<glyph unicode="@" horiz-adv-x="1261" d="M100 575v222q0 406 154 555q74 74 164 103.5t213 29.5t213 -30t164 -103q154 -150 153 -555v-531h-403l-23 178q-29 -209 -182 -208q-94 0 -143.5 71.5t-49.5 259.5v238q0 188 50.5 260t142.5 72q156 0 188 -199l31 168h102v-731h203v422q0 346 -129 473 q-63 61 -139 86.5t-179.5 25.5t-179 -25.5t-139.5 -86.5q-127 -129 -127 -473v-222q0 -344 127 -473q63 -61 139 -86.5t181 -25.5q174 0 272 73l35 -86q-115 -90 -307 -90q-123 0 -213 30t-164 103q-154 147 -154 555zM520 543q0 -100 22.5 -140.5t62.5 -40.5t62.5 22 t39 95.5t16.5 236.5t-30.5 228.5t-90.5 65.5q-82 0 -82 -181v-286z" />
<glyph unicode="A" horiz-adv-x="806" d="M33 0l262 1434h217l262 -1434h-164l-63 373h-289l-61 -373h-164zM281 504h243l-121 723z" />
<glyph unicode="B" horiz-adv-x="782" d="M129 0v1434h233q154 0 237 -86t83 -301q0 -250 -174 -308q205 -45 205 -329q0 -227 -84 -318.5t-234 -91.5h-266zM293 129h98q78 0 120 53.5t42 188.5v55q0 256 -162 256h-98v-553zM293 791h80h1q156 0 156 239v49q0 129 -40.5 177.5t-116.5 48.5h-80v-514z" />
<glyph unicode="C" horiz-adv-x="765" d="M100 438v557q0 268 82 368.5t220.5 100.5t211 -71.5t88.5 -255.5l-149 -37q-12 131 -46 181t-100.5 50t-105.5 -64.5t-39 -236.5v-635q0 -168 39 -230.5t110.5 -62.5t107.5 54.5t48 205.5l144 -18q-18 -209 -93 -292t-214.5 -83t-221.5 100.5t-82 368.5z" />
<glyph unicode="D" horiz-adv-x="831" d="M129 0v1434h279q156 0 239.5 -99.5t83.5 -359.5v-516q0 -260 -84 -359.5t-239 -99.5h-279zM293 129h115q161 0 161 293v588q0 293 -161 293h-115v-1174z" />
<glyph unicode="E" horiz-adv-x="735" d="M129 0v1434h514v-131h-350v-523h319v-131h-319v-518h356v-131h-520z" />
<glyph unicode="F" horiz-adv-x="661" d="M129 0v1434h492v-131h-328v-523h297v-131h-297v-649h-164z" />
<glyph unicode="G" horiz-adv-x="835" d="M100 428v567q0 268 82 368.5t220.5 100.5t211 -71.5t88.5 -255.5l-149 -37q-12 131 -46 181t-100.5 50t-105.5 -64.5t-39 -236.5v-633q0 -168 38 -231.5t108 -63.5q156 0 159 277v250h-168v131h322v-758h-100l-29 133q-61 -166 -221 -166q-129 0 -200 99.5t-71 359.5z " />
<glyph unicode="H" horiz-adv-x="892" d="M129 0v1434h164v-654h309v654h162v-1434h-162v649h-309v-649h-164z" />
<glyph unicode="I" horiz-adv-x="421" d="M129 0v1434h164v-1434h-164z" />
<glyph unicode="J" horiz-adv-x="604" d="M20 242l148 20q8 -96 29.5 -130t58.5 -34q78 0 78 191v1145h162v-1112q0 -352 -248 -353q-82 0 -148.5 62.5t-79.5 210.5z" />
<glyph unicode="K" horiz-adv-x="780" d="M129 0v1434h164v-607l301 607h164l-314 -617l326 -817h-164l-248 645l-65 -129v-516h-164z" />
<glyph unicode="L" horiz-adv-x="641" d="M129 0v1434h164v-1303h317v-131h-481z" />
<glyph unicode="M" horiz-adv-x="1107" d="M129 0v1434h250l174 -994l176 994h250v-1434h-160v1294l-174 -987h-182l-174 987v-1294h-160z" />
<glyph unicode="N" horiz-adv-x="921" d="M129 0v1434h170l334 -1049v1049h160v-1434h-170l-334 1047v-1047h-160z" />
<glyph unicode="O" horiz-adv-x="841" d="M100 428v578q0 260 83 359t237.5 99t237.5 -99t83 -359v-578q0 -260 -83 -359.5t-237.5 -99.5t-237.5 99.5t-83 359.5zM262 397q0 -168 42 -231.5t118 -63.5q158 0 158 295v639q0 295 -158 295q-76 0 -118 -63.5t-42 -231.5v-639z" />
<glyph unicode="P" horiz-adv-x="743" d="M129 0v1434h254q154 0 236.5 -99.5t82.5 -359.5v-10q0 -260 -82.5 -358.5t-236.5 -98.5h-90v-508h-164zM293 637h90q158 0 158 301v63q0 301 -158 302h-90v-666z" />
<glyph unicode="Q" horiz-adv-x="841" d="M100 530v476q0 260 83 359t237.5 99t237.5 -99t83 -359v-476q0 -303 -129 -405l84 -240h-147l-66 191q-20 -4 -61 -4q-156 0 -239 99t-83 359zM262 500q0 -168 42 -231.5t118 -63.5h16l-106 315h143l76 -221q29 70 29 201v536q0 295 -158 295q-76 0 -118 -63.5 t-42 -231.5v-536z" />
<glyph unicode="R" horiz-adv-x="790" d="M129 0v1434h254q152 0 235.5 -96.5t83.5 -346.5v-10q0 -311 -151 -395l170 -586h-168l-160 549h-100v-549h-164zM293 678h90q158 0 158 283v61q0 158 -42 219.5t-116 61.5h-90v-625z" />
<glyph unicode="S" horiz-adv-x="815" d="M86 399l154 27q8 -174 50 -248t118 -74q161 1 161 218q0 164 -110 251l-164 121q-184 131 -184 387q0 213 80.5 298t221 85t218.5 -78.5t94 -285.5l-156 -35q-8 262 -152.5 262t-144.5 -223q0 -98 21.5 -159.5t83.5 -110.5l162 -121q57 -41 92 -78t66.5 -118t31.5 -191 q0 -197 -85 -277t-230.5 -80t-227.5 94.5t-100 335.5z" />
<glyph unicode="T" horiz-adv-x="612" d="M27 1303v131h559v-131h-199v-1303h-162v1303h-198z" />
<glyph unicode="U" horiz-adv-x="864" d="M115 428v1006h161v-1037q0 -166 41 -230.5t114 -64.5t115 64.5t42 230.5v1037h162v-1006q0 -260 -83 -359.5t-234.5 -99.5t-234.5 99.5t-83 359.5z" />
<glyph unicode="V" horiz-adv-x="802" d="M33 1434h164l204 -1196l205 1196h164l-266 -1434h-205z" />
<glyph unicode="W" horiz-adv-x="1183" d="M39 1434h164l147 -1098l180 1098h127l174 -1096l150 1096h164l-215 -1434h-168l-170 1042l-170 -1042h-168z" />
<glyph unicode="X" horiz-adv-x="780" d="M33 0l280 727l-264 707h160l192 -514l191 514h156l-275 -705l275 -729h-160l-201 530l-199 -530h-155z" />
<glyph unicode="Y" horiz-adv-x="765" d="M33 1434h160l190 -740l188 740h160l-268 -955v-479h-160v479z" />
<glyph unicode="Z" horiz-adv-x="718" d="M47 0v78l455 1225h-416v131h586v-78l-455 -1225h455v-131h-625z" />
<glyph unicode="[" horiz-adv-x="544" d="M129 -205v1843h354v-131h-192v-1581h192v-131h-354z" />
<glyph unicode="\" horiz-adv-x="593" d="M27 1540h106l352 -1646h-106z" />
<glyph unicode="]" horiz-adv-x="544" d="M20 -74h193v1581h-193v131h355v-1843h-355v131z" />
<glyph unicode="^" horiz-adv-x="542" d="M43 655l160 775h139l160 -775h-127l-105 582l-100 -582h-127z" />
<glyph unicode="_" horiz-adv-x="673" d="M86 0h504v-127h-504v127z" />
<glyph unicode="`" horiz-adv-x="501" d="M127 1411l72 137l266 -241l-45 -74z" />
<glyph unicode="a" horiz-adv-x="753" d="M92 305v37q0 195 57.5 265.5t164 70.5t167.5 -82v215q0 197 -123 197q-104 0 -198 -121l-56 114q47 57 120 96.5t149 39.5q266 0 266 -361v-776h-96l-33 133q-23 -82 -75 -123t-118 -41q-111 0 -168 71t-57 265zM248 293q0 -195 102 -195q59 0 93 43t38 156v55 q-4 121 -37.5 168t-93.5 47q-102 0 -102 -194v-80z" />
<glyph unicode="b" horiz-adv-x="798" d="M129 0v1516h150v-543q55 164 196 164q109 0 166 -92.5t57 -337.5v-308q0 -246 -57 -338t-166 -92q-162 0 -205 228l-45 -197h-96zM279 553q0 -184 23.5 -290.5t54 -136.5t81.5 -30q111 0 111 254v406q0 254 -109 254q-47 0 -78.5 -29t-56 -127t-26.5 -272v-29z" />
<glyph unicode="c" horiz-adv-x="708" d="M100 358v349q0 244 72 337t196 93t193.5 -68t83.5 -244l-143 -39q-8 223 -125 224q-59 0 -90 -53.5t-31 -221.5v-391q0 -143 31.5 -194.5t91 -51.5t92.5 50.5t47 193.5l133 -20q-16 -199 -87.5 -276t-195.5 -77t-196 87t-72 302z" />
<glyph unicode="d" horiz-adv-x="802" d="M100 399v308q0 244 58.5 337t165.5 93q147 0 200 -176v555h150v-1516h-96l-50 213q-40 -244 -204 -244q-106 0 -165 93.5t-59 336.5zM252 350q0 -141 28.5 -197.5t80 -56.5t82 30t53 135.5t22.5 291.5t-23.5 291.5t-55 135.5t-83.5 30q-104 0 -104 -254v-406z" />
<glyph unicode="e" d="M100 399v308q0 244 77 337t216 93t211 -92.5t72 -337.5v-220h-420v-116q0 -274 131 -275q63 0 98 45t50 168l137 -22q-15 -178 -84.5 -248t-201.5 -70t-209 93.5t-77 336.5zM256 618h262v117q0 274 -129 275q-133 -1 -133 -275v-117z" />
<glyph unicode="f" horiz-adv-x="442" d="M39 979v127h88v10q0 244 61.5 337t171.5 93q70 0 127 -24l-32 -133q-35 20 -78 20q-94 0 -94 -262v-41h129v-127h-129v-979h-156v979h-88z" />
<glyph unicode="g" horiz-adv-x="763" d="M39 -141q0 176 119 231q-49 39 -49 141.5t88 147.5q-100 84 -101 344v18q0 227 70 311.5t204 84.5t203 -64l160 64h23v-162h-121q35 -88 35 -234v-18q0 -227 -71 -311t-218 -84q-57 0 -105 12q-45 -33 -45 -102q0 -123 113 -123h127q254 0 254 -257t-254 -257h-180 q-252 0 -252 258zM186 -141q0 -127 93 -127h204q92 0 92 128t-92 128h-204q-93 0 -93 -129zM252 686q0 -139 35 -190.5t97 -51.5t96 51.5t34 190.5v92q0 139 -34 190.5t-96 51.5t-97 -51t-35 -191v-92z" />
<glyph unicode="h" horiz-adv-x="815" d="M129 0v1516h150v-541q49 162 202 162q106 0 162.5 -94.5t56.5 -344.5v-698h-157v754q0 256 -101 256q-152 0 -155 -439v-571h-158z" />
<glyph unicode="i" horiz-adv-x="415" d="M123 1323v193h170v-193h-170zM129 0v1106h158v-1106h-158z" />
<glyph unicode="j" horiz-adv-x="419" d="M-70 -375l31 133q35 -20 76 -20q96 0 96 262v1106h156v-1075q0 -244 -61.5 -337t-172.5 -93q-70 0 -125 24zM125 1323v193h172v-193h-172z" />
<glyph unicode="k" horiz-adv-x="735" d="M129 0v1516h158v-846l250 436h163l-268 -444l303 -662h-170l-225 508l-53 -90v-418h-158z" />
<glyph unicode="l" horiz-adv-x="415" d="M129 0v1516h158v-1516h-158z" />
<glyph unicode="m" horiz-adv-x="1202" d="M129 0v1106h96l41 -174q39 205 203 205q156 0 197 -201q43 201 202 201q104 0 160.5 -94.5t56.5 -344.5v-698h-157v754q0 256 -97 256q-141 0 -145 -439v-571h-158v754q0 256 -94 256q-143 0 -147 -439v-571h-158z" />
<glyph unicode="n" horiz-adv-x="815" d="M129 0v1106h96l41 -176q43 207 215 207q106 0 162.5 -94.5t56.5 -344.5v-698h-157v754q0 256 -101 256q-152 0 -155 -439v-571h-158z" />
<glyph unicode="o" d="M100 399v308q0 244 75 337t213 93t213 -93t75 -337v-308q0 -244 -75 -337t-213 -93t-213 93.5t-75 336.5zM256 371q0 -274 133 -275q129 1 129 275v364q0 274 -129 275q-133 0 -133 -275v-364z" />
<glyph unicode="p" horiz-adv-x="798" d="M129 -369v1475h96l41 -178q47 209 209 209q109 0 166 -92.5t57 -337.5v-308q0 -246 -57 -338t-166 -92q-150 0 -196 193v-531h-150zM279 553q0 -184 23.5 -290.5t54 -136.5t81.5 -30q111 0 111 254v406q0 254 -109 254q-47 0 -78.5 -29t-56 -127t-26.5 -272v-29z" />
<glyph unicode="q" horiz-adv-x="798" d="M100 399v308q0 244 58.5 337t165.5 93q160 0 206 -203l41 172h97v-1475h-150v531q-49 -193 -194 -193q-106 0 -165 93.5t-59 336.5zM252 350q0 -141 28.5 -197.5t86.5 -56.5q33 0 56 16.5t46 59.5q45 86 49 352v58q-2 174 -25.5 272t-55.5 127t-81 29q-104 0 -104 -254 v-406z" />
<glyph unicode="r" horiz-adv-x="528" d="M129 0v1106h96l45 -188q41 219 201 219l41 -2l-12 -174q-29 14 -56 14q-156 0 -157 -324v-651h-158z" />
<glyph unicode="s" horiz-adv-x="729" d="M86 307l145 27q8 -133 42 -186.5t94 -53.5q127 0 127 154q0 117 -86 178l-142 100q-157 103 -157 307q0 169 70.5 236.5t191.5 67.5t188.5 -63.5t81.5 -231.5l-141 -29q-10 199 -126 199t-116 -162q0 -131 86 -195l135 -94q51 -35 81 -62.5t57.5 -92t27.5 -150.5 q0 -158 -73.5 -222.5t-199.5 -64.5t-198 75t-88 263z" />
<glyph unicode="t" horiz-adv-x="489" d="M41 979v127h109l55 272h94v-272h145v-127h-145v-770q0 -109 59 -109q39 0 82 33l31 -121q-70 -43 -143 -43q-184 0 -185 273v737h-102z" />
<glyph unicode="u" horiz-adv-x="800" d="M115 305v801h155v-813q0 -113 28 -154t83 -41q125 0 133 199v809h156v-1106h-97l-32 135q-47 -166 -199 -166q-113 0 -170 70t-57 266z" />
<glyph unicode="v" horiz-adv-x="700" d="M33 1106h160l157 -858l160 858h158l-232 -1106h-170z" />
<glyph unicode="w" horiz-adv-x="1114" d="M49 1106h156l133 -827l139 827h158l143 -825l133 825h154l-201 -1106h-159l-148 860l-147 -860h-158z" />
<glyph unicode="x" horiz-adv-x="712" d="M35 0l233 561l-229 545h174l160 -379l137 379h162l-228 -549l236 -557h-174l-166 389l-141 -389h-164z" />
<glyph unicode="y" horiz-adv-x="714" d="M-14 -307l55 106q75 -67 129 -67h2q86 0 115 168l16 94l-270 1112h157l177 -803l153 803h160l-283 -1274q-24 -113 -82.5 -172t-145.5 -59t-183 92z" />
<glyph unicode="z" horiz-adv-x="655" d="M61 0v84l363 895h-340v127h512v-84l-369 -895h371v-127h-537z" />
<glyph unicode="{" horiz-adv-x="577" d="M41 659v117q82 0 107.5 61.5t25.5 184.5v197q0 383 197 426l55 6q61 0 106 -27l-30 -133q-35 20 -70 20q-55 0 -77.5 -55t-22.5 -194v-166q0 -274 -94 -379q94 -104 94 -377v-166q0 -139 22.5 -194.5t77.5 -55.5q35 0 70 21l30 -133q-45 -27 -106 -27l-55 6 q-197 43 -197 426v197q0 125 -25.5 185t-101.5 60h-6z" />
<glyph unicode="|" horiz-adv-x="479" d="M186 -106v1646h107v-1646h-107z" />
<glyph unicode="}" horiz-adv-x="577" d="M8 -188l31 133q35 -21 70 -21q55 0 77.5 55.5t22.5 194.5v166q0 272 94 377q-94 104 -94 379v166q0 139 -22.5 194t-77.5 55q-35 0 -70 -20l-31 133q45 27 107 27l55 -6q197 -43 197 -426v-197q0 -123 25.5 -184.5t107.5 -61.5v-117h-6q-76 0 -101.5 -60t-25.5 -185v-197 q0 -383 -197 -426l-55 -6q-61 0 -107 27z" />
<glyph unicode="~" horiz-adv-x="772" d="M115 653v127q51 -35 108.5 -35t160.5 34t162.5 34t108.5 -33v-127q-53 35 -110.5 35t-159.5 -36t-160.5 -36t-109.5 37z" />
<glyph unicode="&#xa1;" horiz-adv-x="409" d="M115 -328l35 1092h114l31 -1092h-180zM125 918v188h162v-188h-162z" />
<glyph unicode="&#xa2;" horiz-adv-x="718" d="M100 563v266q0 219 59.5 315.5t168.5 110.5v209h106v-209q197 -25 221 -307l-141 -39q-12 223 -131 224q-63 0 -95 -53.5t-32 -221.5v-309q0 -143 33 -194.5t95 -51.5t96 51.5t46 192.5l138 -21q-29 -317 -230 -348v-209h-106v207q-227 29 -228 387z" />
<glyph unicode="&#xa3;" horiz-adv-x="753" d="M61 647v107h80v241q0 266 78 367.5t209 101.5t200.5 -71.5t86.5 -255.5l-150 -37q-10 133 -39.5 182t-90 49t-95.5 -64.5t-35 -236.5v-276h252v-107h-252v-516h416v-131h-637v68l57 20v559h-80z" />
<glyph unicode="&#xa5;" horiz-adv-x="794" d="M33 1434h170l192 -725l195 725h170l-201 -689h139v-106h-170l-47 -160v-41h217v-106h-217v-332h-172v332h-215v106h215v41l-47 160h-168v106h137z" />
<glyph unicode="&#xa6;" horiz-adv-x="479" d="M186 -106v622h107v-622h-107zM186 918v622h107v-622h-107z" />
<glyph unicode="&#xa7;" horiz-adv-x="696" d="M86 -23l135 23q14 -213 121 -213q123 0 123 166q0 125 -84 194l-127 97q-147 109 -147.5 307.5t96.5 267.5q-94 98 -94 268t67.5 240t181 70t178 -58.5t76.5 -214.5l-139 -30q-8 182 -115 182q-102 0 -102 -174q0 -74 16.5 -120t61.5 -83l123 -96q47 -37 74.5 -64.5 t54 -93t26.5 -151.5q0 -197 -114 -261q111 -102 110.5 -268t-70 -231.5t-188.5 -65.5t-185.5 67.5t-78.5 241.5zM250 569q0 -74 16.5 -117.5t61.5 -82.5l67 -54q70 31 70 164t-80 199l-84 61q-51 -45 -51 -170z" />
<glyph unicode="&#xa8;" horiz-adv-x="671" d="M111 1323v193h165v-193h-165zM397 1323v193h164v-193h-164z" />
<glyph unicode="&#xa9;" horiz-adv-x="1079" d="M115 991v176q0 313 109.5 432t314 119t315.5 -119t111 -432v-176q0 -313 -111 -432t-315.5 -119t-314 119t-109.5 432zM182 991q0 -266 92.5 -367.5t264.5 -101.5t265 101.5t93 367.5v176q0 266 -93 367.5t-265 101.5t-264.5 -101t-92.5 -368v-176zM334 918v325 q0 172 53 237.5t143.5 65.5t138.5 -47t60 -168l-106 -26q-8 86 -29 117.5t-61.5 31.5t-63.5 -41t-23 -149v-373q0 -105 23 -144.5t67 -39.5t67.5 34.5t31.5 130.5l102 -12q-12 -135 -62 -190.5t-142.5 -55.5t-145.5 65.5t-53 238.5z" />
<glyph unicode="&#xaa;" horiz-adv-x="571" d="M82 881v26q0 135 40 184.5t113.5 49.5t114.5 -54v115q0 160 -82 160q-68 0 -135 -82l-41 88q80 96 193 96q190 0 190 -272v-524h-78l-24 92q-35 -113 -140 -113q-72 0 -111.5 49t-39.5 185zM205 872q0 -127 61 -127q78 0 84 132v18q0 160 -84 160q-61 0 -61 -125v-58z " />
<glyph unicode="&#xab;" horiz-adv-x="698" d="M66 588v135l215 307l57 -53l-139 -322l139 -321l-57 -53zM360 588v135l215 307l58 -53l-139 -322l139 -321l-58 -53z" />
<glyph unicode="&#xac;" horiz-adv-x="772" d="M115 653v127h540v-424h-114v297h-426z" />
<glyph unicode="&#xad;" horiz-adv-x="516" d="M61 561v127h394v-127h-394z" />
<glyph unicode="&#xae;" horiz-adv-x="1079" d="M115 991v176q0 313 109.5 432t314 119t315.5 -119t111 -432v-176q0 -313 -111 -432t-315.5 -119t-314 119t-109.5 432zM182 991q0 -266 92.5 -367.5t264.5 -101.5t265 101.5t93 367.5v176q0 266 -93 367.5t-265 101.5t-264.5 -101t-92.5 -368v-176zM356 635v891h172 q100 0 154.5 -57.5t54.5 -206.5v-17q0 -188 -100 -235l113 -375h-119l-105 354h-57v-354h-113zM469 1077h59q97 0 97 156v45q0 158 -97 158h-59v-359z" />
<glyph unicode="&#xaf;" horiz-adv-x="518" d="M66 1315v135h389v-135h-389z" />
<glyph unicode="&#xb0;" horiz-adv-x="657" d="M84 948v215q0 170 63.5 235.5t181 65.5t181 -65.5t63.5 -235.5v-215q0 -172 -63.5 -236.5t-181 -64.5t-181 64.5t-63.5 236.5zM211 928q0 -102 30.5 -141t88.5 -39q116 0 116 180v254q0 182 -117.5 182t-117.5 -182v-254z" />
<glyph unicode="&#xb1;" horiz-adv-x="772" d="M115 0v127h540v-127h-540zM115 653v127h211v303h120v-303h209v-127h-209v-303h-120v303h-211z" />
<glyph unicode="&#xb2;" horiz-adv-x="557" d="M72 604v62q0 111 102 249l139 201q45 78 45 150q0 119 -77 118q-39 0 -60.5 -31.5t-27.5 -117.5l-119 16q12 131 64 181.5t146.5 50.5t147.5 -47t53 -164t-79 -238l-218 -329h291v-101h-407z" />
<glyph unicode="&#xb3;" horiz-adv-x="565" d="M63 805l117 20q8 -86 28.5 -118.5t57.5 -32.5q88 0 88 127v39q0 86 -22.5 113.5t-69.5 27.5h-63v92h71q78 0 78 125v45q0 129 -76 129q-41 0 -61.5 -31.5t-26.5 -117.5l-118 16q10 129 62 180t148.5 51t146.5 -52t50 -187t-63 -189q76 -55 75.5 -206.5t-58.5 -207 t-155.5 -55.5t-146.5 50.5t-62 181.5z" />
<glyph unicode="&#xb4;" horiz-adv-x="501" d="M127 1307l266 241l72 -137l-293 -178z" />
<glyph unicode="&#xb5;" horiz-adv-x="815" d="M129 -369v1475h158v-735q0 -156 29.5 -214.5t84 -58.5t90 52.5t39.5 160.5v795h156v-1106h-96l-31 127q-35 -158 -151 -158q-109 0 -148 140l-31 -478h-100z" />
<glyph unicode="&#xb6;" horiz-adv-x="706" d="M96 893v541h482v-1434h-164v893h-318z" />
<glyph unicode="&#xb7;" horiz-adv-x="333" d="M86 532v189h162v-189h-162z" />
<glyph unicode="&#xb8;" horiz-adv-x="372" d="M47 -262l84 16q4 -43 13.5 -56t27.5 -13q39 0 39 61v21q0 29 -16.5 50t-73.5 38l20 145h64l-10 -100q112 -33 112 -150q0 -150 -135 -149q-111 0 -125 137z" />
<glyph unicode="&#xb9;" horiz-adv-x="362" d="M23 1339v72l159 53h84v-860h-129v735h-114z" />
<glyph unicode="&#xba;" horiz-adv-x="581" d="M84 948v215q0 170 54.5 235.5t153.5 65.5t152.5 -65.5t53.5 -235.5v-215q0 -172 -53.5 -236.5t-152.5 -64.5t-153.5 64.5t-54.5 236.5zM211 928q0 -180 81 -180t81 180v254q0 182 -81 182t-81 -182v-254z" />
<glyph unicode="&#xbb;" horiz-adv-x="698" d="M25 334l139 321l-139 322l57 53l215 -307v-135l-215 -307zM319 334l140 321l-140 322l58 53l215 -307v-135l-215 -307z" />
<glyph unicode="&#xbc;" horiz-adv-x="1419" d="M104 1339v72l160 53h84v-860h-129v735h-115zM401 -31l375 1495h117l-375 -1495h-117zM817 190v68l197 602h223v-567h49v-103h-49v-190h-129v190h-291zM952 293h156v481z" />
<glyph unicode="&#xbd;" horiz-adv-x="1419" d="M121 1339v72l160 53h84v-860h-129v735h-115zM401 -31l375 1495h117l-375 -1495h-117zM877 0v61q0 111 102 250l139 201q45 78 45 150q0 119 -78 118q-39 0 -60 -31.5t-28 -117.5l-118 16q12 131 64 181.5t146.5 50.5t147.5 -47.5t53 -164t-80 -237.5l-217 -330h291v-100 h-407z" />
<glyph unicode="&#xbe;" horiz-adv-x="1419" d="M109 805l116 20q8 -86 28.5 -118.5t57.5 -32.5q88 0 88 127v39q0 86 -22.5 113.5t-69.5 27.5h-63v92h71q78 0 78 125v45q0 129 -76 129q-41 0 -61 -31.5t-27 -117.5l-118 16q10 129 62 180t148.5 51t146.5 -52t50 -187t-63 -189q76 -55 75.5 -206.5t-58.5 -207 t-155.5 -55.5t-146.5 50.5t-61 181.5zM467 -31l375 1495h116l-374 -1495h-117zM838 190v68l196 602h223v-567h50v-103h-50v-190h-129v190h-290zM973 293h155v481z" />
<glyph unicode="&#xbf;" horiz-adv-x="735" d="M61 -25.5q0 181.5 116 399.5t116 388h123q0 -244 -97.5 -442.5t-97.5 -325.5t34 -173t96.5 -46t96 56t46.5 208l145 -23q-16 -209 -89 -291.5t-206 -82.5t-208 75.5t-75 257zM272 918v188h162v-188h-162z" />
<glyph unicode="&#xc0;" horiz-adv-x="806" d="M33 0l262 1434h217l262 -1434h-164l-63 373h-289l-61 -373h-164zM238 1739l71 137l266 -242l-45 -73zM281 504h243l-121 723z" />
<glyph unicode="&#xc1;" horiz-adv-x="806" d="M33 0l262 1434h217l262 -1434h-164l-63 373h-289l-61 -373h-164zM238 1634l266 242l71 -137l-292 -178zM281 504h243l-121 723z" />
<glyph unicode="&#xc2;" horiz-adv-x="806" d="M33 0l262 1434h217l262 -1434h-164l-63 373h-289l-61 -373h-164zM199 1626l184 238h39l188 -238l-49 -70l-158 144l-157 -144zM281 504h243l-121 723z" />
<glyph unicode="&#xc3;" horiz-adv-x="806" d="M33 0l262 1434h217l262 -1434h-164l-63 373h-289l-61 -373h-164zM180 1690q68 129 150 129q29 0 81 -29t76 -29q45 0 91 62l49 -78q-76 -129 -150 -129q-29 0 -81 29.5t-77 29.5q-43 0 -92 -63zM281 504h243l-121 723z" />
<glyph unicode="&#xc4;" horiz-adv-x="806" d="M33 0l262 1434h217l262 -1434h-164l-63 373h-289l-61 -373h-164zM180 1651v192h166v-192h-166zM281 504h243l-121 723zM467 1651v192h164v-192h-164z" />
<glyph unicode="&#xc5;" horiz-adv-x="806" d="M33 0l262 1434h217l262 -1434h-164l-63 373h-289l-61 -373h-164zM250 1726v29q0 115 41 157t114.5 42t114.5 -42t41 -157v-29q0 -115 -41 -156.5t-114.5 -41.5t-114.5 42t-41 156zM281 504h243l-121 723zM350 1714q0 -100 55.5 -100t55.5 100v53q0 100 -55.5 100.5 t-55.5 -100.5v-53z" />
<glyph unicode="&#xc6;" horiz-adv-x="1210" d="M-18 0l501 1434h635v-131h-354v-560h323v-131h-323v-481h360v-131h-522v612h-233l-213 -612h-174zM414 743h188v537z" />
<glyph unicode="&#xc7;" horiz-adv-x="765" d="M100 438v557q0 268 82 368.5t220.5 100.5t211 -71.5t88.5 -255.5l-149 -37q-12 131 -46 181t-100.5 50t-105.5 -64.5t-39 -236.5v-635q0 -168 39 -230.5t110.5 -62.5t107.5 54.5t48 205.5l144 -18q-18 -209 -91 -291t-198 -84l-6 -69q112 -33 112 -150q0 -150 -135 -149 q-111 0 -125 137l84 16q4 -43 13.5 -56t27.5 -13q39 0 39 61v21q0 29 -16.5 50t-73.5 38l16 118q-125 14 -191.5 119t-66.5 346z" />
<glyph unicode="&#xc8;" horiz-adv-x="735" d="M129 0v1434h514v-131h-350v-523h319v-131h-319v-518h356v-131h-520zM201 1739l71 137l267 -242l-45 -73z" />
<glyph unicode="&#xc9;" horiz-adv-x="735" d="M129 0v1434h514v-131h-350v-523h319v-131h-319v-518h356v-131h-520zM246 1634l266 242l72 -137l-293 -178z" />
<glyph unicode="&#xca;" horiz-adv-x="735" d="M129 0v1434h514v-131h-350v-523h319v-131h-319v-518h356v-131h-520zM193 1626l184 238h39l188 -238l-49 -70l-158 144l-157 -144z" />
<glyph unicode="&#xcb;" horiz-adv-x="735" d="M129 0v1434h514v-131h-350v-523h319v-131h-319v-518h356v-131h-520zM143 1651v192h166v-192h-166zM430 1651v192h164v-192h-164z" />
<glyph unicode="&#xcc;" horiz-adv-x="421" d="M43 1739l72 137l266 -242l-45 -73zM129 0v1434h164v-1434h-164z" />
<glyph unicode="&#xcd;" horiz-adv-x="421" d="M43 1634l266 242l72 -137l-293 -178zM129 0v1434h164v-1434h-164z" />
<glyph unicode="&#xce;" horiz-adv-x="421" d="M6 1626l184 238h39l189 -238l-49 -70l-158 144l-158 -144zM129 0v1434h164v-1434h-164z" />
<glyph unicode="&#xcf;" horiz-adv-x="421" d="M-12 1651v192h166v-192h-166zM129 0v1434h164v-1434h-164zM274 1651v192h164v-192h-164z" />
<glyph unicode="&#xd0;" horiz-adv-x="831" d="M33 664v106h96v664h279q156 0 239.5 -99.5t83.5 -359.5v-516q0 -260 -84 -359.5t-239 -99.5h-279v664h-96zM293 129h115q161 0 161 293v588q0 293 -161 293h-115v-533h160v-106h-160v-535z" />
<glyph unicode="&#xd1;" horiz-adv-x="921" d="M129 0v1434h170l334 -1049v1049h160v-1434h-170l-334 1047v-1047h-160zM240 1690q68 129 149 129q29 0 81 -29t77 -29q45 0 90 62l49 -78q-75 -129 -149 -129q-29 0 -81.5 29.5t-76.5 29.5q-43 0 -92 -63z" />
<glyph unicode="&#xd2;" horiz-adv-x="841" d="M100 428v578q0 260 83 359t237.5 99t237.5 -99t83 -359v-578q0 -260 -83 -359.5t-237.5 -99.5t-237.5 99.5t-83 359.5zM254 1739l72 137l266 -242l-45 -73zM262 397q0 -168 42 -231.5t118 -63.5q158 0 158 295v639q0 295 -158 295q-76 0 -118 -63.5t-42 -231.5v-639z" />
<glyph unicode="&#xd3;" horiz-adv-x="841" d="M100 428v578q0 260 83 359t237.5 99t237.5 -99t83 -359v-578q0 -260 -83 -359.5t-237.5 -99.5t-237.5 99.5t-83 359.5zM254 1634l266 242l72 -137l-293 -178zM262 397q0 -168 42 -231.5t118 -63.5q158 0 158 295v639q0 295 -158 295q-76 0 -118 -63.5t-42 -231.5v-639z " />
<glyph unicode="&#xd4;" horiz-adv-x="841" d="M100 428v578q0 260 83 359t237.5 99t237.5 -99t83 -359v-578q0 -260 -83 -359.5t-237.5 -99.5t-237.5 99.5t-83 359.5zM217 1626l184 238h39l189 -238l-49 -70l-158 144l-158 -144zM262 397q0 -168 42 -231.5t118 -63.5q158 0 158 295v639q0 295 -158 295 q-76 0 -118 -63.5t-42 -231.5v-639z" />
<glyph unicode="&#xd5;" horiz-adv-x="841" d="M100 428v578q0 260 83 359t237.5 99t237.5 -99t83 -359v-578q0 -260 -83 -359.5t-237.5 -99.5t-237.5 99.5t-83 359.5zM199 1690q68 129 149 129q29 0 81 -29t77 -29q45 0 90 62l49 -78q-75 -129 -149 -129q-29 0 -81.5 29.5t-76.5 29.5q-43 0 -92 -63zM262 397 q0 -168 42 -231.5t118 -63.5q158 0 158 295v639q0 295 -158 295q-76 0 -118 -63.5t-42 -231.5v-639z" />
<glyph unicode="&#xd6;" horiz-adv-x="841" d="M100 428v578q0 260 83 359t237.5 99t237.5 -99t83 -359v-578q0 -260 -83 -359.5t-237.5 -99.5t-237.5 99.5t-83 359.5zM197 1651v192h165v-192h-165zM262 397q0 -168 42 -231.5t118 -63.5q158 0 158 295v639q0 295 -158 295q-76 0 -118 -63.5t-42 -231.5v-639zM483 1651 v192h164v-192h-164z" />
<glyph unicode="&#xd7;" horiz-adv-x="770" d="M125 465l186 252l-186 252l82 90l178 -242l178 242l82 -90l-186 -252l186 -252l-82 -90l-178 241l-178 -241z" />
<glyph unicode="&#xd8;" horiz-adv-x="841" d="M100 428v578q0 260 83 359t239 99q57 0 102 -12l21 88h106l-30 -137q121 -104 120 -397v-578q0 -260 -83 -359.5t-236 -99.5q-57 0 -105 13l-18 -88h-106l28 135q-121 98 -121 399zM262 397q0 -84 8 -133l226 1047q-33 20 -74 20q-76 0 -118 -63.5t-42 -231.5v-639z M346 121q29 -18 76 -19q158 0 158 295v639q0 70 -11 127z" />
<glyph unicode="&#xd9;" horiz-adv-x="864" d="M115 428v1006h161v-1037q0 -166 41 -230.5t114 -64.5t115 64.5t42 230.5v1037h162v-1006q0 -260 -83 -359.5t-234.5 -99.5t-234.5 99.5t-83 359.5zM266 1739l72 137l266 -242l-45 -73z" />
<glyph unicode="&#xda;" horiz-adv-x="864" d="M115 428v1006h161v-1037q0 -166 41 -230.5t114 -64.5t115 64.5t42 230.5v1037h162v-1006q0 -260 -83 -359.5t-234.5 -99.5t-234.5 99.5t-83 359.5zM266 1634l266 242l72 -137l-293 -178z" />
<glyph unicode="&#xdb;" horiz-adv-x="864" d="M115 428v1006h161v-1037q0 -166 41 -230.5t114 -64.5t115 64.5t42 230.5v1037h162v-1006q0 -260 -83 -359.5t-234.5 -99.5t-234.5 99.5t-83 359.5zM227 1626l185 238h39l188 -238l-49 -70l-158 144l-158 -144z" />
<glyph unicode="&#xdc;" horiz-adv-x="864" d="M115 428v1006h161v-1037q0 -166 41 -230.5t114 -64.5t115 64.5t42 230.5v1037h162v-1006q0 -260 -83 -359.5t-234.5 -99.5t-234.5 99.5t-83 359.5zM205 1651v192h166v-192h-166zM492 1651v192h163v-192h-163z" />
<glyph unicode="&#xdd;" horiz-adv-x="765" d="M33 1434h160l190 -740l188 740h160l-268 -955v-479h-160v479zM260 1634l266 242l72 -137l-293 -178z" />
<glyph unicode="&#xde;" horiz-adv-x="743" d="M129 0v1434h164v-254h90q154 0 236.5 -99.5t82.5 -359.5v-10q0 -260 -82.5 -358.5t-236.5 -98.5h-90v-254h-164zM293 383h90q158 0 158 301v64q0 301 -158 301h-90v-666z" />
<glyph unicode="&#xdf;" horiz-adv-x="835" d="M115 0v1034q0 238 70.5 334t211 96t214 -87t73.5 -281q0 -227 -158 -310l66 -59q109 -102 152.5 -200.5t43.5 -249t-66.5 -229.5t-168.5 -79q-223 0 -223 291h125q0 -166 88 -166q51 0 74.5 41t23.5 159t-35 198.5t-127 169.5l-92 86h-4v67q78 31 108.5 96.5t30.5 184.5 q0 242 -125 241q-66 0 -93.5 -66.5t-27.5 -238.5v-1032h-161z" />
<glyph unicode="&#xe0;" horiz-adv-x="753" d="M92 305v37q0 195 57.5 265.5t164 70.5t167.5 -82v215q0 197 -123 197q-104 0 -198 -121l-56 114q47 57 120 96.5t149 39.5q266 0 266 -361v-776h-96l-33 133q-23 -82 -75 -123t-118 -41q-111 0 -168 71t-57 265zM209 1411l72 137l266 -241l-45 -74zM248 293 q0 -195 102 -195q59 0 93 43t38 156v55q-4 121 -37.5 168t-93.5 47q-102 0 -102 -194v-80z" />
<glyph unicode="&#xe1;" horiz-adv-x="753" d="M92 305v37q0 195 57.5 265.5t164 70.5t167.5 -82v215q0 197 -123 197q-104 0 -198 -121l-56 114q47 57 120 96.5t149 39.5q266 0 266 -361v-776h-96l-33 133q-23 -82 -75 -123t-118 -41q-111 0 -168 71t-57 265zM248 293q0 -195 102 -195q59 0 93 43t38 156v55 q-4 121 -37.5 168t-93.5 47q-102 0 -102 -194v-80zM254 1307l266 241l72 -137l-293 -178z" />
<glyph unicode="&#xe2;" horiz-adv-x="753" d="M92 305v37q0 195 57.5 265.5t164 70.5t167.5 -82v215q0 197 -123 197q-104 0 -198 -121l-56 114q47 57 120 96.5t149 39.5q266 0 266 -361v-776h-96l-33 133q-23 -82 -75 -123t-118 -41q-111 0 -168 71t-57 265zM172 1298l184 238h39l189 -238l-49 -69l-158 143 l-158 -143zM248 293q0 -195 102 -195q59 0 93 43t38 156v55q-4 121 -37.5 168t-93.5 47q-102 0 -102 -194v-80z" />
<glyph unicode="&#xe3;" horiz-adv-x="753" d="M92 305v37q0 195 57.5 265.5t164 70.5t167.5 -82v215q0 197 -123 197q-104 0 -198 -121l-56 114q47 57 120 96.5t149 39.5q266 0 266 -361v-776h-96l-33 133q-23 -82 -75 -123t-118 -41q-111 0 -168 71t-57 265zM172 1362q68 129 150 129q29 0 81 -28.5t76 -28.5 q45 0 90 61l49 -78q-75 -129 -149 -129q-29 0 -81 30t-77 30q-43 0 -92 -64zM248 293q0 -195 102 -195q59 0 93 43t38 156v55q-4 121 -37.5 168t-93.5 47q-102 0 -102 -194v-80z" />
<glyph unicode="&#xe4;" horiz-adv-x="753" d="M92 305v37q0 195 57.5 265.5t164 70.5t167.5 -82v215q0 197 -123 197q-104 0 -198 -121l-56 114q47 57 120 96.5t149 39.5q266 0 266 -361v-776h-96l-33 133q-23 -82 -75 -123t-118 -41q-111 0 -168 71t-57 265zM154 1323v193h165v-193h-165zM248 293q0 -195 102 -195 q59 0 93 43t38 156v55q-4 121 -37.5 168t-93.5 47q-102 0 -102 -194v-80zM440 1323v193h164v-193h-164z" />
<glyph unicode="&#xe5;" horiz-adv-x="753" d="M92 305v37q0 195 57.5 265.5t164 70.5t167.5 -82v215q0 197 -123 197q-104 0 -198 -121l-56 114q47 57 120 96.5t149 39.5q266 0 266 -361v-776h-96l-33 133q-23 -82 -75 -123t-118 -41q-111 0 -168 71t-57 265zM248 293q0 -195 102 -195q59 0 93 43t38 156v55 q-4 121 -37.5 168t-93.5 47q-102 0 -102 -194v-80zM252 1399v28q0 115 41 157t114.5 42t114.5 -42t41 -157v-28q0 -115 -41 -157t-114.5 -42t-114.5 42t-41 157zM352 1386q0 -100 55.5 -100t55.5 100v54q0 100 -55.5 100t-55.5 -100v-54z" />
<glyph unicode="&#xe6;" horiz-adv-x="1161" d="M92 276v46q0 178 57.5 242.5t167.5 64.5h164v182q0 197 -123 197q-104 0 -198 -121l-56 114q47 57 120 96.5t149 39.5q129 0 194 -82q72 82 210 82t211 -92.5t73 -337.5v-209h-422v-127q0 -274 133 -275q61 0 96 46t47 167l140 -22q-16 -178 -85 -248t-194 -70 q-199 0 -260 170q-20 -84 -74.5 -127t-124.5 -43q-111 0 -168 64.5t-57 242.5zM248 260q0 -162 102 -162q61 0 96 40t35 147v213h-131q-102 0 -102 -164v-74zM639 629h264v106q0 274 -132 274.5t-132 -274.5v-106z" />
<glyph unicode="&#xe7;" horiz-adv-x="718" d="M100 358v349q0 244 72 337t196 93t193.5 -68t83.5 -244l-143 -39q-8 223 -125 224q-59 0 -90 -53.5t-31 -221.5v-391q0 -143 31.5 -194.5t91 -51.5t92.5 50.5t47 193.5l133 -20q-16 -184 -79.5 -263t-172.5 -88l-6 -71q113 -33 113 -150q0 -150 -135 -149 q-111 0 -125 137l84 16q4 -43 13 -56t28 -13q39 0 39 61v21q0 29 -16.5 50t-74.5 38l17 116q-236 18 -236 387z" />
<glyph unicode="&#xe8;" d="M100 399v308q0 244 77 337t216 93t211 -92.5t72 -337.5v-220h-420v-116q0 -274 131 -275q63 0 98 45t50 168l137 -22q-15 -178 -84.5 -248t-201.5 -70t-209 93.5t-77 336.5zM221 1411l72 137l266 -241l-45 -74zM256 618h262v117q0 274 -129 275q-133 -1 -133 -275v-117z " />
<glyph unicode="&#xe9;" d="M100 399v308q0 244 77 337t216 93t211 -92.5t72 -337.5v-220h-420v-116q0 -274 131 -275q63 0 98 45t50 168l137 -22q-15 -178 -84.5 -248t-201.5 -70t-209 93.5t-77 336.5zM236 1307l266 241l71 -137l-292 -178zM256 618h262v117q0 274 -129 275q-133 -1 -133 -275v-117 z" />
<glyph unicode="&#xea;" d="M100 399v308q0 244 77 337t216 93t211 -92.5t72 -337.5v-220h-420v-116q0 -274 131 -275q63 0 98 45t50 168l137 -22q-15 -178 -84.5 -248t-201.5 -70t-209 93.5t-77 336.5zM184 1298l185 238h39l188 -238l-49 -69l-158 143l-158 -143zM256 618h262v117q0 274 -129 275 q-133 -1 -133 -275v-117z" />
<glyph unicode="&#xeb;" d="M100 399v308q0 244 77 337t216 93t211 -92.5t72 -337.5v-220h-420v-116q0 -274 131 -275q63 0 98 45t50 168l137 -22q-15 -178 -84.5 -248t-201.5 -70t-209 93.5t-77 336.5zM164 1323v193h166v-193h-166zM256 618h262v117q0 274 -129 275q-133 -1 -133 -275v-117z M451 1323v193h163v-193h-163z" />
<glyph unicode="&#xec;" horiz-adv-x="415" d="M39 1411l72 137l266 -241l-45 -74zM129 0v1106h158v-1106h-158z" />
<glyph unicode="&#xed;" horiz-adv-x="415" d="M55 1307l267 241l71 -137l-293 -178zM129 0v1106h158v-1106h-158z" />
<glyph unicode="&#xee;" horiz-adv-x="415" d="M4 1298l184 238h39l189 -238l-49 -69l-158 143l-158 -143zM129 0v1106h158v-1106h-158z" />
<glyph unicode="&#xef;" horiz-adv-x="415" d="M-16 1323v193h166v-193h-166zM129 0v1106h158v-1106h-158zM270 1323v193h164v-193h-164z" />
<glyph unicode="&#xf0;" d="M100 399v267q0 430 252 430q119 0 174 -113q-6 193 -37 328l-176 -86v104l148 72q-29 68 -74 104.5t-83 43.5t-95 7l-19 127q141 0 237.5 -44t158.5 -179l147 72v-102l-117 -58q60 -194 60 -526v-447q0 -244 -75 -337t-213 -93t-213 93.5t-75 336.5zM256 371 q0 -274 133 -275q129 1 129 275v323q0 274 -129 275q-133 0 -133 -275v-323z" />
<glyph unicode="&#xf1;" horiz-adv-x="815" d="M129 0v1106h96l41 -176q43 207 215 207q106 0 162.5 -94.5t56.5 -344.5v-698h-157v754q0 256 -101 256q-152 0 -155 -439v-571h-158zM203 1362q68 129 149 129q29 0 81 -28.5t77 -28.5q45 0 90 61l49 -78q-75 -129 -149 -129q-29 0 -81 30t-77 30q-43 0 -92 -64z" />
<glyph unicode="&#xf2;" d="M100 399v308q0 244 75 337t213 93t213 -93t75 -337v-308q0 -244 -75 -337t-213 -93t-213 93.5t-75 336.5zM221 1411l72 137l266 -241l-45 -74zM256 371q0 -274 133 -275q129 1 129 275v364q0 274 -129 275q-133 0 -133 -275v-364z" />
<glyph unicode="&#xf3;" d="M100 399v308q0 244 75 337t213 93t213 -93t75 -337v-308q0 -244 -75 -337t-213 -93t-213 93.5t-75 336.5zM236 1307l266 241l71 -137l-292 -178zM256 371q0 -274 133 -275q129 1 129 275v364q0 274 -129 275q-133 0 -133 -275v-364z" />
<glyph unicode="&#xf4;" d="M100 399v308q0 244 75 337t213 93t213 -93t75 -337v-308q0 -244 -75 -337t-213 -93t-213 93.5t-75 336.5zM184 1298l185 238h39l188 -238l-49 -69l-158 143l-158 -143zM256 371q0 -274 133 -275q129 1 129 275v364q0 274 -129 275q-133 0 -133 -275v-364z" />
<glyph unicode="&#xf5;" d="M100 399v308q0 244 75 337t213 93t213 -93t75 -337v-308q0 -244 -75 -337t-213 -93t-213 93.5t-75 336.5zM168 1362q68 129 149 129q29 0 81.5 -28.5t76.5 -28.5q45 0 90 61l49 -78q-75 -129 -149 -129q-29 0 -81 30t-77 30q-43 0 -92 -64zM256 371q0 -274 133 -275 q129 1 129 275v364q0 274 -129 275q-133 0 -133 -275v-364z" />
<glyph unicode="&#xf6;" d="M100 399v308q0 244 75 337t213 93t213 -93t75 -337v-308q0 -244 -75 -337t-213 -93t-213 93.5t-75 336.5zM164 1323v193h166v-193h-166zM256 371q0 -274 133 -275q129 1 129 275v364q0 274 -129 275q-133 0 -133 -275v-364zM451 1323v193h163v-193h-163z" />
<glyph unicode="&#xf7;" horiz-adv-x="772" d="M115 653v127h540v-127h-540zM315 281v159h138v-159h-138zM315 993v160h138v-160h-138z" />
<glyph unicode="&#xf8;" d="M100 399v308q0 244 75 337t214 93q37 0 68 -7l53 246h106l-61 -286q121 -90 121 -383v-308q0 -244 -75 -337t-212 -93q-41 0 -74 6l-51 -245h-106l61 286q-119 92 -119 383zM256 371q0 -74 10 -135l164 765q-18 8 -41 9q-133 0 -133 -275v-364zM344 104q18 -8 45 -8 q129 1 129 275v364q0 74 -10 135z" />
<glyph unicode="&#xf9;" horiz-adv-x="800" d="M115 305v801h155v-813q0 -113 28 -154t83 -41q125 0 133 199v809h156v-1106h-97l-32 135q-47 -166 -199 -166q-113 0 -170 70t-57 266zM231 1411l72 137l266 -241l-45 -74z" />
<glyph unicode="&#xfa;" horiz-adv-x="800" d="M115 305v801h155v-813q0 -113 28 -154t83 -41q125 0 133 199v809h156v-1106h-97l-32 135q-47 -166 -199 -166q-113 0 -170 70t-57 266zM246 1307l266 241l72 -137l-293 -178z" />
<glyph unicode="&#xfb;" horiz-adv-x="800" d="M115 305v801h155v-813q0 -113 28 -154t83 -41q125 0 133 199v809h156v-1106h-97l-32 135q-47 -166 -199 -166q-113 0 -170 70t-57 266zM195 1298l184 238h39l188 -238l-49 -69l-158 143l-157 -143z" />
<glyph unicode="&#xfc;" horiz-adv-x="800" d="M115 305v801h155v-813q0 -113 28 -154t83 -41q125 0 133 199v809h156v-1106h-97l-32 135q-47 -166 -199 -166q-113 0 -170 70t-57 266zM174 1323v193h166v-193h-166zM461 1323v193h164v-193h-164z" />
<glyph unicode="&#xfd;" horiz-adv-x="714" d="M-14 -307l55 106q76 -68 131 -67q86 0 115 168l16 94l-270 1112h157l177 -803l153 803h160l-283 -1274q-24 -113 -82.5 -172t-145.5 -59t-183 92zM233 1307l267 241l71 -137l-292 -178z" />
<glyph unicode="&#xfe;" horiz-adv-x="798" d="M129 -369v1887h150v-545q55 164 196 164q109 0 166 -92.5t57 -337.5v-308q0 -246 -57 -338t-166 -92q-150 0 -196 193v-531h-150zM279 553q0 -184 23.5 -290.5t54 -136.5t81.5 -30q111 0 111 254v406q0 254 -109 254q-47 0 -78.5 -29t-56 -127t-26.5 -272v-29z" />
<glyph unicode="&#xff;" horiz-adv-x="714" d="M-14 -307l55 106q76 -68 131 -67q86 0 115 168l16 94l-270 1112h157l177 -803l153 803h160l-283 -1274q-24 -113 -82.5 -172t-145.5 -59t-183 92zM147 1323v193h166v-193h-166zM434 1323v193h164v-193h-164z" />
<glyph unicode="&#x152;" horiz-adv-x="1187" d="M100 428v578q0 260 83 359t239 99q92 0 153 -30h517v-131h-398q47 -107 47 -297v-226h322v-131h-322v-221q0 -193 -47 -297h406v-131h-525q-61 -31 -153 -31q-156 0 -239 99.5t-83 359.5zM262 397q0 -168 42 -231.5t118 -63.5q158 0 158 295v639q0 295 -158 295 q-76 0 -118 -63.5t-42 -231.5v-639z" />
<glyph unicode="&#x153;" horiz-adv-x="1198" d="M100 399v308q0 244 75 337t216 93t209 -93q70 92 212 92.5t214 -92t72 -337.5v-220h-420v-116q0 -274 131 -275q63 0 98 45t49 168l138 -22q-15 -178 -84.5 -248t-204.5 -70t-205 92q-68 -92 -209 -92t-216 93.5t-75 336.5zM256 371q0 -274 133 -275q129 1 129 275v364 q0 274 -129 275q-133 0 -133 -275v-364zM678 618h262v117q0 274 -129 275q-133 -1 -133 -275v-117z" />
<glyph unicode="&#x178;" horiz-adv-x="765" d="M33 1434h160l190 -740l188 740h160l-268 -955v-479h-160v479zM158 1651v192h166v-192h-166zM444 1651v192h164v-192h-164z" />
<glyph unicode="&#x2c6;" horiz-adv-x="538" d="M63 1298l185 238h39l188 -238l-49 -69l-158 143l-157 -143z" />
<glyph unicode="&#x2dc;" horiz-adv-x="614" d="M84 1362q68 129 149 129q29 0 81.5 -28.5t76.5 -28.5q45 0 90 61l49 -78q-75 -129 -149 -129q-29 0 -81 30t-77 30q-43 0 -92 -64z" />
<glyph unicode="&#x2000;" horiz-adv-x="977" />
<glyph unicode="&#x2001;" horiz-adv-x="1954" />
<glyph unicode="&#x2002;" horiz-adv-x="977" />
<glyph unicode="&#x2003;" horiz-adv-x="1954" />
<glyph unicode="&#x2004;" horiz-adv-x="651" />
<glyph unicode="&#x2005;" horiz-adv-x="488" />
<glyph unicode="&#x2006;" horiz-adv-x="325" />
<glyph unicode="&#x2007;" horiz-adv-x="325" />
<glyph unicode="&#x2008;" horiz-adv-x="244" />
<glyph unicode="&#x2009;" horiz-adv-x="390" />
<glyph unicode="&#x200a;" horiz-adv-x="108" />
<glyph unicode="&#x2010;" horiz-adv-x="516" d="M61 561v127h394v-127h-394z" />
<glyph unicode="&#x2011;" horiz-adv-x="516" d="M61 561v127h394v-127h-394z" />
<glyph unicode="&#x2012;" horiz-adv-x="516" d="M61 561v127h394v-127h-394z" />
<glyph unicode="&#x2013;" horiz-adv-x="821" d="M86 561v127h651v-127h-651z" />
<glyph unicode="&#x2014;" horiz-adv-x="1007" d="M86 561v127h836v-127h-836z" />
<glyph unicode="&#x2018;" horiz-adv-x="333" d="M86 1118v180l78 254l65 -12l-24 -233h43v-189h-162z" />
<glyph unicode="&#x2019;" horiz-adv-x="333" d="M86 1339v189h162v-180l-80 -254l-62 12l25 233h-45z" />
<glyph unicode="&#x201a;" horiz-adv-x="333" d="M86 0v188h162v-180l-80 -254l-62 13l25 233h-45z" />
<glyph unicode="&#x201c;" horiz-adv-x="565" d="M86 1118v180l78 254l65 -12l-24 -233h43v-189h-162zM319 1118v180l78 254l66 -12l-25 -233h43v-189h-162z" />
<glyph unicode="&#x201d;" horiz-adv-x="565" d="M86 1339v189h162v-180l-80 -254l-62 12l25 233h-45zM319 1339v189h162v-180l-80 -254l-61 12l25 233h-46z" />
<glyph unicode="&#x201e;" horiz-adv-x="565" d="M86 0v188h162v-180l-80 -254l-62 13l25 233h-45zM319 0v188h162v-180l-80 -254l-61 13l25 233h-46z" />
<glyph unicode="&#x2022;" horiz-adv-x="413" d="M55 717l150 174l153 -174l-153 -174z" />
<glyph unicode="&#x2026;" horiz-adv-x="923" d="M86 0v188h162v-188h-162zM381 0v188h162v-188h-162zM676 0v188h162v-188h-162z" />
<glyph unicode="&#x202f;" horiz-adv-x="390" />
<glyph unicode="&#x2039;" horiz-adv-x="403" d="M66 588v135l215 307l57 -53l-139 -322l139 -321l-57 -53z" />
<glyph unicode="&#x203a;" horiz-adv-x="403" d="M25 334l139 321l-139 322l57 53l215 -307v-135l-215 -307z" />
<glyph unicode="&#x205f;" horiz-adv-x="488" />
<glyph unicode="&#x20ac;" horiz-adv-x="786" d="M25 520v107h79v200h-79v107h79v61q0 268 83 368.5t222.5 100.5t213 -65.5t90.5 -233.5l-152 -22q-12 109 -45 148.5t-100.5 39.5t-109.5 -64.5t-42 -236.5v-96h246v-107h-246v-200h246v-107h-246v-125q0 -166 42 -229.5t114 -63.5t107.5 47.5t47.5 180.5l150 -13 q-16 -195 -92 -271.5t-219.5 -76.5t-226.5 100.5t-83 368.5v82h-79z" />
<glyph unicode="&#x2122;" horiz-adv-x="1114" d="M29 1456v90h360v-90h-125v-842h-112v842h-123zM467 614v932h170l106 -702l107 702h172v-932h-113v824l-110 -690h-113l-108 692v-826h-111z" />
<glyph unicode="&#x25fc;" horiz-adv-x="1105" d="M0 0v1106h1106v-1106h-1106z" />
<glyph unicode="&#xfb01;" horiz-adv-x="821" d="M39 979v127h88v10q0 244 61.5 337t171.5 93q70 0 127 -24l-32 -133q-35 20 -78 20q-94 0 -94 -262v-41h129v-127h-129v-979h-156v979h-88zM524 1323v193h170v-193h-170zM530 0v1106h158v-1106h-158z" />
<glyph unicode="&#xfb02;" horiz-adv-x="821" d="M39 979v127h88v10q0 244 61.5 337t171.5 93q70 0 127 -24l-32 -133q-35 20 -78 20q-94 0 -94 -262v-41h129v-127h-129v-979h-156v979h-88zM530 0v1516h158v-1516h-158z" />
</font>
</defs>
</svg>
